<?xml version="1.0" encoding="UTF-8" standalone="no"?>
<!-- Created with Inkscape (http://www.inkscape.org/) -->

<svg
   width="98.292702mm"
   height="61.617397mm"
   viewBox="0 0 98.292702 61.617397"
   version="1.1"
   id="svg1"
   inkscape:version="1.4.4 (dcaf3e7, 2026-05-05)"
   sodipodi:docname="ibis-compact.svg"
   xmlns:inkscape="http://www.inkscape.org/namespaces/inkscape"
   xmlns:sodipodi="http://sodipodi.sourceforge.net/DTD/sodipodi-0.dtd"
   xmlns="http://www.w3.org/2000/svg"
   xmlns:svg="http://www.w3.org/2000/svg">
  <sodipodi:namedview
     id="namedview1"
     pagecolor="#ffffff"
     bordercolor="#000000"
     borderopacity="0.25"
     inkscape:showpageshadow="2"
     inkscape:pageopacity="0.0"
     inkscape:pagecheckerboard="0"
     inkscape:deskcolor="#d1d1d1"
     inkscape:document-units="mm"
     inkscape:zoom="0.73480221"
     inkscape:cx="233.39614"
     inkscape:cy="108.19238"
     inkscape:window-width="1512"
     inkscape:window-height="916"
     inkscape:window-x="0"
     inkscape:window-y="38"
     inkscape:window-maximized="1"
     inkscape:current-layer="layer1" />
  <defs
     id="defs1" />
  <g
     inkscape:label="Layer 1"
     inkscape:groupmode="layer"
     id="layer1"
     transform="translate(-50.535417,-123.03124)">
    <path
       id="path2"
       d="m 62.268035,174.09321 v -6.29212 c 0,-0.0961 0,-0.1664 0,-0.21084 0,-0.0434 0,-0.10955 0,-0.19844 0,-0.0879 0,-0.15089 0,-0.19017 0,-0.0382 0,-0.0971 0,-0.17776 v -1.27744 c 1.562696,-0.10439 2.788461,-0.0951 3.679362,0.0289 0.889868,0.12196 1.530656,0.35864 1.922364,0.71107 0.390673,0.35037 0.604614,0.84129 0.640787,1.47175 0.0083,0.42994 -0.04031,0.80408 -0.144694,1.12034 -0.01137,0.061 -0.03204,0.12299 -0.06201,0.18604 -0.03101,0.061 -0.05788,0.12195 -0.08268,0.1819 l -0.04134,0.0661 c -0.0279,0.0362 -0.05374,0.0703 -0.07855,0.10336 -0.05271,0.0806 -0.110588,0.15089 -0.173633,0.21084 -0.173633,0.185 -0.357601,0.31316 -0.549837,0.38447 0.357601,0.061 0.649056,0.27698 0.872298,0.64905 0.225309,0.37207 0.306958,0.90951 0.243913,1.61231 -0.07751,0.78341 -0.481624,1.34152 -1.211296,1.67432 -0.08578,0.0331 -0.168465,0.0641 -0.248047,0.0909 -0.08061,0.0248 -0.159163,0.0475 -0.235644,0.0661 -0.107487,0.0165 -0.186035,0.032 -0.235645,0.0455 -0.04754,0.0145 -0.118855,0.0289 -0.214974,0.0455 -0.289388,0.0527 -0.56534,0.0692 -0.826822,0.0537 h -3.253549 z m 2.368848,-1.50068 c 0.360701,0.008 0.667659,-0.0434 0.921907,-0.1571 0.256316,-0.11575 0.384473,-0.29559 0.384473,-0.54157 0.0083,-0.20877 -0.04031,-0.38447 -0.144694,-0.52503 -0.08888,-0.11575 -0.202572,-0.18603 -0.343131,-0.21084 -0.10542,-0.0351 -0.219108,-0.0537 -0.343132,-0.0537 -0.165364,0.008 -0.324528,0.031 -0.475423,0.0661 z m 0,-3.41065 c 0.360701,0.0362 0.666626,-0.005 0.917774,-0.12402 0.250113,-0.11782 0.376204,-0.3359 0.376204,-0.65319 0,-0.34933 -0.126091,-0.58394 -0.376204,-0.7028 -0.251148,-0.11782 -0.557073,-0.14676 -0.917774,-0.0868 z m 4.846216,3.5016 c 0,-0.0879 0.001,-0.1509 0.0041,-0.19017 0.0052,-0.0382 0.0083,-0.0971 0.0083,-0.17777 v -0.0124 c 0,-0.0796 0.001,-0.13642 0.0041,-0.1695 0.0052,-0.0351 0.0083,-0.0889 0.0083,-0.16123 l 0.198437,-5.4901 0.0124,-0.36794 0.01654,-0.35553 0.30179,-0.0124 0.409277,-0.0124 c 1.253671,-0.0434 2.323373,-0.0351 3.208073,0.0248 0.914673,0.0641 1.5844,0.32143 2.00918,0.77308 0.423746,0.45269 0.636653,1.13895 0.636653,2.05879 0,0.65939 -0.171565,1.24334 -0.51263,1.75287 -0.342098,0.50746 -0.75861,0.90537 -1.248502,1.19476 l 2.025716,2.59209 -0.711068,0.0827 -0.591179,0.062 -0.644921,0.0827 -0.500228,0.0496 -0.367936,0.0538 -0.396875,-0.57878 c -0.06925,-0.10438 -0.143663,-0.21084 -0.223245,-0.31832 -0.05271,-0.0765 -0.10542,-0.1509 -0.157096,-0.22325 L 71.99664,171.91867 71.7858,174.395 h -2.356445 z m 2.711979,-3.01377 c 0.465087,0.0165 0.859895,-0.0424 1.182356,-0.17777 0.324528,-0.13436 0.487826,-0.3607 0.487826,-0.67799 0,-0.22841 -0.09715,-0.41755 -0.289388,-0.56638 -0.09715,-0.0879 -0.227377,-0.15399 -0.392741,-0.19843 -0.03617,-0.008 -0.07235,-0.0165 -0.107487,-0.0248 -0.06925,-0.0165 -0.139526,-0.03 -0.21084,-0.0413 -0.226343,-0.0413 -0.449585,-0.0537 -0.669726,-0.0372 z m 5.159374,1.76527 c 0,-0.14883 0,-0.29869 0,-0.45062 0,-0.12919 0,-0.25632 0,-0.38034 v -4.79144 h 2.699577 l -0.0248,0.78962 -0.0124,0.42168 -0.01654,0.44648 -0.169499,4.92373 c 0,0.10542 -0.0031,0.1819 -0.0083,0.23151 -0.0031,0.0475 -0.0041,0.11886 -0.0041,0.21498 0,0.10748 -0.0041,0.21394 -0.0124,0.31832 l -0.05374,1.28985 h -2.397786 z m 6.38514,3.06751 c -0.305924,0 -0.573608,-0.0227 -0.802018,-0.0661 -0.08888,-0.0103 -0.173633,-0.0248 -0.256315,-0.0413 -0.08268,-0.0165 -0.168465,-0.0382 -0.256315,-0.0661 -0.19327,-0.0517 -0.337964,-0.0961 -0.434082,-0.13229 -0.413412,-0.14883 -0.795817,-0.34107 -1.14515,-0.57878 l 0.169499,-0.35553 0.198437,-0.40515 0.198438,-0.39687 0.194303,-0.38034 0.21084,-0.43408 0.04134,0.0496 c 0.132292,0.20463 0.328662,0.39067 0.591178,0.5581 0.264584,0.16537 0.575676,0.24805 0.93431,0.24805 0.297656,0 0.534334,-0.0806 0.711068,-0.24391 0.1757,-0.16227 0.264583,-0.37621 0.264583,-0.64079 0,-0.24495 -0.08475,-0.42685 -0.252181,-0.54571 -0.165364,-0.11782 -0.445451,-0.24804 -0.839225,-0.3886 -0.115755,-0.0351 -0.23151,-0.0724 -0.347266,-0.11162 -0.113688,-0.0382 -0.230477,-0.0837 -0.351399,-0.13643 -0.124024,-0.0434 -0.243913,-0.0992 -0.359668,-0.16536 -0.113688,-0.0661 -0.222209,-0.14263 -0.326595,-0.23151 -0.05271,-0.0434 -0.103353,-0.0889 -0.152962,-0.13643 -0.04754,-0.0496 -0.09302,-0.10439 -0.136426,-0.16536 -0.254248,-0.32453 -0.380339,-0.75448 -0.380339,-1.28985 0,-0.57051 0.163298,-1.079 0.49196,-1.52549 0.330729,-0.44855 0.764811,-0.79581 1.302246,-1.04179 0.539502,-0.24495 1.117244,-0.36794 1.732194,-0.36794 0.456819,0 0.906404,0.0775 1.347721,0.23151 0.443384,0.15193 0.84956,0.37827 1.219564,0.678 l -0.198438,0.28938 -0.260449,0.40515 -0.264583,0.38447 -0.276986,0.40514 -0.198437,0.30593 -0.06615,-0.0662 c -0.14056,-0.12402 -0.307992,-0.22944 -0.500228,-0.31833 -0.19327,-0.0878 -0.42478,-0.13229 -0.694531,-0.13229 -0.272852,0 -0.486792,0.0703 -0.640788,0.21084 -0.155029,0.14056 -0.23151,0.33383 -0.23151,0.57878 0,0.21291 0.07235,0.3669 0.219108,0.46302 0.145727,0.0971 0.385506,0.20154 0.719335,0.31419 0.236679,0.0724 0.452686,0.15193 0.649056,0.23978 0.198438,0.0858 0.384473,0.1943 0.558106,0.3266 0.04341,0.0362 0.08785,0.0744 0.132291,0.11575 0.04341,0.0393 0.08785,0.0806 0.132292,0.12402 0.05168,0.0527 0.101286,0.11163 0.148828,0.17777 0.04961,0.0641 0.09612,0.13126 0.14056,0.20257 0.192237,0.37001 0.289388,0.80822 0.289388,1.31465 0,0.59015 -0.144694,1.08934 -0.434082,1.49655 -0.289388,0.40824 -0.677994,0.7183 -1.16582,0.93018 -0.485758,0.2098 -1.027327,0.31419 -1.624707,0.31419 z m 4.226098,-0.40928 v -6.29212 c 0,-0.0961 0,-0.1664 0,-0.21084 0,-0.0434 0,-0.10955 0,-0.19844 0,-0.0879 0,-0.15089 0,-0.19017 0,-0.0382 0,-0.0971 0,-0.17776 v -1.27744 c 1.562696,-0.10439 2.78846,-0.0951 3.679362,0.0289 0.889868,0.12196 1.530656,0.35864 1.922364,0.71107 0.390673,0.35037 0.604614,0.84129 0.640787,1.47175 0.0083,0.42994 -0.04031,0.80408 -0.144694,1.12034 -0.01137,0.061 -0.03204,0.12299 -0.06201,0.18604 -0.03101,0.061 -0.05788,0.12195 -0.08268,0.1819 l -0.04134,0.0661 c -0.02791,0.0362 -0.05374,0.0703 -0.07855,0.10336 -0.05271,0.0806 -0.110588,0.15089 -0.173633,0.21084 -0.173633,0.185 -0.357601,0.31316 -0.549837,0.38447 0.357601,0.061 0.649056,0.27698 0.872298,0.64905 0.225309,0.37207 0.306958,0.90951 0.243913,1.61231 -0.07751,0.78341 -0.481624,1.34152 -1.211296,1.67432 -0.08578,0.0331 -0.168465,0.0641 -0.248047,0.0909 -0.08062,0.0248 -0.159163,0.0475 -0.235644,0.0661 -0.107487,0.0165 -0.186035,0.032 -0.235645,0.0455 -0.04754,0.0145 -0.118855,0.0289 -0.214974,0.0455 -0.289388,0.0527 -0.56534,0.0692 -0.826822,0.0537 H 87.96569 Z m 2.368848,-1.50068 c 0.360701,0.008 0.667659,-0.0434 0.921907,-0.1571 0.256316,-0.11575 0.384473,-0.29559 0.384473,-0.54157 0.0083,-0.20877 -0.04031,-0.38447 -0.144694,-0.52503 -0.08888,-0.11575 -0.202572,-0.18603 -0.343131,-0.21084 -0.10542,-0.0351 -0.219108,-0.0537 -0.343132,-0.0537 -0.165365,0.008 -0.324528,0.031 -0.475423,0.0661 z m 0,-3.41065 c 0.360701,0.0362 0.666626,-0.005 0.917773,-0.12402 0.250114,-0.11782 0.376205,-0.3359 0.376205,-0.65319 0,-0.34933 -0.126091,-0.58394 -0.376205,-0.7028 -0.251147,-0.11782 -0.557072,-0.14676 -0.917773,-0.0868 z m 5.727815,-0.66972 c 0.02687,-0.0796 0.04961,-0.15813 0.06615,-0.23565 0.0186,-0.0434 0.03307,-0.0879 0.04134,-0.13229 0.0248,-0.0796 0.04651,-0.15916 0.06615,-0.23978 0.01654,-0.0434 0.02894,-0.0868 0.03721,-0.12815 l 0.512631,-1.95131 h 3.017903 l 1.496553,6.15983 c 0.0186,0.0444 0.0331,0.093 0.0413,0.1447 0,0.0279 0.008,0.0765 0.0248,0.14469 0.0269,0.10749 0.0548,0.21394 0.0827,0.31833 l 0.45888,1.89342 h -2.592084 l -0.289391,-1.42213 h -1.868618 l -0.276986,1.42213 h -2.410188 z m 2.596226,1.93476 -0.343133,-1.80247 h -0.210841 l -0.367937,1.80247 z m 3.774441,-0.8971 c 0,-0.0961 0,-0.16536 0,-0.20671 0,-0.0434 0,-0.10955 0,-0.19843 0,-0.0796 0,-0.1385 0,-0.17777 0,-0.0413 0,-0.10025 0,-0.17777 v -3.00136 h 2.33164 l 1.44694,3.58014 h 0.0909 l 0.22738,-3.58014 0.50023,-0.0124 h 1.01286 l 0.54983,0.0124 v 1.28984 c 0,0.10542 0,0.1819 0,0.23151 0,0.0475 0,0.11886 0,0.21497 0,0.0889 0,0.15503 0,0.19844 0,0.0444 0,0.11059 0,0.19844 v 4.27467 c 0,0.11576 0,0.23048 0,0.34314 0,0.0971 0,0.16743 0,0.21084 0,0.0444 0,0.11472 0,0.21083 v 1.50069 h -2.06292 l -1.89756,-3.80339 -0.10335,-0.0124 -0.23978,3.81579 h -1.85622 z m 7.25641,2.97656 c 0.008,-0.10438 0.0124,-0.17983 0.0124,-0.22737 0,-0.0496 0.004,-0.12609 0.0124,-0.23151 v -0.0165 c 0.008,-0.12092 0.0124,-0.21187 0.0124,-0.27285 0,-0.0631 0.005,-0.15503 0.0165,-0.27699 l 0.1447,-5.56865 1.0666,-0.0537 c 0.14056,-0.008 0.27492,-0.0124 0.40514,-0.0124 0.12403,-0.008 0.21291,-0.0124 0.26872,-0.0124 0.0579,0 0.14469,-0.005 0.26045,-0.0165 l 3.05097,-0.12815 v 2.10426 l -2.84013,0.11989 v 1.45934 h 1.77353 v 1.67432 l -1.77353,0.0248 v 1.2237 h 1.30224 c 0.1571,0 0.3142,0 0.47129,0 0.1509,0 0.29559,0 0.43408,0 h 0.63252 v 2.10427 h -5.29166 z m 10.42624,0.60358 c -0.0165,-0.10438 -0.0279,-0.17983 -0.0331,-0.22737 -0.006,-0.0496 -0.0166,-0.12196 -0.0331,-0.21911 v -0.0248 c -0.0165,-0.10438 -0.0279,-0.17983 -0.0331,-0.22737 -0.006,-0.0496 -0.0165,-0.12196 -0.0331,-0.21911 l -1.0914,-6.47816 h 2.44739 l 0.35554,3.3569 h 0.0661 l 0.38034,-0.97565 c 0.0351,-0.0879 0.0672,-0.17053 0.0951,-0.24804 0.0248,-0.0796 0.0455,-0.13643 0.062,-0.1695 0.0186,-0.0351 0.0413,-0.093 0.0661,-0.17364 l 0.62012,-1.59163 0.47542,-0.0124 0.45889,-0.0165 0.63252,-0.0248 0.92191,3.07991 h 0.0661 l 1.0666,-3.22461 h 2.26136 l -0.88056,4.22507 c -0.0165,0.0806 -0.0351,0.15916 -0.0537,0.23564 -0.0248,0.11576 -0.0558,0.23462 -0.091,0.35554 l -0.88056,3.91087 h -2.096 l -1.06667,-3.94808 H 123.671 l -1.09554,3.94808 h -2.26136 z m 9.45265,-0.60358 c 0.008,-0.10438 0.0124,-0.17983 0.0124,-0.22737 0,-0.0496 0.004,-0.12609 0.0124,-0.23151 v -0.0165 c 0.008,-0.12092 0.0124,-0.21187 0.0124,-0.27285 0,-0.0631 0.005,-0.15503 0.0165,-0.27699 l 0.1447,-5.56865 1.0666,-0.0537 c 0.14056,-0.008 0.27491,-0.0124 0.40514,-0.0124 0.12402,-0.008 0.21291,-0.0124 0.26872,-0.0124 0.0579,0 0.14469,-0.005 0.26045,-0.0165 l 3.05097,-0.12815 v 2.10426 l -2.84013,0.11989 v 1.45934 h 1.77353 v 1.67432 l -1.77353,0.0248 v 1.2237 h 1.30224 c 0.1571,0 0.31419,0 0.47129,0 0.1509,0 0.29559,0 0.43408,0 h 0.63252 v 2.10427 h -5.2916 z m 8.93692,1.97611 c -0.30593,0 -0.57361,-0.0227 -0.80202,-0.0661 -0.0889,-0.0103 -0.17363,-0.0248 -0.25631,-0.0413 -0.0827,-0.0165 -0.16847,-0.0382 -0.25632,-0.0661 -0.19327,-0.0517 -0.33796,-0.0961 -0.43408,-0.13229 -0.41341,-0.14883 -0.79582,-0.34107 -1.14515,-0.57878 l 0.1695,-0.35553 0.19843,-0.40515 0.19844,-0.39687 0.1943,-0.38034 0.21085,-0.43408 0.0413,0.0496 c 0.13229,0.20463 0.32866,0.39067 0.59118,0.5581 0.26458,0.16537 0.57567,0.24805 0.9343,0.24805 0.29766,0 0.53434,-0.0806 0.71107,-0.24391 0.1757,-0.16227 0.26459,-0.37621 0.26459,-0.64079 0,-0.24495 -0.0848,-0.42685 -0.25218,-0.54571 -0.16537,-0.11782 -0.44546,-0.24804 -0.83923,-0.3886 -0.11576,-0.0351 -0.23151,-0.0724 -0.34727,-0.11162 -0.11368,-0.0382 -0.23047,-0.0837 -0.3514,-0.13643 -0.12402,-0.0434 -0.24391,-0.0992 -0.35966,-0.16536 -0.11369,-0.0661 -0.22221,-0.14263 -0.3266,-0.23151 -0.0527,-0.0434 -0.10335,-0.0889 -0.15296,-0.13643 -0.0475,-0.0496 -0.093,-0.10439 -0.13643,-0.16536 -0.25425,-0.32453 -0.38034,-0.75448 -0.38034,-1.28985 0,-0.57051 0.1633,-1.079 0.49196,-1.52549 0.33073,-0.44855 0.76482,-0.79581 1.30225,-1.04179 0.5395,-0.24495 1.11724,-0.36794 1.73219,-0.36794 0.45683,0 0.90641,0.0775 1.34773,0.23151 0.44338,0.15193 0.84956,0.37827 1.21956,0.678 l -0.19844,0.28938 -0.26045,0.40515 -0.26458,0.38447 -0.27699,0.40514 -0.19843,0.30593 -0.0661,-0.0662 c -0.14056,-0.12402 -0.30799,-0.22944 -0.50023,-0.31833 -0.19327,-0.0878 -0.42478,-0.13229 -0.69453,-0.13229 -0.27285,0 -0.48679,0.0703 -0.64078,0.21084 -0.15504,0.14056 -0.23152,0.33383 -0.23152,0.57878 0,0.21291 0.0724,0.3669 0.21911,0.46302 0.14573,0.0971 0.38551,0.20154 0.71934,0.31419 0.23667,0.0724 0.45268,0.15193 0.64905,0.23978 0.19844,0.0858 0.38448,0.1943 0.55811,0.3266 0.0434,0.0362 0.0879,0.0744 0.13229,0.11575 0.0434,0.0393 0.0879,0.0806 0.13229,0.12402 0.0517,0.0527 0.10129,0.11163 0.14883,0.17777 0.0496,0.0641 0.0961,0.13126 0.14056,0.20257 0.19224,0.37001 0.28939,0.80822 0.28939,1.31465 0,0.59015 -0.14469,1.08934 -0.43409,1.49655 -0.28938,0.40824 -0.67799,0.7183 -1.16581,0.93018 -0.48576,0.2098 -1.02733,0.31419 -1.62471,0.31419 z m 5.85804,-4.05557 c 0,-0.11575 0,-0.2005 0,-0.25631 0,-0.0579 0,-0.14263 0,-0.25632 0,-0.0879 0,-0.15089 0,-0.19017 0,-0.0413 0,-0.10542 0,-0.1943 v -1.19476 h -1.76113 v -2.50114 l 3.34036,-0.0537 c 0.15916,0 0.31833,0 0.47542,0 0.16743,-0.008 0.33487,-0.0124 0.50023,-0.0124 l 1.90996,-0.0289 v 2.56728 l -1.93476,0.0289 -0.0951,4.26227 c 0,0.10542 -0.003,0.1819 -0.008,0.23151 -0.003,0.0476 -0.004,0.12403 -0.004,0.23151 0,0.0971 -0.003,0.16743 -0.008,0.21084 -0.003,0.0444 -0.004,0.10956 -0.004,0.19431 l -0.0124,0.97565 h -2.39779 z m -73.301983,10.16269 c 0,-0.11576 0,-0.2005 0,-0.25631 0,-0.0579 0,-0.14263 0,-0.25632 0,-0.0879 0,-0.1509 0,-0.19017 0,-0.0413 0,-0.10542 0,-0.1943 v -1.19476 h -1.761133 v -2.50114 l 3.340364,-0.0537 c 0.159164,0 0.318327,0 0.475423,0 0.167432,-0.008 0.334864,-0.0124 0.500228,-0.0124 l 1.909961,-0.0289 v 2.56729 l -1.934765,0.0289 -0.09508,4.26227 c 0,0.10542 -0.0031,0.1819 -0.0083,0.23151 -0.0031,0.0475 -0.0041,0.12402 -0.0041,0.23151 0,0.0971 -0.0031,0.16743 -0.0083,0.21084 -0.0031,0.0444 -0.0041,0.10955 -0.0041,0.1943 l -0.0124,0.97565 h -2.397782 z m 8.622729,4.01422 c -0.719336,0 -1.367358,-0.18603 -1.943034,-0.5581 -0.573608,-0.37414 -1.020093,-0.8971 -1.339453,-1.56683 -0.320394,-0.67179 -0.479557,-1.43867 -0.479557,-2.29857 0,-0.33279 0.04341,-0.6966 0.132291,-1.0914 0.01654,-0.0796 0.03721,-0.15813 0.06201,-0.23565 0.02687,-0.0796 0.05478,-0.15503 0.08268,-0.22737 0.03307,-0.0961 0.06821,-0.19017 0.107487,-0.28112 0.04134,-0.0909 0.08372,-0.17984 0.128158,-0.26872 0.341064,-0.7028 0.806152,-1.27331 1.393197,-1.71152 0.589111,-0.43822 1.208194,-0.65733 1.856217,-0.65733 0.895036,0 1.642277,0.28939 2.24069,0.86816 l 0.181901,0.19844 0.132291,0.1571 0.186036,0.24805 c 0.03307,0.0444 0.06201,0.093 0.08682,0.14469 0.02687,0.0527 0.05478,0.10542 0.08268,0.1571 0.385506,0.74724 0.578776,1.63917 0.578776,2.67477 0,0.46612 -0.05271,0.90434 -0.157097,1.31465 -0.0083,0.0279 -0.0155,0.0496 -0.02067,0.0661 -0.0062,0.0165 -0.0124,0.0393 -0.02067,0.0661 -0.0083,0.0444 -0.01964,0.0889 -0.03307,0.13229 -0.01137,0.0444 -0.02687,0.0889 -0.04548,0.13229 -0.03617,0.0971 -0.06201,0.1695 -0.07855,0.21911 -0.01654,0.0475 -0.04341,0.11886 -0.07855,0.21497 -0.305925,0.69247 -0.731738,1.24851 -1.277442,1.67019 -0.543636,0.42168 -1.135848,0.63251 -1.777669,0.63251 z m -0.0248,-2.51354 c 0.413412,0 0.731739,-0.18603 0.954981,-0.5581 0.223242,-0.37414 0.334863,-0.8475 0.334863,-1.418 0,-0.52607 -0.12299,-0.97565 -0.367936,-1.34772 -0.24598,-0.37207 -0.548804,-0.55811 -0.909506,-0.55811 -0.370003,0 -0.686262,0.17157 -0.950846,0.51263 -0.262516,0.3421 -0.39274,0.77618 -0.39274,1.30225 0,0.44648 0.07958,0.83715 0.239778,1.16995 0.0248,0.0641 0.05168,0.12816 0.08268,0.1943 0.03307,0.0641 0.07028,0.11783 0.111621,0.16123 0.07131,0.0724 0.13746,0.14677 0.198438,0.22325 0.200505,0.2129 0.434082,0.31832 0.698665,0.31832 z m 5.832202,-0.52916 -0.698665,-1.418 c -0.04444,-0.10749 -0.08062,-0.18397 -0.107488,-0.23151 -0.0248,-0.0496 -0.05994,-0.12196 -0.103353,-0.21911 -0.03307,-0.0765 -0.05994,-0.13333 -0.07855,-0.1695 -0.01654,-0.0351 -0.04341,-0.092 -0.07855,-0.1695 l -1.513085,-3.14606 h 2.368847 l 1.44694,2.73678 0.553971,-1.0666 c 0.04341,-0.0879 0.07855,-0.15399 0.103353,-0.19844 0.02687,-0.0434 0.06305,-0.10955 0.107487,-0.19843 0.07131,-0.1292 0.141594,-0.26045 0.21084,-0.39274 l 0.566374,-1.07901 h 2.434993 l -2.815332,5.60586 -0.01653,0.59531 c 0,0.0858 0,0.14883 0,0.19017 0,0.0393 0,0.0982 0,0.17777 0,0.0775 0,0.13436 0,0.1695 0,0.0362 0,0.093 0,0.1695 l -0.0248,1.52962 h -2.315104 z m 9.029939,-3.14193 c 0,-0.12402 0,-0.21291 0,-0.26872 0,-0.0579 0,-0.14469 0,-0.26045 0,-0.0765 0,-0.13332 0,-0.1695 0,-0.0351 0,-0.093 0,-0.17363 v -1.52549 l 0.372071,-0.0248 0.471289,-0.0289 0.607715,-0.0372 0.446484,-0.0289 0.669725,-0.0372 -0.169497,6.37067 1.025259,0.0124 c 0.07958,0 0.136426,0 0.169499,0 0.03514,0 0.09302,0 0.173633,0 0.112653,0 0.195337,0.003 0.248045,0.008 0.05478,0.003 0.134359,0.004 0.23978,0.004 l 1.39319,0.0124 v 2.35644 h -3.551198 c -0.09715,0 -0.167431,0 -0.21084,0 -0.04444,0 -0.114721,0 -0.210839,0 -0.08888,0 -0.15503,0 -0.198438,0 -0.04444,0 -0.110588,0 -0.198437,0 h -1.277442 z m 6.569103,3.15846 c 0,-0.14882 0,-0.29869 0,-0.45061 0,-0.1292 0,-0.25632 0,-0.38034 v -4.79144 h 2.69958 l -0.0248,0.78961 -0.0124,0.42168 -0.0166,0.44649 -0.1695,4.92373 c 0,0.10542 -0.003,0.1819 -0.008,0.23151 -0.003,0.0475 -0.004,0.11885 -0.004,0.21497 0,0.10749 -0.004,0.21394 -0.0124,0.31833 l -0.0537,1.28984 h -2.39779 z m 3.75171,2.69545 v -1.82728 c 0,-0.10439 0,-0.18294 0,-0.23565 0,-0.0548 0,-0.13436 0,-0.23978 0,-0.11265 0,-0.19533 0,-0.24804 0,-0.0517 0,-0.13229 0,-0.23978 v -5.6596 l 1.36839,-0.0372 h 1.31878 c 0.62219,0 1.00873,0.0124 1.15755,0.0372 0.71107,0.12402 1.24851,0.34933 1.61231,0.67386 0.3638,0.32246 0.5457,0.74827 0.5457,1.27744 0,0.5271 -0.0992,0.97875 -0.29765,1.35599 -0.19637,0.37517 -0.43822,0.65525 -0.72761,0.83922 0.23668,0.0527 0.45165,0.20154 0.64493,0.44649 0.0961,0.14056 0.16226,0.25114 0.19843,0.33073 l 0.0124,0.0248 c 0.0248,0.0444 0.0506,0.0992 0.0786,0.16536 0.0269,0.0661 0.0496,0.13023 0.0661,0.19017 0.11265,0.37001 0.16537,0.79582 0.1571,1.27745 -0.008,0.71933 -0.25012,1.25987 -0.72347,1.62057 -0.47439,0.35863 -1.04903,0.5519 -1.72393,0.57877 h -3.68763 z m 2.18694,-1.80248 c 0.42169,0.0806 0.77722,0.0724 1.06661,-0.0248 0.28938,-0.0961 0.43408,-0.30283 0.43408,-0.62012 0,-0.29766 -0.1447,-0.49403 -0.43408,-0.59118 -0.28939,-0.0961 -0.64492,-0.10955 -1.06661,-0.0413 z m -0.0661,-3.15846 c 0.43821,0.0444 0.80822,0.0165 1.11208,-0.0827 0.30282,-0.10129 0.45475,-0.29766 0.45475,-0.58705 0,-0.23668 -0.10129,-0.40928 -0.30179,-0.51676 -0.0444,-0.0248 -0.091,-0.0455 -0.14056,-0.062 -0.0475,-0.0186 -0.0951,-0.0341 -0.14469,-0.0455 -0.0476,-0.0134 -0.093,-0.0258 -0.13643,-0.0372 -0.0806,-0.0165 -0.16123,-0.0258 -0.24392,-0.0289 -0.0827,-0.005 -0.16019,-0.008 -0.23151,-0.008 l -0.36793,0.0372 z m 5.05602,0.0124 c 0,-0.0961 10e-4,-0.1664 0.004,-0.21084 0.005,-0.0434 0.008,-0.10852 0.008,-0.1943 0,-0.0796 10e-4,-0.13849 0.004,-0.17777 0.005,-0.0413 0.008,-0.10025 0.008,-0.17776 l 0.0289,-1.89756 0.0124,-0.39274 v -0.27699 l 0.31419,-0.0289 0.39688,-0.0248 0.35553,-0.0124 c 0.48163,-0.0269 0.99839,-0.0496 1.55029,-0.0661 0.55398,-0.0186 0.98496,-0.0186 1.29398,0 0.41032,0.0165 0.79995,0.14262 1.16996,0.3762 0.36897,0.23151 0.66559,0.57361 0.88883,1.02526 0.22324,0.45269 0.33487,0.99426 0.33487,1.62471 0,0.53537 -0.11059,1.00872 -0.33073,1.42213 -0.0858,0.1571 -0.15503,0.27182 -0.20671,0.34314 -0.0806,0.10542 -0.1602,0.1974 -0.23978,0.27698 -0.17363,0.185 -0.3638,0.339 -0.5705,0.46302 -0.20671,0.12196 -0.40308,0.20878 -0.58705,0.26045 l 0.8971,1.35599 c 0.06,0.0775 0.11679,0.1602 0.1695,0.24805 0.0434,0.0724 0.0786,0.12609 0.10335,0.16123 0.0269,0.0331 0.0631,0.0858 0.10749,0.15709 l 0.65733,1.01286 h -2.48874 l -1.76113,-2.3027 v 2.3027 h -2.24069 z m 2.2903,0.43408 c 0.41341,0.0724 0.76171,0.0486 1.04593,-0.0703 0.28629,-0.11782 0.42995,-0.35346 0.42995,-0.70693 0,-0.34933 -0.14366,-0.57981 -0.42995,-0.6904 -0.28422,-0.10955 -0.63252,-0.12919 -1.04593,-0.0579 z m 5.93659,-1.1038 c 0.0269,-0.0796 0.0496,-0.15813 0.0661,-0.23565 0.0186,-0.0434 0.0331,-0.0879 0.0413,-0.13229 0.0248,-0.0796 0.0465,-0.15916 0.0661,-0.23978 0.0165,-0.0434 0.0289,-0.0868 0.0372,-0.12816 l 0.51263,-1.9513 h 3.0179 l 1.49655,6.15983 c 0.0186,0.0444 0.0331,0.093 0.0413,0.1447 0,0.0279 0.008,0.0765 0.0248,0.14469 0.0269,0.10749 0.0548,0.21394 0.0827,0.31833 l 0.45888,1.89342 h -2.59209 l -0.28939,-1.42213 h -1.86861 l -0.27699,1.42213 h -2.41019 z m 2.59622,1.93476 -0.34313,-1.80247 h -0.21084 l -0.36794,1.80247 z m 3.82923,2.23656 c 0,-0.0879 0.001,-0.1509 0.004,-0.19017 0.005,-0.0382 0.008,-0.0971 0.008,-0.17777 v -0.0124 c 0,-0.0796 0.001,-0.13643 0.004,-0.1695 0.005,-0.0351 0.008,-0.0889 0.008,-0.16123 l 0.19844,-5.49011 0.0124,-0.36793 0.0165,-0.35554 0.30179,-0.0124 0.40927,-0.0124 c 1.25367,-0.0434 2.32338,-0.0351 3.20808,0.0248 0.91467,0.0641 1.5844,0.32143 2.00918,0.77308 0.42375,0.45269 0.63665,1.13895 0.63665,2.05879 0,0.65939 -0.17156,1.24334 -0.51263,1.75287 -0.3421,0.50746 -0.75861,0.90537 -1.2485,1.19476 l 2.02571,2.59209 -0.71106,0.0827 -0.59118,0.062 -0.64492,0.0827 -0.50023,0.0496 -0.36794,0.0537 -0.39687,-0.57877 c -0.0692,-0.10439 -0.14366,-0.21084 -0.22325,-0.31833 -0.0527,-0.0765 -0.10542,-0.15089 -0.15709,-0.22324 l -0.97565,-1.42214 -0.21084,2.47634 h -2.35645 z m 2.71198,-3.01377 c 0.46508,0.0165 0.85989,-0.0424 1.18235,-0.17777 0.32453,-0.13436 0.48783,-0.3607 0.48783,-0.67799 0,-0.22841 -0.0972,-0.41755 -0.28939,-0.56638 -0.0971,-0.0879 -0.22738,-0.15399 -0.39274,-0.19844 -0.0362,-0.008 -0.0724,-0.0165 -0.10749,-0.0248 -0.0692,-0.0165 -0.13953,-0.03 -0.21084,-0.0413 -0.22634,-0.0413 -0.44958,-0.0537 -0.66972,-0.0372 z m 7.16131,3.68763 c 0,-0.0879 0,-0.154 0,-0.19844 0,-0.0434 0,-0.10955 0,-0.19844 0,-0.0879 0,-0.15089 0,-0.19017 0,-0.0382 0,-0.10128 0,-0.19017 v -1.14515 l -1.72392,-3.38584 c -0.0362,-0.0765 -0.0651,-0.13332 -0.0868,-0.16949 -0.0228,-0.0351 -0.0496,-0.0879 -0.0827,-0.1571 -0.0444,-0.0961 -0.094,-0.19224 -0.14883,-0.28939 l -0.74827,-1.47588 h 2.48873 l 1.35599,2.41019 1.5503,-2.41019 h 2.63343 l -1.14515,1.97611 c -0.0444,0.0693 -0.0744,0.12402 -0.0909,0.16536 -0.0165,0.0393 -0.0476,0.093 -0.0909,0.16123 -0.0444,0.0724 -0.0765,0.12713 -0.0951,0.16537 -0.0165,0.0393 -0.0475,0.0941 -0.0909,0.16536 l -1.43453,2.47634 -0.0248,3.39411 h -2.26549 z m 0,0"
       style="fill:#041947;fill-opacity:1;fill-rule:nonzero;stroke:none;stroke-width:0.352778"
       aria-label="BrisBane WesT &#10;ToY LibRary" />
    <path
       id="path3"
       d="m 88.446473,154.68668 h -6.72853 v -6.72853 h 6.72853 z"
       style="fill:#0048ce;fill-opacity:1;fill-rule:nonzero;stroke:none;stroke-width:0.352778" />
    <path
       id="path4"
       d="m 95.175003,147.95779 h -6.72853 v -6.72853 h 6.72853 z"
       style="fill:#fd20a6;fill-opacity:1;fill-rule:nonzero;stroke:none;stroke-width:0.352778" />
    <path
       id="path5"
       d="m 95.175003,154.68668 h -6.72853 v -6.72853 h 6.72853 z"
       style="fill:#a40000;fill-opacity:1;fill-rule:nonzero;stroke:none;stroke-width:0.352778" />
    <path
       id="path6"
       d="m 95.175003,161.41521 h -6.72853 v -6.72853 h 6.72853 z"
       style="fill:#1c9347;fill-opacity:1;fill-rule:nonzero;stroke:none;stroke-width:0.352778" />
    <path
       id="path7"
       d="m 88.446473,161.41521 h -6.72853 v -6.72853 h 6.72853 z"
       style="fill:#fd20a6;fill-opacity:1;fill-rule:nonzero;stroke:none;stroke-width:0.352778" />
    <path
       id="path8"
       d="m 81.71759,161.41521 h -6.72853 v -6.72853 h 6.72853 z"
       style="fill:#ff7800;fill-opacity:1;fill-rule:nonzero;stroke:none;stroke-width:0.352778" />
    <path
       id="path9"
       d="m 74.988955,154.68663 3.364441,-6.72853 3.364089,6.72853"
       style="fill:#ffd800;fill-opacity:1;fill-rule:nonzero;stroke:none;stroke-width:0.352778" />
    <path
       id="path10"
       d="m 81.128947,140.9284 1.931458,-7.27075 4.657725,5.90762"
       style="fill:#ff7800;fill-opacity:1;fill-rule:nonzero;stroke:none;stroke-width:0.352778" />
    <path
       id="path11"
       d="m 108.78058,147.95779 h 6.72853 v 6.72853 h -6.72853 z"
       style="fill:#ff7800;fill-opacity:1;fill-rule:nonzero;stroke:none;stroke-width:0.352778" />
    <path
       id="path12"
       d="m 102.0517,147.95779 h 6.72853 v 6.72853 h -6.72853 z"
       style="fill:#ffd800;fill-opacity:1;fill-rule:nonzero;stroke:none;stroke-width:0.352778" />
    <path
       id="path13"
       d="m 95.32317,147.95779 h 6.72853 v 6.72853 h -6.72853 z"
       style="fill:#ff7800;fill-opacity:1;fill-rule:nonzero;stroke:none;stroke-width:0.352778" />
    <path
       id="path14"
       d="m 108.78058,161.41521 h -6.72853 v -6.72853 h 6.72853 z"
       style="fill:#1c9347;fill-opacity:1;fill-rule:nonzero;stroke:none;stroke-width:0.352778" />
    <path
       id="path15"
       d="m 122.238,161.41521 h -6.72853 v -6.72853 h 6.72853 z"
       style="fill:#1c9347;fill-opacity:1;fill-rule:nonzero;stroke:none;stroke-width:0.352778" />
    <path
       id="path16"
       d="m 135.6952,148.03917 h -6.72853 l 7.02063,-5.61446"
       style="fill:#1c9347;fill-opacity:1;fill-rule:nonzero;stroke:none;stroke-width:0.352778" />
    <path
       id="path17"
       d="m 135.98737,142.42468 6.43643,5.61446 h -6.72853"
       style="fill:#a40000;fill-opacity:1;fill-rule:nonzero;stroke:none;stroke-width:0.352778" />
    <path
       id="path18"
       d="m 128.96653,147.95779 h 6.72853 v 6.72853 h -6.72853 z"
       style="fill:#fd20a6;fill-opacity:1;fill-rule:nonzero;stroke:none;stroke-width:0.352778" />
    <path
       id="path19"
       d="m 122.238,147.95779 h 6.72853 v 6.72853 H 122.238 Z"
       style="fill:#a40000;fill-opacity:1;fill-rule:nonzero;stroke:none;stroke-width:0.352778" />
    <path
       id="path20"
       d="m 115.50911,147.95779 h 6.72853 v 6.72853 h -6.72853 z"
       style="fill:#0048ce;fill-opacity:1;fill-rule:nonzero;stroke:none;stroke-width:0.352778" />
    <path
       id="path21"
       d="M 128.96653,161.41521 H 122.238 v -6.72853 h 6.72853 z"
       style="fill:#ffd800;fill-opacity:1;fill-rule:nonzero;stroke:none;stroke-width:0.352778" />
    <path
       id="path22"
       d="m 135.69506,161.41521 h -6.72853 v -6.72853 h 6.72853 z"
       style="fill:#ff7800;fill-opacity:1;fill-rule:nonzero;stroke:none;stroke-width:0.352778" />
    <path
       id="path23"
       d="m 108.9284,147.94968 h -6.72853 v -6.72853 h 6.72853 z"
       style="fill:#0048ce;fill-opacity:1;fill-rule:nonzero;stroke:none;stroke-width:0.352778" />
    <path
       id="path24"
       d="m 115.65728,147.94968 h -6.72853 v -6.72853 h 6.72853 z"
       style="fill:#1c9347;fill-opacity:1;fill-rule:nonzero;stroke:none;stroke-width:0.352778" />
    <path
       id="path25"
       d="m 108.92851,141.20421 h -6.72853 l 7.02063,-5.61446"
       style="fill:#a40000;fill-opacity:1;fill-rule:nonzero;stroke:none;stroke-width:0.352778" />
    <path
       id="path26"
       d="m 109.22064,135.58971 6.43643,5.61446 h -6.72853"
       style="fill:#fd20a6;fill-opacity:1;fill-rule:nonzero;stroke:none;stroke-width:0.352778" />
    <path
       id="path27"
       d="m 142.42394,161.41521 h -6.72853 v -6.72853 h 6.72853 z"
       style="fill:#0048ce;fill-opacity:1;fill-rule:nonzero;stroke:none;stroke-width:0.352778" />
    <path
       id="path28"
       d="m 135.6952,154.68663 v -6.72853 h 6.72853 v 6.72853 z"
       style="fill:#ffd800;fill-opacity:1;fill-rule:nonzero;stroke:none;stroke-width:0.352778" />
    <path
       id="path29"
       d="m 81.529384,125.76298 c -0.254706,-0.21943 -0.459669,-0.43674 -0.600781,-0.76623 -0.242358,-0.56621 -0.680861,-1.016 -1.159933,-1.40371 -0.88653,-0.7179 -1.840089,-0.75388 -2.763661,-0.0727 -1.230841,0.9077 -1.986491,2.08986 -1.972733,3.67383 0.0046,0.55527 0.01834,1.11054 0.02787,1.66546 0.194028,1.55611 -0.361244,2.7492 -1.495424,3.62444 l 0.201436,-0.0632 c 0.386644,-0.12594 0.626533,0.36125 0.464608,0.73414 l 0.442736,0.0649 c 0.09172,0.0137 0.147108,0.10936 0.112536,0.19579 l -0.232128,0.58102 0.571148,0.15946 c 0.09419,0.20143 -0.02152,0.38417 -0.189795,0.55139 0.601486,-0.28928 1.291519,-0.88865 1.719086,-1.36243 0.363361,-0.45755 0.437445,-1.01 0.518936,-1.56174 0.1016,-0.68722 0.161572,-1.38254 0.415925,-2.04012 0.159103,-0.41098 0.382764,-0.80257 0.859014,-0.79198 0.440972,0.01 0.859014,0.19226 1.105253,0.62406 1.394883,2.44687 1.873602,5.02708 1.150408,7.78722 -0.112183,0.42862 -0.228953,0.86289 -0.01094,1.33949 0.46355,-0.19967 0.503061,-0.65193 0.605367,-1.02199 0.775405,-2.80459 0.551391,-5.56049 -0.441678,-8.27617 -0.2286,-0.62548 -0.49142,-1.24778 -0.535164,-1.92405 -0.01023,-0.15311 0.0194,-0.35842 0.115358,-0.45755 0.143581,-0.14852 0.309386,0.0141 0.436386,0.10654 2.429228,1.77023 4.204406,3.96486 4.577645,7.06896 0.06703,0.55739 0.04374,1.10984 -0.02293,1.6644 -0.01976,0.16263 -0.02117,0.35913 0.199672,0.39335 0.198967,0.031 0.300567,-0.12771 0.358775,-0.28505 0.149578,-0.40251 0.102659,-0.82161 0.08361,-1.2386 -0.168275,-3.67136 -1.795992,-6.60435 -4.540603,-8.96902"
       style="fill:#041947;fill-opacity:1;fill-rule:nonzero;stroke:none;stroke-width:0.352778" />
    <path
       id="path30"
       d="m 62.280242,141.63393 c -0.715081,0.99977 -1.360664,2.04717 -1.969558,3.11432 -0.602545,1.05622 -1.249539,2.13184 -1.747661,3.24132 0.9906,0.29845 2.05105,0.50553 3.063875,0.76236 1.058686,0.26846 2.116666,0.53904 3.176058,0.80539 0.50553,0.12841 1.015294,0.25788 1.483783,0.48683 0.900642,0.43921 1.59138,1.21462 2.176286,2.02812 0.629003,0.87524 1.177925,1.85843 1.261533,2.933 -0.740127,-1.61502 -1.7272,-3.17148 -3.168297,-4.21076 0.832909,1.06998 1.279878,2.43346 1.241778,3.78848 -0.369711,-1.52541 -0.806803,-3.16124 -2.018947,-4.15854 -0.06138,-0.0505 -0.130528,-0.10125 -0.210256,-0.10301 -0.09525,-0.002 -0.176389,0.0663 -0.244122,0.13335 -0.840669,0.83114 -1.186392,2.02635 -1.500364,3.16618 -0.0194,-1.19663 0.392995,-2.39572 1.144411,-3.3274 -2.298347,-0.16969 -4.566355,-0.73943 -6.67138,-1.67676 -0.146403,-0.0649 -0.303036,-0.14252 -0.371475,-0.28751 -0.155222,-0.32703 0.07655,-0.84702 0.195792,-1.15182 0.161219,-0.4131 0.37218,-0.80504 0.587375,-1.19239 0.990952,-1.78435 2.091619,-3.50837 3.29318,-5.15867"
       style="fill:#0048ce;fill-opacity:1;fill-rule:nonzero;stroke:none;stroke-width:0.352778" />
    <path
       id="path31"
       d="m 63.899562,143.94751 c -0.403931,1.87466 -0.808919,3.7525 -1.382183,5.58271 -0.0822,0.26211 -0.168275,0.52634 -0.187678,0.8001 -0.0194,0.27023 0.02716,0.53975 0.07161,0.8068 0.461786,2.76684 0.762,5.56084 0.898878,8.36295 1.56598,-1.00718 3.704872,-1.04034 5.301191,-0.0822 -1.700389,-0.3182 -3.501319,-0.51329 -5.12445,0.0847 1.700389,-0.26353 3.492853,0.11747 4.939242,1.04951 -1.500364,-0.62124 -3.147836,-0.88441 -4.767086,-0.76094 0.918986,0.13441 1.818216,0.40111 2.661708,0.78952 0.371475,0.17145 0.764117,0.40181 0.892528,0.79022 -2.348089,-1.52823 -5.46735,-1.79599 -8.041569,-0.69039 0.219427,-0.28081 0.583847,-0.39828 0.927452,-0.49318 0.729898,-0.20179 1.468967,-0.3683 2.2098,-0.52564 0.229659,-0.049 0.464961,-0.11606 0.695325,-0.15099 -0.26423,-2.24825 -0.529166,-4.49756 -0.906286,-6.72958 -0.1143,-0.67628 -0.239183,-1.35397 -0.246944,-2.03977 -0.02611,-2.29693 1.255536,-4.44394 1.314097,-6.74052"
       style="fill:#0048ce;fill-opacity:1;fill-rule:nonzero;stroke:none;stroke-width:0.352778" />
    <path
       id="path32"
       d="m 73.32843,132.66233 c -0.376767,0.25929 -0.711906,0.46002 -1.107722,0.31997 -0.39617,-0.14005 -0.708378,-0.44203 -1.044575,-0.69391 -1.160286,-0.87066 -2.670881,-1.17017 -4.120092,-1.10667 -1.449211,0.0631 -2.860674,0.46073 -4.253441,0.86678 -0.911931,0.26599 -1.82633,0.53834 -2.687108,0.9398 -0.865364,0.40393 -1.66617,0.93345 -2.439458,1.49366 -2.589036,1.87642 -4.909256,4.12362 -6.867525,6.65127 -0.144639,0.18662 -0.292806,0.3877 -0.270933,0.63888 0.0127,0.14711 0.108655,0.28187 0.25153,0.31997 0.407811,0.10901 0.562681,-0.61101 0.97402,-0.70873 -0.3429,0.2667 -0.470959,0.7754 -0.295275,1.17228 0.523169,-0.1016 1.008591,-0.38594 1.353255,-0.79269 l 0.03528,0.5087 c 0.72143,0.3616 1.42628,-0.98989 2.183694,-0.71155 -0.08678,0.12665 -0.01199,0.31186 0.116064,0.39652 0.128058,0.0843 0.289278,0.0952 0.442383,0.10372 2.361142,0.12876 4.722636,0.25788 7.083778,0.387 0.03986,0.43815 -0.03316,0.87947 -0.0088,1.31868 0.03351,0.60254 0.298098,1.26012 1.036461,1.32539 0.267406,0.0236 0.53587,-0.0444 0.771525,-0.17322 0.632884,-0.34643 0.974373,-0.98107 1.419931,-1.51553 1.05798,-1.26824 2.652889,-1.92581 4.119738,-2.68499 1.46685,-0.75953 2.960511,-1.78717 3.459339,-3.36162 0.236361,-0.74613 0.264231,-1.62984 0.850547,-2.14807 0.281164,-0.24835 0.716139,-0.5341 0.557742,-0.87347 l -0.571147,-0.15946 0.232128,-0.58102 c 0.03457,-0.0864 -0.02081,-0.18204 -0.112537,-0.1958 l -0.442736,-0.0649 c 0.161925,-0.37288 -0.07796,-0.86007 -0.464608,-0.73413"
       style="fill:#449dff;fill-opacity:1;fill-rule:nonzero;stroke:none;stroke-width:0.352778" />
    <path
       id="path33"
       d="m 79.640859,125.38223 c 0,0.3556 -0.288219,0.64382 -0.643819,0.64382 -0.3556,0 -0.64382,-0.28822 -0.64382,-0.64382 0,-0.3556 0.28822,-0.64382 0.64382,-0.64382 0.3556,0 0.643819,0.28822 0.643819,0.64382"
       style="fill:#ffd800;fill-opacity:1;fill-rule:nonzero;stroke:none;stroke-width:0.352778" />
    <path
       id="path34"
       d="m 79.467187,125.51928 c 0,0.12982 -0.105128,0.23495 -0.23495,0.23495 -0.129822,0 -0.235303,-0.10513 -0.235303,-0.23495 0,-0.12982 0.105481,-0.23495 0.235303,-0.23495 0.129822,0 0.23495,0.10513 0.23495,0.23495"
       style="fill:#041947;fill-opacity:1;fill-rule:nonzero;stroke:none;stroke-width:0.352778" />
  </g>
</svg>
