<?xml version="1.0" encoding="UTF-8" standalone="no"?>
<!-- Created with Inkscape (http://www.inkscape.org/) -->

<svg
   width="97.727859mm"
   height="87.880066mm"
   viewBox="0 0 97.727859 87.880066"
   version="1.1"
   id="svg1"
   inkscape:version="1.4.4 (dcaf3e7, 2026-05-05)"
   sodipodi:docname="birds-square.svg"
   xmlns:inkscape="http://www.inkscape.org/namespaces/inkscape"
   xmlns:sodipodi="http://sodipodi.sourceforge.net/DTD/sodipodi-0.dtd"
   xmlns="http://www.w3.org/2000/svg"
   xmlns:svg="http://www.w3.org/2000/svg">
  <sodipodi:namedview
     id="namedview1"
     pagecolor="#ffffff"
     bordercolor="#000000"
     borderopacity="0.25"
     inkscape:showpageshadow="2"
     inkscape:pageopacity="0.0"
     inkscape:pagecheckerboard="0"
     inkscape:deskcolor="#d1d1d1"
     inkscape:document-units="mm"
     inkscape:zoom="0.82602839"
     inkscape:cx="155.56366"
     inkscape:cy="143.45754"
     inkscape:window-width="1512"
     inkscape:window-height="916"
     inkscape:window-x="0"
     inkscape:window-y="38"
     inkscape:window-maximized="1"
     inkscape:current-layer="layer1" />
  <defs
     id="defs1" />
  <g
     inkscape:label="Layer 1"
     inkscape:groupmode="layer"
     id="layer1"
     transform="translate(-59.531251,-104.51041)">
    <path
       id="path220"
       d="m 131.04668,125.89953 4.42172,11.24197 11.7348,-4.61575 z"
       style="fill:#00db96 icc-color(Display, 0.38798523, 0.84698486, 0.60798645);fill-opacity:1;fill-rule:nonzero;stroke:none;stroke-width:0.352778" />
    <path
       id="path221"
       d="m 67.401163,167.39649 c 0,-4.88386 3.959225,-8.84343 8.843433,-8.84343 4.883855,0 8.84308,3.95957 8.84308,8.84343"
       style="fill:#ff595c icc-color(Display, 0.98799133, 0.4039917, 0.38798523);fill-opacity:1;fill-rule:nonzero;stroke:none;stroke-width:0.352778" />
    <path
       id="path222"
       d="M 99.677478,167.39664 H 87.865421 v -23.78251 h 11.812057 z"
       style="fill:#00db96 icc-color(Display, 0.38798523, 0.84698486, 0.60798645);fill-opacity:1;fill-rule:nonzero;stroke:none;stroke-width:0.352778" />
    <path
       id="path223"
       d="M 118.42162,167.39664 H 101.0579 v -17.36372 h 17.36372 z"
       style="fill:#90dcff icc-color(Display, 0.6309967, 0.85499573, 0.98399353);fill-opacity:1;fill-rule:nonzero;stroke:none;stroke-width:0.352778" />
    <path
       id="path224"
       d="m 120.78643,137.24137 c -7.03897,0 -12.74551,5.70618 -12.74551,12.74551 h 5.68678 c 0,-3.89855 3.16018,-7.05909 7.05873,-7.05909 3.89855,0 7.05873,3.16054 7.05873,7.05909 h 5.68678 c 0,-7.03933 -5.70654,-12.74551 -12.74551,-12.74551"
       style="fill:#201447 icc-color(Display, 0.11799622, 0.07798767, 0.26699829);fill-opacity:1;fill-rule:nonzero;stroke:none;stroke-width:0.352778" />
    <path
       id="path225"
       d="m 120.70788,150.0326 v 17.04128 h 5.1756 c 0.0169,-4.20969 3.43465,-7.61717 7.64822,-7.61717 4.21393,0 7.63129,3.40748 7.64858,7.61717 h 5.1756 V 150.0326 Z"
       style="fill:#e10186 icc-color(Display, 0.80799866, 0.17298889, 0.51799011);fill-opacity:1;fill-rule:nonzero;stroke:none;stroke-width:0.352778" />
    <path
       id="path226"
       d="m 138.23443,126.04029 c -0.54151,0.5842 -0.64841,1.4605 -0.52811,2.2479 0.0176,0.11677 0.0392,0.23989 -0.005,0.3496 -0.0625,0.15558 -0.23213,0.23284 -0.36019,0.34079 -0.4004,0.3376 -0.37183,0.95144 -0.30903,1.47143 -0.0476,-0.54998 0.44273,-0.98001 0.88512,-1.31021 -0.47661,0.43003 -0.60184,1.2005 -0.28646,1.75965 0.0162,-0.53446 0.27834,-1.05692 0.69709,-1.38994 -0.20179,0.54504 -0.0201,1.20861 0.43039,1.57515 -0.0187,-0.34678 -0.0374,-0.69321 -0.0557,-1.03964 -0.0208,-0.38523 -0.17604,-1.04704 0.18909,-0.92357 0.22048,0.0748 0.35207,0.17921 0.61559,0.248 -0.26458,-0.45579 -0.71755,-0.90029 -1.14723,-0.57326 -0.28786,-0.46461 -0.33196,-0.97896 -0.1023,-1.47461 0.22965,-0.49565 0.7186,-0.86184 1.25906,-0.94262 -0.34749,-0.16793 -0.73237,-0.25824 -1.11831,-0.26176"
       style="fill:#ff595c icc-color(Display, 0.98799133, 0.4039917, 0.38798523);fill-opacity:1;fill-rule:nonzero;stroke:none;stroke-width:0.352778" />
    <path
       id="path227"
       d="m 141.67486,127.03985 c -0.65193,0.45755 -0.94051,1.29187 -0.98848,2.08703 -0.007,0.11783 -0.012,0.24271 -0.0776,0.34079 -0.0935,0.13899 -0.27588,0.17885 -0.42369,0.25752 -0.46249,0.24589 -0.56339,0.85232 -0.61101,1.37372 0.0688,-0.54751 0.63853,-0.86536 1.14053,-1.09502 -0.55633,0.32032 -0.84067,1.0474 -0.64982,1.66017 0.12841,-0.51929 0.49424,-0.97472 0.97332,-1.2125 -0.31115,0.49036 -0.27341,1.17722 0.0903,1.63019 0.0547,-0.3429 0.10901,-0.68545 0.16369,-1.02835 0.0607,-0.38064 0.0914,-0.98389 0.42227,-0.78528 0.22754,0.13652 0.11536,0.037 0.35842,0.15981 -0.28822,-0.45685 -0.39158,-0.80469 -0.88053,-0.57538 -0.1838,-0.51435 -0.0921,-1.11831 0.23671,-1.55505 0.32844,-0.43638 0.88371,-0.69179 1.42875,-0.65722 -0.30409,-0.23707 -0.66145,-0.40605 -1.03822,-0.49072"
       style="fill:#ff595c icc-color(Display, 0.98799133, 0.4039917, 0.38798523);fill-opacity:1;fill-rule:nonzero;stroke:none;stroke-width:0.352778" />
    <path
       id="path228"
       d="m 136.94763,117.88505 0.47942,-0.49706 0.63818,-0.76835 c 0.30445,-0.36619 0.5775,-0.78423 0.73554,-1.23896 l 0.6089,-1.75472 c 0.067,-0.19297 0.1718,-0.33478 0.37394,-0.38241 l 0.74895,-0.17744 c 0.93168,-0.22014 1.78646,-0.57538 2.68922,-0.89923 1.12395,-0.40358 2.22921,-0.76906 3.32141,-1.24707 0.23177,-0.10125 0.4325,-0.20532 0.67168,-0.28187 0.18451,-0.0593 0.35772,-0.14993 0.52353,-0.25718 l 1.5688,-1.01494 0.91722,-0.71332 c 0.93557,-0.8008 1.778,-1.64959 2.64019,-2.52765 l 1.29258,-1.31657 c 0.15134,-0.15416 0.33267,-0.25541 0.53975,-0.29421 0.12382,-0.0233 0.26634,0.0667 0.24941,0.21519 l -0.0931,0.8128 -0.55139,1.65735 c -0.4244,0.9518 -0.9518,1.86161 -1.63125,2.65607 l -1.45732,1.48272 c -0.24448,0.24871 -0.5588,0.40675 -0.83573,0.62512 -0.61948,0.48931 -1.3201,0.82586 -2.04717,1.15852 0.0737,0.0843 0.19438,0.0695 0.29386,0.0406 l 1.27494,-0.36971 c 0.17321,-0.0501 0.32702,-0.0878 0.49248,-0.14569 l 1.03046,-0.35878 1.47179,-0.66075 1.18286,-0.62019 c 1.03012,-0.61101 1.99214,-1.29257 2.98274,-1.96109 0.0557,-0.0377 0.12418,-0.0374 0.16263,-0.008 0.12418,0.0949 -0.09,0.58208 -0.26635,0.90029 -0.29986,0.54151 -0.68827,1.00647 -1.07985,1.47778 -0.49883,0.60043 -1.60937,1.66794 -2.22426,2.06869 l -1.17158,0.76271 -0.79445,0.40146 c -0.54646,0.27587 -2.18899,0.73166 -2.15724,0.82374 0.0127,0.0374 0.0706,0.073 0.11606,0.0653 l 3.05859,-0.53799 c 0.17039,-0.03 0.27904,-0.0593 0.44132,-0.12841 l 0.44909,-0.0293 1.55716,-0.30762 c 0.52211,-0.10336 1.03611,-0.1397 1.56669,-0.18027 0.0688,-0.005 0.1404,0.0624 0.1531,0.10336 0.0533,0.1711 -0.29175,0.6156 -0.53022,0.79728 l -1.30987,1.00013 -1.32009,0.77858 c -0.91793,0.54151 -1.86937,0.93486 -2.89313,1.22943 -0.40005,0.11465 -0.7613,0.26776 -1.17158,0.33619 l -1.32186,0.22014 c -0.072,0.012 -0.12382,0.0251 -0.121,0.10477 0.001,0.0325 0.0367,0.073 0.0938,0.0843 l 0.66675,0.1277 c 1.24672,0.30692 2.48708,0.44944 3.76802,0.50836 l 1.05375,-0.008 c 0.18203,-10e-4 0.34642,0.079 0.53834,0.0582 0.0526,-0.006 0.12947,0.0579 0.13723,0.0981 0.0328,0.1711 -0.38876,0.40146 -0.67557,0.51329 -0.62054,0.24201 -1.22626,0.4893 -1.87678,0.64911 -0.89853,0.22049 -1.7653,0.4378 -2.68146,0.55139 l -2.3167,0.17145 c -0.15733,0.0116 -0.32032,-0.0868 -0.47095,0.0561 0.11112,0.1143 0.26423,0.0945 0.40675,0.11923 0.48013,0.0833 0.93451,0.22225 1.40229,0.37571 l 1.64324,0.53869 c 0.22401,0.0734 0.46637,0.21061 0.53798,0.43639 0.0935,0.29422 -1.15076,0.56903 -1.68945,0.59796 l -2.08456,0.11253 c -0.69533,0.0377 -1.36419,-0.0967 -2.04611,-0.20425 -0.13335,-0.0212 -0.2667,-0.0543 -0.35913,0.0748 0.29492,0.48577 0.26917,0.44943 0.71896,0.90875 -0.0663,0.0596 0.51823,0.51012 0.53763,0.54928 0.0247,0.0494 0.48296,-0.15805 0.49001,-0.0861 0.008,0.0886 -0.15734,0.0833 -0.17109,0.18133 -0.005,0.0377 0.0102,0.0861 0.0469,0.12276 l 0.33409,0.33302 2.08809,2.20169 c 0.23918,0.25224 0.33725,0.57221 0.42121,0.87313 l 1.7713,1.50918 1.99496,1.72579 0.19508,0.18485 1.37972,1.25695 c 0.32279,0.29386 0.6096,0.58596 0.88441,0.92393 0.066,0.0811 0.0907,0.2293 -0.002,0.29809 -0.28081,-0.0878 -0.55598,-0.21554 -0.82021,-0.38417 l -4.20158,-2.68746 c -0.0349,-0.0515 -0.09,-0.0152 -0.0702,0.0222 0.14852,0.24024 0.37148,0.37888 0.56339,0.56868 l 1.12078,1.10984 c 0.13793,0.13652 0.23918,0.2921 0.29315,0.50235 -0.20284,0.003 -0.38064,-0.0755 -0.54857,-0.18591 l -2.13818,-1.40688 -2.97357,-2.13007 -2.27929,-1.67781 c -0.17286,-0.12735 -0.38594,-0.13723 -0.58561,-0.20179 -0.51047,-0.16475 -0.93592,-0.1651 -1.41535,-0.26564 l -0.13652,-0.0374 c -0.0367,-0.0152 -0.0737,-0.0296 -0.11148,-0.0423 -0.387,-0.13264 -0.78916,-0.25964 -1.18286,-0.37006 -0.27623,-0.0773 -0.56445,-0.12383 -0.85055,-0.1651 -0.0286,-0.0109 -0.0575,-0.0222 -0.0868,-0.0318 -0.11747,-0.0385 -0.23495,-0.0649 -0.35136,-0.0815 -0.0247,-0.009 -0.0494,-0.0183 -0.0744,-0.0265 -0.17568,-0.0571 -0.35172,-0.0893 -0.52458,-0.0984 l -0.92745,-0.37324 c -0.18098,-0.073 -0.33937,-0.14464 -0.51682,-0.23459 l -1.40511,-0.71403 -0.99202,-0.61806 -1.35396,-1.05587 c -0.51682,-0.43321 -0.98883,-0.89782 -1.4298,-1.39629 0.44379,-0.48683 0.86889,-0.99131 1.28199,-1.49966 0.72143,-0.88794 1.40829,-1.80375 2.13325,-2.68852 0.16651,-0.2032 0.33937,-0.40075 0.50623,-0.60395 -0.15063,0.18344 -0.20814,0.25258 -0.21449,0.2607 -3.5e-4,7e-4 -7e-4,7e-4 0,0 0.009,-0.0109 0.16616,-0.20038 0.22896,-0.27023 0.0988,-0.10901 0.19861,-0.21766 0.29986,-0.32455"
       style="fill:#ff595c icc-color(Display, 0.98799133, 0.4039917, 0.38798523);fill-opacity:1;fill-rule:nonzero;stroke:none;stroke-width:0.352778" />
    <path
       id="path229"
       d="m 145.10966,123.58785 c -0.0914,-0.17851 -0.40181,-0.0441 -0.41875,0.15557 -0.0169,0.19968 0.13406,0.37007 0.27517,0.51224 0.48577,0.49001 0.9779,0.97366 1.47179,1.45591 2.75378,2.68852 5.55448,5.32906 8.40105,7.91916 0.33161,0.30198 0.68403,0.63888 0.75353,1.08197 0.006,0.0409 0.01,0.0847 -0.008,0.12206 -0.0547,0.11077 -0.22154,0.0642 -0.32808,0.001 -2.70051,-1.5935 -5.06271,-3.69464 -7.64152,-5.47899 -0.60466,-0.41804 -1.2252,-0.82233 -1.75013,-1.33703 -0.40993,-0.40146 -0.75459,-0.86395 -1.09749,-1.32433 -0.58385,-0.78352 -1.17828,-1.5882 -1.45874,-2.52412 -0.0582,-0.19403 -0.10124,-0.40746 -0.0268,-0.59584 0.0744,-0.18839 0.31115,-0.3235 0.48719,-0.22331"
       style="fill:#ff595c icc-color(Display, 0.98799133, 0.4039917, 0.38798523);fill-opacity:1;fill-rule:nonzero;stroke:none;stroke-width:0.352778" />
    <path
       id="path230"
       d="m 145.237,123.51341 c -0.1838,-0.26599 -0.59126,-0.15099 -0.67945,0.14605 -0.13159,0.44415 0.46955,0.86783 0.7306,1.12783 0.83538,0.83079 1.68134,1.651 2.52942,2.46839 1.71626,1.65488 3.45017,3.29071 5.20206,4.90749 0.42192,0.38982 0.8449,0.77823 1.26929,1.16558 0.37007,0.33796 0.85584,0.68015 1.07562,1.14476 0.0205,0.043 0.0656,0.12806 0.0649,0.18062 -0.001,0.097 -0.0176,0.0762 -0.0991,0.0547 -0.11253,-0.0296 -0.24659,-0.14711 -0.34431,-0.20673 -0.25117,-0.15381 -0.49953,-0.31185 -0.74577,-0.47342 -0.44803,-0.29351 -0.88794,-0.59867 -1.32292,-0.91088 -1.80692,-1.29786 -3.5246,-2.71568 -5.35834,-3.97721 -0.50835,-0.34996 -1.02305,-0.69533 -1.47637,-1.11584 -0.45156,-0.41875 -0.82197,-0.91122 -1.18851,-1.40335 -0.35384,-0.47519 -0.70908,-0.95285 -0.99977,-1.47038 -0.15664,-0.27869 -0.29492,-0.56867 -0.39723,-0.87171 -0.0519,-0.15381 -0.11148,-0.31926 -0.10795,-0.48331 0.003,-0.14358 0.11218,-0.40075 0.3048,-0.31608 0.17216,0.0758 0.32244,-0.17816 0.14887,-0.25471 -0.39969,-0.17533 -0.74436,0.17392 -0.74859,0.57079 -0.005,0.49707 0.2921,1.04705 0.5267,1.47038 0.26916,0.48507 0.59584,0.93522 0.92639,1.38007 0.33302,0.44873 0.66393,0.90382 1.04845,1.31057 0.76977,0.81456 1.76389,1.38677 2.6663,2.0387 0.93521,0.67522 1.84679,1.38218 2.76472,2.08104 0.91652,0.69779 1.83973,1.38783 2.79682,2.02918 0.24448,0.16404 0.49107,0.32455 0.74048,0.48154 0.22366,0.1404 0.45614,0.31573 0.70168,0.41663 0.14322,0.0586 0.32067,0.0713 0.42227,-0.0653 0.11712,-0.15663 0.0279,-0.39581 -0.0416,-0.55421 -0.20708,-0.47343 -0.65017,-0.80927 -1.02164,-1.14829 -0.46673,-0.4258 -0.93239,-0.85302 -1.39665,-1.28164 -0.9077,-0.83785 -1.81045,-1.68064 -2.70827,-2.52836 -1.0026,-0.9465 -1.99884,-1.899 -2.98944,-2.85821 -0.4953,-0.47942 -0.98954,-0.96026 -1.48132,-1.44356 -0.24623,-0.24201 -0.49142,-0.48472 -0.73554,-0.72849 -0.12382,-0.12418 -0.25999,-0.24377 -0.36759,-0.38241 -0.0416,-0.0536 -0.0871,-0.11183 -0.10125,-0.18062 -0.0212,-0.0596 -0.01,-0.1076 0.0346,-0.14394 0.0296,-0.03 0.0639,-0.0392 0.10301,-0.0268 0.10725,0.15522 0.36301,0.008 0.25471,-0.14887"
       style="fill:#ff595c icc-color(Display, 0.98799133, 0.4039917, 0.38798523);fill-opacity:1;fill-rule:nonzero;stroke:none;stroke-width:0.352778" />
    <path
       id="path231"
       d="m 137.28955,126.61168 c 0.60325,0.26741 1.21638,0.50835 1.84115,0.72143 0.0346,-0.12665 0.0695,-0.25294 0.10442,-0.37924 -0.33302,-0.1016 -0.66252,-0.21237 -0.98954,-0.33231 -0.2406,-0.0882 -0.33408,0.2861 -0.10442,0.37923 1.08091,0.43886 2.18828,0.80857 3.31858,1.09855 0.56479,0.14464 1.13453,0.27058 1.70779,0.37677 0.45438,0.084 0.98073,0.24201 1.44004,0.12629 0.24554,-0.0617 0.14147,-0.44097 -0.10442,-0.37923 -0.27199,0.0684 -0.56303,-0.0106 -0.83326,-0.0561 -0.26564,-0.0448 -0.53023,-0.0938 -0.7941,-0.14676 -0.52741,-0.10654 -1.05163,-0.2293 -1.57163,-0.36865 -1.04034,-0.27834 -2.06057,-0.62512 -3.05858,-1.03011 -0.0349,0.12629 -0.0695,0.25294 -0.10442,0.37923 0.32667,0.11995 0.65616,0.23072 0.98954,0.33232 0.24377,0.0744 0.34219,-0.29845 0.10442,-0.37924 -0.59231,-0.20178 -1.17475,-0.42827 -1.74696,-0.68191 -0.2293,-0.1016 -0.42968,0.23741 -0.19861,0.33972"
       style="fill:#ff595c icc-color(Display, 0.98799133, 0.4039917, 0.38798523);fill-opacity:1;fill-rule:nonzero;stroke:none;stroke-width:0.352778" />
    <path
       id="path232"
       d="m 127.78247,117.58999 c -0.0258,-0.4953 0.0198,-1.18145 0.39793,-1.82774 0.30727,-0.52458 0.66675,-0.73731 1.14477,-1.15464 0.84314,-0.73554 1.31445,-1.4598 1.79881,-2.20345 1.15394,-1.77306 1.28023,-3.28119 1.55505,-3.23498 0.17638,0.0296 0.24694,0.66993 0.20813,1.1938 -0.11253,1.51448 -1.17016,2.45781 -1.03046,2.5834 0.10795,0.0974 0.81209,-0.3997 1.4291,-1.09256 0.75883,-0.85231 1.04846,-1.62172 1.15218,-1.57832 0.0857,0.0356 -0.005,0.60642 -0.25683,1.17757 -0.60536,1.3776 -1.78541,1.94768 -1.69086,2.09938 0.0713,0.11359 0.8008,-0.10054 1.43616,-0.58067 0.66322,-0.50095 0.92216,-1.06363 1.03716,-1.00789 0.11677,0.0568 -0.012,0.70591 -0.26528,1.21849 -0.21414,0.43286 -0.85867,1.46015 -2.8635,2.01401"
       style="fill:#ff595c icc-color(Display, 0.98799133, 0.4039917, 0.38798523);fill-opacity:1;fill-rule:nonzero;stroke:none;stroke-width:0.352778" />
    <path
       id="path233"
       d="m 138.39242,118.85353 c -1.64571,-0.83044 -3.23321,-1.77659 -4.74627,-2.82963 -0.48507,-0.33796 -0.96944,-0.69039 -1.52047,-0.90452 -0.5514,-0.21449 -1.18922,-0.27729 -1.72615,-0.0303 -0.90099,0.41416 -1.28411,1.55787 -2.1791,1.98473 -0.12947,0.0617 -0.27482,0.11289 -0.35666,0.23071 -0.0998,0.14394 -0.0716,0.33832 -0.0303,0.50836 0.30374,1.24565 1.0862,2.32868 2.00378,3.22438 0.91792,0.89535 1.97661,1.63054 2.98555,2.42147 0.27482,0.21555 0.56374,0.46214 0.63889,0.80363 0.0705,-0.45085 0.37888,-0.82268 0.67521,-1.16946 0.70591,-0.82585 1.41147,-1.65135 2.11702,-2.47685 0.30092,-0.35243 0.60643,-0.70838 0.98566,-0.97473 0.38347,-0.26917 0.82797,-0.43568 1.2693,-0.59372"
       style="fill:#ff595c icc-color(Display, 0.98799133, 0.4039917, 0.38798523);fill-opacity:1;fill-rule:nonzero;stroke:none;stroke-width:0.352778" />
    <path
       id="path234"
       d="m 129.16536,119.05497 c -0.0148,-0.28857 -0.10301,-0.58385 -0.30198,-0.79375 -0.19896,-0.20955 -0.52246,-0.31432 -0.78987,-0.20461 -0.15416,0.0631 -0.27516,0.18803 -0.37218,0.3235 -0.43039,0.60078 -0.42086,1.48096 0.0226,2.07221 0.0984,0.13124 0.22754,0.25506 0.38982,0.28081 0.0219,-0.14993 0.0434,-0.29986 0.0653,-0.44979 0.0138,-0.0942 0.03,-0.19367 0.0924,-0.26529 0.0755,-0.0864 1.00013,-1.00718 0.89394,-0.96308 -0.26176,0.10936 -0.49636,0.55704 0,0 0.15381,0.13511 0.22613,0.25929 0.37994,0.39441 0.0713,0.0624 0.14429,0.12735 0.18309,0.21378 0.0476,0.10583 0.0367,0.2293 0.0109,0.3429 -0.0409,0.17956 -0.12559,0.36301 -0.2854,0.45473 -0.18309,0.10548 -0.41169,0.0649 -0.61806,0.0212 -0.17075,-0.036 -0.34149,-0.072 -0.51188,-0.10795"
       style="fill:#201447 icc-color(Display, 0.11799622, 0.07798767, 0.26699829);fill-opacity:1;fill-rule:nonzero;stroke:none;stroke-width:0.352778" />
    <path
       id="path235"
       d="m 121.05948,127.60881 c 0.11818,0 0.11853,-0.1838 0,-0.1838 -0.11818,0 -0.11853,0.1838 0,0.1838"
       style="fill:#0d0d0d icc-color(Display, 0.05099487, 0.05099487, 0.05099487);fill-opacity:1;fill-rule:nonzero;stroke:none;stroke-width:0.352778" />
    <path
       id="path236"
       d="m 76.047747,140.33498 c -3.288242,3.03989 -6.475236,6.18913 -9.554633,9.44069 -0.959555,1.01317 -1.911703,2.03905 -2.979914,2.93687 -1.140883,0.9585 -2.403122,1.76142 -3.672769,2.54106 -0.178153,0.10936 -0.382764,0.30515 -0.282928,0.48824 0.02999,0.055 0.0829,0.0931 0.137231,0.12453 0.618772,0.35596 1.381478,-0.0226 2.021416,-0.33937 2.058812,-1.01847 4.443942,-1.44462 6.218061,-2.90371 -1.26753,0.80221 -2.534708,1.60408 -3.801886,2.40629 -0.710494,0.44944 -1.442155,0.9197 -1.907116,1.62031 -0.04762,0.0716 -0.09349,0.16299 -0.05468,0.23989 0.0321,0.0635 0.109009,0.0885 0.179211,0.0995 0.374298,0.0572 0.739775,-0.12454 1.071386,-0.30763 4.218517,-2.3308 7.760406,-5.77003 12.053358,-7.96113"
       style="fill:#201447 icc-color(Display, 0.11799622, 0.07798767, 0.26699829);fill-opacity:1;fill-rule:nonzero;stroke:none;stroke-width:0.352778" />
    <path
       id="path237"
       d="m 66.459035,153.95919 c 0.01693,-0.013 0.06103,-0.0289 0.06421,-0.049 0.0032,-0.0197 3.52e-4,-0.0508 -0.06809,-0.10089 l 4.315531,-2.81764 c 0.218016,0.80257 0.679097,1.4912 1.369836,1.93287 0.05503,0.0353 0.91193,0.10654 0.950383,0.15734 -0.03916,0.009 -0.873125,-0.0282 -0.904169,-0.001 l -1.80975,0.0423 c -0.617008,-0.0215 -1.200856,0.0201 -1.787525,0.1912 l -2.333272,1.53353 c -0.03422,-0.0466 -0.06844,-0.0917 -0.100895,-0.13406 -0.06738,-0.0882 -0.159102,-0.20038 -0.265994,-0.31291 z"
       style="fill:#201447 icc-color(Display, 0.11799622, 0.07798767, 0.26699829);fill-opacity:1;fill-rule:nonzero;stroke:none;stroke-width:0.352778" />
    <path
       id="path238"
       d="m 81.1904,133.81787 c 0.04163,-0.19967 0.2413,-0.34643 0.484011,-0.28892 0.257175,0.0607 0.349603,0.30973 0.283986,0.51152 -0.06632,0.20497 -0.271286,0.30727 -0.468489,0.26459 -0.22225,-0.0483 -0.344311,-0.27129 -0.299508,-0.48719 m -10.419644,17.17357 c 0.218017,0.80257 0.678744,1.4912 1.369836,1.93323 0.05503,0.0349 0.113947,0.0487 0.152047,0.0995 0.02328,-0.006 0.04763,-0.008 0.07267,-0.005 1.057275,0.13088 2.123369,0.0893 3.15983,-0.16369 1.034344,-0.25258 2.009069,-0.68685 2.939697,-1.19803 0.273403,-0.15028 0.530578,-0.31256 0.775053,-0.50659 0.247297,-0.19649 0.490361,-0.39864 0.760236,-0.56374 0.0063,-0.004 0.01305,-0.007 0.0194,-0.0106 l 0.645936,-0.64735 0.799394,-0.84455 c 1.906058,-2.26024 2.10185,-5.23663 1.326797,-8.0264 -0.04304,-0.15557 -0.06421,-0.28504 -0.13335,-0.4318 -0.320322,-0.6805 -0.565502,-1.36913 -0.69603,-2.11737 -0.0949,-0.76658 -0.04092,-1.51236 0.09172,-2.24331 -0.03528,-0.0624 -0.02858,-0.14006 -0.0078,-0.21943 -0.196497,-0.0822 -0.394758,-0.0663 -0.4445,-0.1584 -0.02011,-0.0374 -0.02117,-0.10724 0.0074,-0.16192 l 0.686153,-1.32257 c 0.05468,-0.10512 0.0071,-0.22683 -0.02999,-0.36336 0.0067,-0.0522 0.128058,-0.0861 0.159103,-0.12735 l 0.573263,-0.76588 c -0.221897,-0.29104 -0.646994,-0.40181 -0.905227,-0.59619 -0.867481,-0.65088 -2.090914,-0.45227 -3.072342,0.0176 -0.422275,0.20179 -0.751064,0.49707 -0.985308,0.89677 -0.290689,0.44132 -0.443089,0.93768 -0.580319,1.41887 0.02646,0.20143 0.211666,0.29774 0.356305,0.31714 0.491772,0.0663 0.451556,-0.42968 0.804686,-0.24165 0.315736,0.16863 0.6096,0.34643 0.841375,0.61066 0.169333,0.19297 0.207786,0.39511 0.203906,0.64629 -0.01446,0.94086 0.05503,1.86302 -0.220839,2.77318 -0.118886,0.39194 -0.363714,0.64665 -0.715434,0.84032 l -1.050924,0.57926 c -0.199673,0.11007 -0.22225,0.26106 -0.324556,0.44909 -0.07338,0.13511 -0.343606,0.2413 -0.512586,0.27305 -1.123245,0.21025 -2.113139,0.72037 -2.955925,1.45556 -0.02434,-0.006 -0.04022,0.025 -0.05503,0.0381 l -0.131586,0.11889 c -0.04939,0.0444 -0.08467,0.0861 -0.136525,0.13299 -0.07373,0.067 -0.224014,0.14041 -0.27305,0.21696 -0.05997,0.0935 -0.12312,0.19227 -0.191911,0.266 -0.37712,0.40463 -0.693209,0.86007 -1.023056,1.30104 -0.204258,0.2727 -0.348897,0.57856 -0.529519,0.8823 -0.08678,0.14569 -0.180975,0.21554 -0.192264,0.38699 0.19438,-0.15487 0.303389,-0.4392 0.549275,-0.60183 0.603955,-0.39935 1.203677,-0.77858 1.818569,-1.1236 -0.0067,-0.0815 0.04198,-0.10266 0.09737,-0.14323 l 1.245305,-0.91264 c 0.496711,-0.31926 0.947208,-0.65263 1.485195,-0.91193 0.466725,-0.0261 0.945797,0.002 1.383947,0.15875 0.230364,0.0903 0.402166,0.2025 0.518583,0.37501 0.162983,0.24236 0.288219,0.47836 0.226836,0.81244 -0.2413,1.3208 -1.991783,3.01766 -3.039533,3.84951 -0.0441,0.0455 -0.07585,0.14041 -0.129117,0.19262 -0.520347,0.51082 -1.059744,0.92957 -1.670755,1.33456 z"
       style="fill:#201447 icc-color(Display, 0.11799622, 0.07798767, 0.26699829);fill-opacity:1;fill-rule:nonzero;stroke:none;stroke-width:0.352778" />
    <path
       id="path239"
       d="m 66.229271,153.82524 c -0.116769,-0.55316 -0.548569,-0.91299 -0.766586,-1.41534 -0.0025,-0.006 -0.0053,-0.0109 -0.0081,-0.0162 0.100894,-0.24554 0.258939,-0.44556 0.450144,-0.63465 l 1.462264,-1.44427 c 0.08572,-0.28081 0.243064,-0.50165 0.422628,-0.70838 0.115711,-7e-4 0.257881,-0.10513 0.206375,-0.21343 -0.0092,-0.0346 0.02328,-0.0956 0.0314,-0.13123 0.157692,-0.0829 0.245534,-0.25259 0.380647,-0.38594 l 1.488723,-1.46791 c 0.198613,-0.19579 0.423686,-0.34466 0.606072,-0.56374 0.08608,-0.10372 0.201436,-0.16757 0.295628,-0.26141 0.07973,-0.0794 0.135113,-0.15451 0.242711,-0.10477 -0.117828,0.25541 -0.241653,0.51011 -0.279753,0.80433 -0.05186,0.40076 0.177447,0.6985 0.551392,0.79693 1.078088,0.28363 1.896533,-0.41769 2.867024,-0.88442 -0.218722,0.34925 -0.54998,0.54293 -0.715786,0.89465 0.03986,0.0808 0.167923,0.0388 0.241653,-0.012 0.646289,-0.4445 1.908881,-1.72826 2.128308,-1.62595 0.164395,0.0765 -0.290689,0.57044 -0.396522,0.98531 -0.0085,0.0437 0.147108,0.0402 0.195439,-0.004 -0.0441,0.0455 -0.07549,0.1404 -0.128764,0.19261 -0.520347,0.51083 -1.060097,0.92957 -1.671108,1.33491 l -3.062464,2.0313 -4.31553,2.81728 c -0.0042,0.009 -0.05362,0.0159 -0.106539,0.0505 l -0.100189,0.066 c -0.0056,-0.0335 -0.01199,-0.067 -0.01905,-0.10019"
       style="fill:#201447 icc-color(Display, 0.11799622, 0.07798767, 0.26699829);fill-opacity:1;fill-rule:nonzero;stroke:none;stroke-width:0.352778" />
    <path
       id="path240"
       d="m 73.049594,143.08503 0.02328,0.0233 0.02364,-0.0233 -0.02364,-0.0233 z m 4.761441,-7.88352 c 0.49142,0.0663 0.451203,-0.42969 0.804334,-0.24166 0.315736,0.16863 0.609952,0.34643 0.841727,0.61066 0.168981,0.19262 0.207434,0.39476 0.203553,0.64629 -0.01411,0.94051 0.05539,1.86302 -0.220839,2.77319 -0.118886,0.39193 -0.363714,0.64664 -0.715433,0.84031 l -1.050925,0.57926 c -0.199672,0.11007 -0.221897,0.26071 -0.324555,0.44909 -0.07338,0.13511 -0.343606,0.2413 -0.512587,0.27305 -1.123244,0.21026 -2.112786,0.72037 -2.955924,1.45556 -0.09807,-0.0381 -0.08855,0.009 -0.05468,0.0381 l -0.131939,0.11889 -0.08608,-0.11924 c -0.09172,0.073 -0.0896,0.1658 -0.05045,0.25223 -0.07373,0.067 -0.224014,0.14041 -0.27305,0.21696 -0.05997,0.0935 -0.122766,0.19227 -0.191558,0.266 -0.09701,-0.006 -0.231775,-0.0811 -0.20567,-0.15135 0.09172,-0.14604 0.133703,-0.2547 0.312914,-0.23741 0.05292,-0.20109 0.202495,-0.34678 0.366184,-0.47167 0.0575,-0.19861 0.251883,-0.38206 0.297039,-0.35983 0.02399,0.0116 0.04798,0.0476 0.05997,0.0801 l 0.08396,-0.44238 0.269169,-0.0688 c 0.06738,-0.22648 0.266347,-0.363 0.449439,-0.46919 0.0032,-0.0663 0.01129,-0.15663 0.03457,-0.19509 0.02011,-0.0332 0.126295,-0.0197 0.165806,-0.0529 l 0.46743,-0.39264 c -0.01446,-0.0325 -0.04304,-0.0462 -0.08643,-0.0804 0.05186,-0.0452 0.0949,-0.12982 0.17145,-0.18344 0.313972,-0.22155 0.951441,-0.91934 0.979311,-1.22555 0.132292,-1.46262 0.40393,-2.89666 0.99695,-4.22522 0.02611,0.20143 0.211667,0.29739 0.356305,0.31715"
       style="fill:#201447 icc-color(Display, 0.11799622, 0.07798767, 0.26699829);fill-opacity:1;fill-rule:nonzero;stroke:none;stroke-width:0.352778" />
    <path
       id="path241"
       d="m 71.268075,145.04079 -0.150636,0.16933 c -0.442031,0.39264 -0.852311,0.79516 -1.255183,1.22344 -0.142523,0.15169 -0.197556,0.32737 -0.320323,0.49212 -0.143933,0.19332 -0.40005,0.36901 -0.583494,0.51506 -0.231775,0.18485 -0.210256,0.39193 -0.327025,0.59901 -0.166511,0.29422 -0.786694,0.6403 -0.603956,1.22203 0.157692,-0.0829 0.245534,-0.25259 0.380648,-0.38594 l 1.488722,-1.46791 c 0.198614,-0.19579 0.423686,-0.34467 0.606072,-0.56374 0.08608,-0.10372 0.201436,-0.16757 0.295628,-0.26141 0.07973,-0.0794 0.135114,-0.15452 0.242711,-0.10477 0.08396,-0.18239 0.277989,-0.35878 0.306211,-0.54751 0.01129,-0.17145 0.105481,-0.2413 0.192264,-0.387 0.180622,-0.30374 0.325614,-0.6096 0.529519,-0.8823 -0.02011,-0.12841 0.02681,-0.25506 0.09208,-0.37923 l 0.333375,-0.653 c -0.04374,0.0346 -0.125941,0.0663 -0.196144,0.13723 l -0.320675,0.32244 c -0.08502,0.085 -0.103011,0.17533 -0.191558,0.24554 -0.10407,0.0829 -0.234245,0.35136 -0.392995,0.54892 -0.03951,0.049 -0.03845,0.14746 -0.125236,0.15769"
       style="fill:#e10186 icc-color(Display, 0.80799866, 0.17298889, 0.51799011);fill-opacity:1;fill-rule:nonzero;stroke:none;stroke-width:0.352778" />
    <path
       id="path242"
       d="m 82.054106,136.26604 c 0.176036,-0.53834 0.534106,-0.98884 0.727075,-1.48519 -0.06138,0.0381 -0.219781,-0.0536 -0.235303,-0.11536 -0.01764,-0.0709 -0.01199,-0.16863 0.0575,-0.25647 l -0.09031,-0.34184 c -0.02858,-0.007 -0.06174,-0.0236 -0.07796,-0.0469 -0.02011,-0.0293 -0.0187,-0.0681 -0.01058,-0.10725 -0.03104,0.0416 -0.1524,0.0751 -0.159103,0.12736 0.03704,0.13687 0.08431,0.25823 0.02999,0.36336 l -0.686506,1.32256 c -0.02822,0.055 -0.02752,0.12488 -0.0071,0.16228 0.04974,0.0917 0.248003,0.0759 0.4445,0.15804 -0.02081,0.0797 -0.02787,0.15699 0.0078,0.21943"
       style="fill:#201447 icc-color(Display, 0.11799622, 0.07798767, 0.26699829);fill-opacity:1;fill-rule:nonzero;stroke:none;stroke-width:0.352778" />
    <path
       id="path243"
       d="m 72.954979,143.01324 -0.460022,0.6156 -0.333728,0.65334 c -0.06526,0.12383 -0.112183,0.25083 -0.09208,0.37888 0.329847,-0.44061 0.645936,-0.8964 1.023408,-1.30104 -0.09701,-0.005 -0.231775,-0.0808 -0.205669,-0.15134 0.09207,-0.14605 0.133703,-0.25435 0.313267,-0.23742 0.05256,-0.20073 0.202141,-0.34678 0.36583,-0.47131 0.0575,-0.19862 0.252236,-0.38241 0.297392,-0.36019 0.02364,0.0116 0.04762,0.0476 0.05997,0.0801 l 0.08396,-0.44238 0.268817,-0.0688 c 0.06738,-0.22649 0.2667,-0.36301 0.449439,-0.4692 0.0032,-0.066 0.01129,-0.15663 0.03457,-0.19473 0.02011,-0.0332 0.126647,-0.0198 0.165805,-0.0529 l 0.467431,-0.39299 c -0.01446,-0.0321 -0.04269,-0.0459 -0.08643,-0.0804 -0.865716,0.74788 -1.666522,1.57797 -2.351969,2.49484"
       style="fill:#201447 icc-color(Display, 0.11799622, 0.07798767, 0.26699829);fill-opacity:1;fill-rule:nonzero;stroke:none;stroke-width:0.352778" />
    <path
       id="path244"
       d="m 71.268075,145.04079 c 0.08678,-0.0102 0.08573,-0.10866 0.125236,-0.15769 0.15875,-0.19756 0.288925,-0.46602 0.392995,-0.54892 0.08855,-0.0702 0.106538,-0.16052 0.191558,-0.24554 l 0.320675,-0.32244 c 0.0702,-0.0709 0.1524,-0.10265 0.196144,-0.13723 l 0.460375,-0.61559 c -0.121355,7e-4 -0.164394,0.14922 -0.245533,0.21554 -0.150283,0.12312 -0.252589,0.23954 -0.377825,0.37677 -0.3937,0.43215 -0.903464,0.94368 -1.063625,1.4351"
       style="fill:#e10186 icc-color(Display, 0.80799866, 0.17298889, 0.51799011);fill-opacity:1;fill-rule:nonzero;stroke:none;stroke-width:0.352778" />
    <path
       id="path245"
       d="m 67.789466,149.6063 c 0.116064,-7.1e-4 0.258233,-0.10513 0.206375,-0.21343 -0.118533,0.0346 -0.148519,0.14676 -0.206375,0.21343"
       style="fill:#e10186 icc-color(Display, 0.80799866, 0.17298889, 0.51799011);fill-opacity:1;fill-rule:nonzero;stroke:none;stroke-width:0.352778" />
    <path
       id="path246"
       d="m 73.715498,144.20524 c -0.615244,0.34502 -1.214614,0.7239 -1.818922,1.12324 -0.245886,0.16263 -0.354895,0.44733 -0.548922,0.60184 -0.02858,0.18909 -0.222603,0.36548 -0.306564,0.54787 -0.117475,0.25506 -0.241653,0.50976 -0.279753,0.80433 -0.05151,0.4004 0.177447,0.6985 0.551392,0.79693 1.078089,0.28328 1.896533,-0.41805 2.867025,-0.88442 -0.218723,0.3489 -0.549981,0.54257 -0.715434,0.89429 0.03951,0.0808 0.16757,0.0392 0.2413,-0.0116 0.646289,-0.44485 1.908881,-1.72861 2.128308,-1.6263 0.164395,0.0769 -0.290688,0.57044 -0.396522,0.9853 -0.0085,0.0441 0.147109,0.0402 0.195439,-0.004 1.048103,-0.83149 2.798586,-2.52835 3.039886,-3.84915 0.06103,-0.33444 -0.06385,-0.57009 -0.227189,-0.81245 -0.61595,-0.34713 -1.5494,-0.055 -2.274005,0.22895 -0.864659,0.33937 -1.664758,0.76165 -2.456039,1.20509"
       style="fill:#201447 icc-color(Display, 0.11799622, 0.07798767, 0.26699829);fill-opacity:1;fill-rule:nonzero;stroke:none;stroke-width:0.352778" />
    <path
       id="path247"
       d="m 73.715498,144.20524 c 0.791281,-0.44344 1.59138,-0.86572 2.456039,-1.20509 0.724605,-0.28398 1.658055,-0.57608 2.274005,-0.22895 -0.116064,-0.17286 -0.287866,-0.28505 -0.51823,-0.375 -0.43815,-0.15664 -0.917575,-0.18521 -1.383947,-0.15875 -0.537987,0.25893 -0.988484,0.59231 -1.485548,0.91157 l -1.245305,0.91299 c -0.05503,0.0406 -0.103717,0.0617 -0.09701,0.14323"
       style="fill:#201447 icc-color(Display, 0.11799622, 0.07798767, 0.26699829);fill-opacity:1;fill-rule:nonzero;stroke:none;stroke-width:0.352778" />
    <path
       id="path248"
       d="m 81.329544,133.78168 c -0.0702,0.1337 -0.02858,0.30656 0.119592,0.38841 0.117827,0.0649 0.277283,0.0335 0.365125,-0.0896 0.0829,-0.11641 0.06985,-0.31467 -0.09807,-0.41451 -0.153458,-0.0917 -0.319263,-0.0127 -0.386644,0.11571 m 0.629003,0.25894 c -0.06667,0.20496 -0.271286,0.30727 -0.468489,0.26423 -0.222603,-0.048 -0.344664,-0.27093 -0.299508,-0.48683 0.04127,-0.19968 0.240947,-0.34643 0.484011,-0.28928 0.257175,0.061 0.349602,0.31009 0.283986,0.51188"
       style="fill:#fdfb76 icc-color(Display, 0.99198914, 0.98399353, 0.5369873);fill-opacity:1;fill-rule:nonzero;stroke:none;stroke-width:0.352778" />
    <path
       id="path249"
       d="m 73.557356,142.87731 c 0.05186,-0.0469 0.08714,-0.0885 0.136525,-0.133 l -0.08608,-0.11924 c -0.09172,0.073 -0.08961,0.16581 -0.05045,0.25224"
       style="fill:#e10186 icc-color(Display, 0.80799866, 0.17298889, 0.51799011);fill-opacity:1;fill-rule:nonzero;stroke:none;stroke-width:0.352778" />
    <path
       id="path250"
       d="m 73.825617,142.62536 c 0.01446,-0.013 0.03034,-0.0445 0.05468,-0.0381 -0.09807,-0.0381 -0.08819,0.009 -0.05468,0.0381"
       style="fill:#e10186 icc-color(Display, 0.80799866, 0.17298889, 0.51799011);fill-opacity:1;fill-rule:nonzero;stroke:none;stroke-width:0.352778" />
    <path
       id="path251"
       d="m 73.073036,143.0616 -0.02328,0.0233 0.02328,0.0236 0.02328,-0.0236 z"
       style="fill:#e10186 icc-color(Display, 0.80799866, 0.17298889, 0.51799011);fill-opacity:1;fill-rule:nonzero;stroke:none;stroke-width:0.352778" />
    <path
       id="path252"
       d="m 81.475197,133.83533 c -0.02787,0.0593 -0.0039,0.14323 0.03598,0.18415 0.06738,0.0695 0.164042,0.0406 0.19685,-0.007 0.05186,-0.0755 0.03951,-0.1778 -0.04551,-0.22649 -0.06985,-0.0399 -0.154164,-0.0219 -0.187325,0.049 m 0.339019,0.24518 c -0.08784,0.12312 -0.247297,0.15452 -0.365125,0.0892 -0.148166,-0.0815 -0.189794,-0.25435 -0.119591,-0.38805 0.06738,-0.12841 0.233186,-0.20744 0.386644,-0.11571 0.167922,0.0998 0.180975,0.29809 0.09807,0.41451"
       style="fill:#201447 icc-color(Display, 0.11799622, 0.07798767, 0.26699829);fill-opacity:1;fill-rule:nonzero;stroke:none;stroke-width:0.352778" />
    <path
       id="path253"
       d="m 81.662602,133.7864 c -0.06985,-0.0399 -0.154164,-0.0219 -0.187325,0.049 -0.02787,0.0593 -0.0039,0.14322 0.03598,0.18415 0.06738,0.0695 0.164042,0.0406 0.19685,-0.007 0.05186,-0.0751 0.03951,-0.17745 -0.04551,-0.22613"
       style="fill:#201447 icc-color(Display, 0.11799622, 0.07798767, 0.26699829);fill-opacity:1;fill-rule:nonzero;stroke:none;stroke-width:0.352778" />
    <path
       id="path254"
       d="m 73.801381,148.78404 c 0.323497,-0.19579 0.645231,-0.39441 0.959908,-0.60466 0.889,-0.59443 2.049639,-1.42416 2.348089,-2.50402 0.171097,-0.61912 0.338314,-1.16804 0.299156,-1.82386 -0.03669,-0.60925 -0.206375,-1.21179 -0.505531,-1.74484 -0.358069,-0.63676 -1.303161,-1.3656 -2.077155,-1.11936 -0.165453,0.0526 -0.312209,0.15134 -0.44697,0.2607 -0.535869,0.43533 -0.903816,1.03787 -1.350433,1.56422 -0.611011,0.72143 -1.373011,1.30351 -1.982611,2.026 -0.337961,0.40076 -0.930981,0.83326 -1.283758,1.24319 -0.358775,0.41698 -0.688623,0.65052 -1.082675,1.03717 -0.844903,0.82797 -1.669345,1.68874 -2.639836,2.37278 -0.278695,0.1965 -0.608542,0.47766 -0.511528,0.80433 0.06421,0.21555 0.306211,0.33761 0.530931,0.33514 0.224719,-0.003 0.43568,-0.10195 0.636763,-0.20214 1.381478,-0.68827 2.693459,-1.51518 3.910189,-2.46451 -0.502708,0.46849 -1.005417,0.93733 -1.508478,1.40582 -0.209197,0.19509 -0.419452,0.5461 -0.196497,0.72531 0.05574,0.0448 0.127,0.0635 0.196497,0.079 1.637947,0.36371 3.268486,-0.52176 4.703939,-1.3903"
       style="fill:#90dcff icc-color(Display, 0.6309967, 0.85499573, 0.98399353);fill-opacity:1;fill-rule:nonzero;stroke:none;stroke-width:0.352778" />
    <path
       id="path255"
       d="m 77.618208,151.45704 c 0.165453,2.24614 0.327731,4.54519 -0.13335,6.72818 0.760589,0.43815 1.489428,0.95885 2.175933,1.55398 -0.751769,-0.45649 -1.531055,-0.84455 -2.329391,-1.16028 0.6096,0.48436 1.114425,1.16593 1.450622,1.95721 -0.390172,-0.39194 -0.794103,-0.76306 -1.210028,-1.11231 -0.433211,-0.36371 -0.903464,-0.71332 -1.426633,-0.75847 -0.492831,-0.0423 -0.970492,0.1905 -1.427692,0.4191 0.149225,-0.48084 0.587022,-0.73519 1.002242,-0.79446 0.415572,-0.0593 0.836083,0.0275 1.253419,-0.006 0.08714,-0.007 0.179564,-0.0222 0.245886,-0.0921 0.255411,-0.26741 0.246945,-1.08867 0.251884,-1.45592 0.0078,-0.58914 -0.05997,-1.17757 -0.175684,-1.74801 -0.186266,-0.9204 -0.493536,-1.79634 -0.811388,-2.6603 -0.01482,-0.0399 -0.02963,-0.0825 -0.02505,-0.12594 0.0085,-0.0759 0.07161,-0.12065 0.127706,-0.15381 0.359128,-0.21308 0.700264,-0.47202 1.086908,-0.58314"
       style="fill:#201447 icc-color(Display, 0.11799622, 0.07798767, 0.26699829);fill-opacity:1;fill-rule:nonzero;stroke:none;stroke-width:0.352778" />
    <path
       id="path256"
       d="m 75.371551,151.76297 c 0.165453,2.24614 0.327731,4.54519 -0.13335,6.72818 0.760589,0.43815 1.489428,0.95885 2.175933,1.55398 -0.751769,-0.45649 -1.531055,-0.84455 -2.329391,-1.16028 0.6096,0.48436 1.114425,1.16593 1.450622,1.95721 -0.390172,-0.39194 -0.794103,-0.76306 -1.210028,-1.11231 -0.433211,-0.36371 -0.903464,-0.71332 -1.426633,-0.75847 -0.492831,-0.0423 -0.970492,0.1905 -1.427692,0.4191 0.149225,-0.48084 0.587022,-0.73519 1.002242,-0.79446 0.415572,-0.0593 0.836083,0.0275 1.253419,-0.006 0.08714,-0.007 0.179564,-0.0222 0.245886,-0.0921 0.255411,-0.26741 0.246945,-1.08867 0.251884,-1.45592 0.0078,-0.58914 -0.05997,-1.17757 -0.175684,-1.74801 -0.186266,-0.9204 -0.493536,-1.79634 -0.811388,-2.6603 -0.01482,-0.0399 -0.02963,-0.0825 -0.02505,-0.12594 0.0085,-0.0759 0.07161,-0.12065 0.127706,-0.15381 0.359128,-0.21308 0.700264,-0.47202 1.086908,-0.58314"
       style="fill:#201447 icc-color(Display, 0.11799622, 0.07798767, 0.26699829);fill-opacity:1;fill-rule:nonzero;stroke:none;stroke-width:0.352778" />
    <path
       id="path264"
       d="m 82.092285,132.55122 c 0.258586,0.19403 0.683331,0.30515 0.905581,0.59584 l -0.573264,0.76588 c -0.0085,0.0392 -0.0099,0.078 0.01058,0.10725 0.01623,0.0236 0.04939,0.0395 0.07796,0.0469 0.09454,0.01 0.180975,-0.0226 0.275167,-0.0684 l 0.795161,-0.38488 2.858911,-1.35149 c 0.128411,-0.0607 0.239888,-0.0875 0.363361,-0.0811 l 0.03351,0.002 c -0.01693,-0.0328 -0.0056,-0.0776 0.02364,-0.0871 0.02752,-0.008 0.05503,-0.008 0.07479,-0.007 0.08008,0.005 0.250472,-0.0416 0.299861,-0.13864 -0.236714,-0.0215 -0.562328,-0.0646 -0.832909,-0.0381 -1.354666,0.13052 -2.67088,0.36054 -4.017786,0.55986 -0.118533,0.0176 -0.215194,0.0176 -0.294569,0.0794"
       style="fill:#90dcff icc-color(Display, 0.6309967, 0.85499573, 0.98399353);fill-opacity:1;fill-rule:nonzero;stroke:none;stroke-width:0.352778" />
    <path
       id="path265"
       d="m 82.513158,134.06714 0.09031,0.34184 c -0.0695,0.0878 -0.07514,0.18556 -0.0575,0.25647 0.01552,0.0617 0.17392,0.15346 0.235303,0.11536 l 1.960033,-1.2192 1.889125,-1.20791 c 0.08079,-0.0519 0.414161,-0.20638 0.426509,-0.30092 -0.12312,-0.007 -0.486128,0.14887 -0.614539,0.20955 l -2.858911,1.35149 -0.795161,0.38488 c -0.09419,0.0459 -0.180623,0.078 -0.275167,0.0684"
       style="fill:#90dcff icc-color(Display, 0.6309967, 0.85499573, 0.98399353);fill-opacity:1;fill-rule:nonzero;stroke:none;stroke-width:0.352778" />
    <path
       id="path266"
       d="m 82.997769,133.14717 -0.216606,1.63336 -0.5969,0.18098 v -1.39771 z"
       style="fill:#201447 icc-color(Display, 0.11799622, 0.07798767, 0.26699829);fill-opacity:1;fill-rule:nonzero;stroke:none;stroke-width:0.352778" />
    <path
       id="path267"
       d="m 71.697887,176.06693 c 0.727604,-0.3638 1.103808,-0.97978 1.103808,-1.71979 0,-1.21129 -1.02526,-2.09186 -3.228743,-2.09186 h -4.27054 v 7.99124 h 4.497916 c 2.203483,0 3.377572,-0.81028 3.377572,-2.20348 0,-0.94671 -0.545703,-1.63298 -1.480013,-1.97611 z m -2.488737,-1.92649 c 0.603581,0 0.876432,0.2067 0.876432,0.59117 0,0.38861 -0.272851,0.59532 -0.876432,0.59532 h -1.256771 v -1.18649 z m 0.363802,4.22093 h -1.620573 v -1.25264 h 1.620573 c 0.595313,0 0.888835,0.21497 0.888835,0.62838 0,0.40928 -0.293522,0.62426 -0.888835,0.62426 z m 6.929809,-3.6835 v -0.67386 h -2.455664 v 6.24251 h 2.579688 v -2.77399 c 0,-0.99219 0.549837,-1.34772 1.322916,-1.34772 0.181901,0 0.343132,0.0124 0.570508,0.0455 v -2.28204 c -0.86403,0 -1.562695,0.26459 -2.017448,0.78962 z m 4.03903,-1.17822 c 0.946712,0 1.554427,-0.57051 1.554427,-1.35599 0,-0.74414 -0.607715,-1.26917 -1.554427,-1.26917 -0.946712,0 -1.550293,0.5705 -1.550293,1.31464 0,0.74001 0.603581,1.31052 1.550293,1.31052 z m -1.289844,6.74687 h 2.579688 v -6.24251 h -2.579688 z m 6.164998,0.11576 c 2.166276,0 3.228744,-0.98392 3.228744,-2.11253 0,-2.50114 -3.584278,-1.65778 -3.584278,-2.30684 0,-0.14883 0.181901,-0.29766 0.847494,-0.29766 0.525032,0 1.161686,0.10336 1.802474,0.45889 l 0.706933,-1.70326 c -0.661458,-0.33899 -1.632975,-0.51263 -2.546614,-0.51263 -2.10013,0 -3.19567,0.95912 -3.19567,2.13321 0,2.50114 3.596679,1.64537 3.596679,2.28616 0,0.1819 -0.169499,0.29352 -0.797884,0.29352 -0.744141,0 -1.5875,-0.20257 -2.182813,-0.5581 l -0.706933,1.70325 c 0.640788,0.36381 1.756999,0.61599 2.831868,0.61599 z m 8.173145,-6.47403 c -0.686264,0 -1.211296,0.17364 -1.5875,0.53744 v -2.64997 h -2.579688 v 8.4708 h 2.455664 v -0.51263 c 0.376204,0.42168 0.93431,0.62839 1.711524,0.62839 1.632975,0 3.013769,-1.2361 3.013769,-3.24528 0,-2.00505 -1.380794,-3.22875 -3.013769,-3.22875 z m -0.615984,4.46485 c -0.570508,0 -1.016992,-0.42168 -1.016992,-1.2361 0,-0.81029 0.446484,-1.21957 1.016992,-1.21957 0.570508,0 1.012859,0.40928 1.012859,1.21957 0,0.81442 -0.442351,1.2361 -1.012859,1.2361 z m 7.073474,-4.46485 c -0.967387,0 -2.075329,0.25219 -2.807068,0.70694 l 0.822689,1.70325 c 0.409277,-0.31006 1.037663,-0.49196 1.599902,-0.49196 0.727607,0 1.095537,0.25218 1.174087,0.73174 h -1.037661 c -1.943033,0 -2.852539,0.67386 -2.852539,1.88102 0,1.07487 0.785482,1.94304 2.315104,1.94304 0.880566,0 1.471746,-0.31006 1.769406,-0.93845 v 0.82269 h 2.39778 v -3.3569 c 0,-2.07532 -1.23196,-3.00137 -3.3817,-3.00137 z m -0.008,4.9196 c -0.388605,0 -0.615981,-0.21497 -0.615981,-0.50023 0,-0.34313 0.239778,-0.52503 0.785481,-0.52503 h 0.64079 v 0.43408 c -0.13643,0.40928 -0.45889,0.59118 -0.81029,0.59118 z m 8.84494,-4.9196 c -0.7276,0 -1.3932,0.23978 -1.88102,0.73174 v -0.61598 h -2.45567 v 6.24251 h 2.57969 v -2.93522 c 0,-0.92191 0.44648,-1.25264 0.97152,-1.25264 0.46715,0 0.76481,0.29353 0.76481,1.07074 v 3.11712 h 2.57969 v -3.55947 c 0,-1.9637 -1.12035,-2.7988 -2.55902,-2.7988 z m 10.43244,3.22875 c 0,-2.1084 -1.5875,-3.22875 -3.43545,-3.22875 -2.02158,0 -3.5388,1.33532 -3.5388,3.22875 0,1.86448 1.48414,3.24528 3.77858,3.24528 1.24437,0 2.1208,-0.34313 2.72851,-1.00459 l -1.34772,-1.36013 c -0.40928,0.31006 -0.73174,0.45889 -1.30225,0.45889 -0.63665,0 -1.07073,-0.25218 -1.25677,-0.73174 h 4.34082 c 0.008,-0.1819 0.0331,-0.42168 0.0331,-0.60771 z m -3.41478,-1.47175 c 0.52503,0 0.90537,0.31006 1.00459,0.83509 h -2.00918 c 0.10335,-0.52503 0.47129,-0.83509 1.00459,-0.83509 z m 18.1746,-3.38997 -1.47175,4.60127 -1.39319,-4.60127 h -2.47634 l -1.47588,4.54339 -1.38906,-4.54339 h -2.77399 l 2.55489,7.99124 h 2.88974 l 1.35597,-4.27054 1.28985,4.27054 h 2.88975 l 2.55488,-7.99124 z m 9.25628,4.86172 c 0,-2.1084 -1.5875,-3.22875 -3.43545,-3.22875 -2.02158,0 -3.5388,1.33532 -3.5388,3.22875 0,1.86448 1.48415,3.24528 3.77858,3.24528 1.24437,0 2.1208,-0.34313 2.72852,-1.00459 l -1.34772,-1.36013 c -0.40928,0.31006 -0.73174,0.45889 -1.30225,0.45889 -0.63666,0 -1.07074,-0.25218 -1.25677,-0.73174 h 4.34082 c 0.008,-0.1819 0.0331,-0.42168 0.0331,-0.60771 z m -3.41478,-1.47175 c 0.52503,0 0.90537,0.31006 1.00459,0.83509 h -2.00918 c 0.10335,-0.52503 0.47129,-0.83509 1.00459,-0.83509 z m 6.66833,4.71703 c 2.16627,0 3.22874,-0.98392 3.22874,-2.11253 0,-2.50114 -3.58428,-1.65778 -3.58428,-2.30684 0,-0.14883 0.18191,-0.29766 0.8475,-0.29766 0.52503,0 1.16169,0.10336 1.80247,0.45889 l 0.70694,-1.70326 c -0.66146,-0.33899 -1.63298,-0.51263 -2.54662,-0.51263 -2.10013,0 -3.19567,0.95912 -3.19567,2.13321 0,2.50114 3.59668,1.64537 3.59668,2.28616 0,0.1819 -0.1695,0.29352 -0.79788,0.29352 -0.74414,0 -1.5875,-0.20257 -2.18281,-0.5581 l -0.70694,1.70325 c 0.64079,0.36381 1.757,0.61599 2.83187,0.61599 z m 7.99124,-2.12494 c -0.17363,0.11576 -0.3762,0.1695 -0.58291,0.1695 -0.31006,0 -0.53743,-0.21497 -0.53743,-0.60358 v -1.5751 h 1.27744 v -1.88102 h -1.27744 v -1.74873 h -2.57969 v 1.74873 h -0.85576 v 1.88102 h 0.85576 v 1.59991 c 0,1.72392 1.00459,2.53421 2.72851,2.53421 0.60359,0 1.18649,-0.10336 1.5875,-0.33073 z m -76.786018,11.82564 h 2.695442 v -5.89938 h 2.339909 v -2.09187 h -7.37526 v 2.09187 h 2.339909 z m 8.320938,0.11575 c 2.124935,0 3.629752,-1.34772 3.629752,-3.24528 0,-1.89342 -1.504817,-3.22874 -3.629752,-3.22874 -2.112532,0 -3.629752,1.33532 -3.629752,3.22874 0,1.89756 1.51722,3.24528 3.629752,3.24528 z m 0,-2.00918 c -0.570508,0 -1.016992,-0.42168 -1.016992,-1.2361 0,-0.81028 0.446484,-1.21956 1.016992,-1.21956 0.570508,0 1.016992,0.40928 1.016992,1.21956 0,0.81442 -0.446484,1.2361 -1.016992,1.2361 z m 8.779826,-4.34909 -1.314649,3.3445 -1.289844,-3.3445 H 89.64201 l 2.625163,6.32107 c -0.14056,0.16123 -0.330729,0.25218 -0.640788,0.25218 -0.310059,0 -0.661458,-0.13643 -0.913639,-0.33073 l -0.855762,1.7694 c 0.42168,0.34313 1.211296,0.5581 1.893425,0.5581 1.32705,0 2.33164,-0.48782 3.013769,-2.20348 l 2.571419,-6.36654 z m 6.342764,6.24252 h 6.30039 v -2.08773 h -3.60495 v -5.90352 h -2.69544 z m 8.25479,-6.74688 c 0.94672,0 1.55443,-0.57051 1.55443,-1.35599 0,-0.74414 -0.60771,-1.26917 -1.55443,-1.26917 -0.94671,0 -1.55029,0.57051 -1.55029,1.31465 0,0.74 0.60358,1.31051 1.55029,1.31051 z m -1.28984,6.74688 H 110.78 v -6.24252 h -2.57969 z m 7.88789,-6.35827 c -0.68626,0 -1.2113,0.17363 -1.5875,0.53743 v -2.64996 h -2.57969 v 8.4708 h 2.45566 v -0.51263 c 0.37621,0.42168 0.93432,0.62838 1.71153,0.62838 1.63297,0 3.01377,-1.2361 3.01377,-3.24528 0,-2.00504 -1.3808,-3.22874 -3.01377,-3.22874 z m -0.61598,4.46484 c -0.57051,0 -1.017,-0.42168 -1.017,-1.2361 0,-0.81028 0.44649,-1.21956 1.017,-1.21956 0.5705,0 1.01286,0.40928 1.01286,1.21956 0,0.81442 -0.44236,1.2361 -1.01286,1.2361 z m 6.89467,-3.67523 v -0.67386 h -2.45567 v 6.24252 h 2.57969 v -2.77399 c 0,-0.99219 0.54983,-1.34773 1.32292,-1.34773 0.1819,0 0.34313,0.0124 0.5705,0.0455 v -2.28203 c -0.86403,0 -1.56269,0.26458 -2.01744,0.78961 z m 5.487,-0.78961 c -0.96738,0 -2.07533,0.25218 -2.80706,0.70693 l 0.82268,1.70326 c 0.40928,-0.31006 1.03767,-0.49196 1.59991,-0.49196 0.7276,0 1.09554,0.25218 1.17408,0.73174 h -1.03766 c -1.94303,0 -2.85254,0.67386 -2.85254,1.88102 0,1.07487 0.78549,1.94303 2.31511,1.94303 0.88056,0 1.47174,-0.31006 1.7694,-0.93844 v 0.82269 h 2.39779 v -3.3569 c 0,-2.07533 -1.23197,-3.00137 -3.38171,-3.00137 z m -0.008,4.9196 c -0.3886,0 -0.61598,-0.21498 -0.61598,-0.50023 0,-0.34313 0.23978,-0.52504 0.78548,-0.52504 h 0.64079 v 0.43409 c -0.13642,0.40927 -0.45888,0.59118 -0.81029,0.59118 z m 6.96287,-4.12999 v -0.67386 h -2.45566 v 6.24252 h 2.57969 v -2.77399 c 0,-0.99219 0.54983,-1.34773 1.32291,-1.34773 0.1819,0 0.34314,0.0124 0.57051,0.0455 v -2.28203 c -0.86403,0 -1.56269,0.26458 -2.01745,0.78961 z m 7.43107,-0.67386 -1.31464,3.3445 -1.28985,-3.3445 h -2.64583 l 2.62516,6.32107 c -0.14056,0.16123 -0.33073,0.25218 -0.64079,0.25218 -0.31006,0 -0.66145,-0.13643 -0.91364,-0.33073 l -0.85576,1.7694 c 0.42168,0.34313 1.2113,0.5581 1.89343,0.5581 1.32705,0 2.33164,-0.48782 3.01377,-2.20348 l 2.57142,-6.36654 z m 0,0"
       style="fill:#201447 icc-color(Display, 0.11799622, 0.07798767, 0.26699829);fill-opacity:1;fill-rule:nonzero;stroke:none;stroke-width:0.352778"
       aria-label="Brisbane West&#10;Toy Library" />
    <path
       id="path268"
       d="m 130.25431,116.84746 c -0.0702,0.1337 -0.0286,0.30656 0.11959,0.38841 0.11783,0.0649 0.27728,0.0335 0.36513,-0.0896 0.0829,-0.11641 0.0698,-0.31467 -0.0981,-0.41451 -0.15345,-0.0917 -0.31926,-0.0127 -0.38664,0.11571 m 0.629,0.25894 c -0.0667,0.20496 -0.27128,0.30727 -0.46849,0.26423 -0.2226,-0.048 -0.34466,-0.27093 -0.2995,-0.48683 0.0413,-0.19968 0.24094,-0.34643 0.48401,-0.28928 0.25717,0.061 0.3496,0.31009 0.28398,0.51188"
       style="fill:#fdfb76 icc-color(Display, 0.99198914, 0.98399353, 0.5369873);fill-opacity:1;fill-rule:nonzero;stroke:none;stroke-width:0.352778" />
    <path
       id="path269"
       d="m 130.39999,116.90112 c -0.0279,0.0593 -0.004,0.14323 0.036,0.18415 0.0674,0.0695 0.16404,0.0406 0.19685,-0.007 0.0519,-0.0755 0.0395,-0.1778 -0.0455,-0.22649 -0.0699,-0.0399 -0.15416,-0.0219 -0.18732,0.049 m 0.33902,0.24518 c -0.0878,0.12312 -0.2473,0.15452 -0.36513,0.0893 -0.14816,-0.0815 -0.18979,-0.25435 -0.11959,-0.38805 0.0674,-0.12841 0.23319,-0.20744 0.38665,-0.11607 0.16792,0.10019 0.18097,0.29845 0.0981,0.41487"
       style="fill:#201447 icc-color(Display, 0.11799622, 0.07798767, 0.26699829);fill-opacity:1;fill-rule:nonzero;stroke:none;stroke-width:0.352778" />
    <path
       id="path270"
       d="m 130.58737,116.85219 c -0.0699,-0.0399 -0.15416,-0.0219 -0.18732,0.049 -0.0279,0.0593 -0.004,0.14322 0.036,0.18415 0.0674,0.0695 0.16404,0.0406 0.19685,-0.007 0.0519,-0.0751 0.0395,-0.17745 -0.0455,-0.22613"
       style="fill:#201447 icc-color(Display, 0.11799622, 0.07798767, 0.26699829);fill-opacity:1;fill-rule:nonzero;stroke:none;stroke-width:0.352778" />
  </g>
</svg>
