<?xml version="1.0" encoding="UTF-8" standalone="no"?>
<!-- Created with Inkscape (http://www.inkscape.org/) -->

<svg
   width="143.16379mm"
   height="59.506557mm"
   viewBox="0 0 143.16379 59.506557"
   version="1.1"
   id="svg1"
   inkscape:version="1.4.4 (dcaf3e7, 2026-05-05)"
   sodipodi:docname="birds-flat.svg"
   xmlns:inkscape="http://www.inkscape.org/namespaces/inkscape"
   xmlns:sodipodi="http://sodipodi.sourceforge.net/DTD/sodipodi-0.dtd"
   xmlns="http://www.w3.org/2000/svg"
   xmlns:svg="http://www.w3.org/2000/svg">
  <sodipodi:namedview
     id="namedview1"
     pagecolor="#ffffff"
     bordercolor="#000000"
     borderopacity="0.25"
     inkscape:showpageshadow="2"
     inkscape:pageopacity="0.0"
     inkscape:pagecheckerboard="0"
     inkscape:deskcolor="#d1d1d1"
     inkscape:document-units="mm"
     inkscape:zoom="0.59379136"
     inkscape:cx="309.03111"
     inkscape:cy="194.51277"
     inkscape:window-width="1512"
     inkscape:window-height="916"
     inkscape:window-x="0"
     inkscape:window-y="38"
     inkscape:window-maximized="1"
     inkscape:current-layer="layer1" />
  <defs
     id="defs1" />
  <g
     inkscape:label="Layer 1"
     inkscape:groupmode="layer"
     id="layer1"
     transform="translate(-37.041647,-118.7979)">
    <path
       id="path271"
       d="m 92.900571,143.38275 c 0.107244,0 0.107597,-0.16686 0,-0.16686 -0.107244,0 -0.107597,0.16686 0,0.16686"
       style="fill:#0d0d0d;fill-opacity:1;fill-rule:nonzero;stroke:none;stroke-width:0.352778" />
    <path
       id="path272"
       d="m 73.997956,157.61838 c 0.930176,-0.46715 1.409733,-1.2485 1.409733,-2.19521 0,-1.53789 -1.310514,-2.6541 -4.10931,-2.6541 h -5.432226 v 10.16165 h 5.721614 c 2.80293,0 4.295345,-1.02939 4.295345,-2.80293 0,-1.20303 -0.694531,-2.07532 -1.885156,-2.50941 z m -3.166732,-2.45566 c 0.768946,0 1.120346,0.26045 1.120346,0.75654 0,0.49196 -0.3514,0.75241 -1.120346,0.75241 h -1.595768 v -1.50895 z m 0.467155,5.37435 h -2.062923 v -1.5999 h 2.062923 c 0.752409,0 1.132748,0.27698 1.132748,0.79788 0,0.52503 -0.380339,0.80202 -1.132748,0.80202 z m 8.812899,-4.69222 v -0.85576 h -3.121257 v 7.94163 h 3.278353 v -3.5264 c 0,-1.26504 0.698665,-1.71566 1.686719,-1.71566 0.23151,0 0.434082,0.0165 0.72347,0.0579 v -2.90215 c -1.103809,0 -1.988509,0.33487 -2.567285,1.00046 z m 5.136637,-1.49655 c 1.207161,0 1.976106,-0.72347 1.976106,-1.72806 0,-0.94258 -0.768945,-1.60817 -1.976106,-1.60817 -1.203028,0 -1.971973,0.72347 -1.971973,1.67018 0,0.94258 0.768945,1.66605 1.971973,1.66605 z m -1.63711,8.58242 h 3.278353 v -7.94163 h -3.278353 z m 7.838281,0.14469 c 2.757455,0 4.10931,-1.2485 4.10931,-2.68717 0,-3.17913 -4.559928,-2.10426 -4.559928,-2.93109 0,-0.19017 0.23151,-0.3762 1.07487,-0.3762 0.669726,0 1.480012,0.12816 2.294433,0.57877 l 0.901237,-2.16214 c -0.843359,-0.43821 -2.075325,-0.65319 -3.237012,-0.65319 -2.674772,0 -4.067968,1.21957 -4.067968,2.71612 0,3.17913 4.576464,2.08772 4.576464,2.90214 0,0.23151 -0.219107,0.37621 -1.016992,0.37621 -0.946712,0 -2.017447,-0.26045 -2.77399,-0.71107 l -0.901237,2.16214 c 0.81442,0.46716 2.236556,0.78548 3.600813,0.78548 z m 10.394194,-8.23102 c -0.86816,0 -1.53789,0.21498 -2.017444,0.68213 v -3.3693 h -3.278353 v 10.7735 h 3.121256 v -0.65319 c 0.479561,0.53743 1.190621,0.79788 2.174541,0.79788 2.07946,0 3.83646,-1.56683 3.83646,-4.12171 0,-2.55488 -1.757,-4.10931 -3.83646,-4.10931 z m -0.78134,5.67614 c -0.72761,0 -1.293982,-0.53743 -1.293982,-1.56683 0,-1.03353 0.566372,-1.55442 1.293982,-1.55442 0.72347,0 1.28984,0.52089 1.28984,1.55442 0,1.0294 -0.56637,1.56683 -1.28984,1.56683 z m 9.00203,-5.67614 c -1.23197,0 -2.6417,0.31833 -3.57187,0.90124 l 1.04593,2.16214 c 0.52089,-0.39274 1.32291,-0.62425 2.03398,-0.62425 0.92604,0 1.3932,0.31833 1.49241,0.93018 h -1.31878 c -2.46806,0 -3.62975,0.85576 -3.62975,2.39365 0,1.36426 1.00046,2.46806 2.94762,2.46806 1.11621,0 1.87276,-0.39274 2.24896,-1.19062 v 1.04593 h 3.05098 v -4.27054 c 0,-2.6417 -1.57097,-3.81579 -4.29948,-3.81579 z m -0.0124,6.25492 c -0.49609,0 -0.78548,-0.27285 -0.78548,-0.63666 0,-0.43408 0.30592,-0.66972 1.00046,-0.66972 h 0.81442 v 0.55397 c -0.17364,0.5209 -0.58291,0.75241 -1.0294,0.75241 z m 11.24996,-6.25492 c -0.93017,0 -1.7694,0.30593 -2.39365,0.93018 v -0.78548 h -3.12125 v 7.94163 h 3.27834 v -3.73311 c 0,-1.17408 0.56638,-1.59576 1.23611,-1.59576 0.59531,0 0.97151,0.3762 0.97151,1.36425 v 3.96462 h 3.28249 v -4.53099 c 0,-2.497 -1.42214,-3.55534 -3.25355,-3.55534 z m 13.27154,4.10931 c 0,-2.68717 -2.02158,-4.10931 -4.37389,-4.10931 -2.56729,0 -4.49792,1.69912 -4.49792,4.10931 0,2.36472 1.88516,4.12171 4.80385,4.12171 1.58336,0 2.69957,-0.43408 3.47265,-1.27744 l -1.71566,-1.72806 c -0.5209,0.39274 -0.93017,0.58291 -1.65364,0.58291 -0.81442,0 -1.36426,-0.32246 -1.5999,-0.93017 h 5.51904 c 0.0165,-0.23151 0.0455,-0.53744 0.0455,-0.76895 z m -4.34495,-1.87275 c 0.66973,0 1.14928,0.38861 1.28157,1.05833 h -2.55901 c 0.13229,-0.66972 0.59531,-1.05833 1.27744,-1.05833 z m 23.11797,-4.31188 -1.87276,5.84977 -1.77353,-5.84977 h -3.1502 l -1.87275,5.77535 -1.7694,-5.77535 h -3.53054 l 3.25355,10.16165 h 3.6711 l 1.72807,-5.42809 1.64124,5.42809 h 3.67523 l 3.24942,-10.16165 z m 11.77602,6.18463 c 0,-2.68717 -2.02158,-4.10931 -4.37389,-4.10931 -2.56729,0 -4.49792,1.69912 -4.49792,4.10931 0,2.36472 1.88516,4.12171 4.80384,4.12171 1.58337,0 2.69958,-0.43408 3.47266,-1.27744 l -1.71566,-1.72806 c -0.5209,0.39274 -0.93017,0.58291 -1.65364,0.58291 -0.81443,0 -1.36426,-0.32246 -1.59991,-0.93017 h 5.51904 c 0.0166,-0.23151 0.0455,-0.53744 0.0455,-0.76895 z m -4.34495,-1.87275 c 0.66972,0 1.14928,0.38861 1.28157,1.05833 h -2.55901 c 0.13229,-0.66972 0.59531,-1.05833 1.27744,-1.05833 z m 8.4801,5.99446 c 2.75745,0 4.10931,-1.2485 4.10931,-2.68717 0,-3.17913 -4.55993,-2.10426 -4.55993,-2.93109 0,-0.19017 0.23151,-0.3762 1.07487,-0.3762 0.66973,0 1.48001,0.12816 2.29444,0.57877 l 0.90123,-2.16214 c -0.84336,-0.43821 -2.07533,-0.65319 -3.23701,-0.65319 -2.67477,0 -4.06797,1.21957 -4.06797,2.71612 0,3.17913 4.57647,2.08772 4.57647,2.90214 0,0.23151 -0.21911,0.37621 -1.017,0.37621 -0.94671,0 -2.01744,-0.26045 -2.77399,-0.71107 l -0.90123,2.16214 c 0.81442,0.46716 2.23655,0.78548 3.60081,0.78548 z m 10.1627,-2.69957 c -0.21497,0.14469 -0.47956,0.21911 -0.74001,0.21911 -0.39274,0 -0.68212,-0.27699 -0.68212,-0.77308 v -2.00092 h 1.6247 v -2.39778 h -1.6247 v -2.22002 h -3.28249 v 2.22002 h -1.08727 v 2.39778 h 1.08727 v 2.02985 c 0,2.19522 1.27744,3.22461 3.47265,3.22461 0.76895,0 1.50895,-0.12815 2.01745,-0.42168 z M 68.07377,175.34443 h 3.427181 v -7.50755 h 2.976562 v -2.6541 h -9.380305 v 2.6541 h 2.976562 z m 10.5854,0.1447 c 2.699577,0 4.613672,-1.71153 4.613672,-4.12172 0,-2.41018 -1.914095,-4.10931 -4.613672,-4.10931 -2.687174,0 -4.617806,1.69913 -4.617806,4.10931 0,2.41019 1.930632,4.12172 4.617806,4.12172 z m 0,-2.55489 c -0.727604,0 -1.293978,-0.53743 -1.293978,-1.56683 0,-1.03352 0.566374,-1.55442 1.293978,-1.55442 0.72347,0 1.289844,0.5209 1.289844,1.55442 0,1.0294 -0.566374,1.56683 -1.289844,1.56683 z m 11.164176,-5.53144 -1.670182,4.254 -1.641244,-4.254 h -3.369303 l 3.340364,8.04498 c -0.173633,0.20258 -0.421679,0.31833 -0.81442,0.31833 -0.388607,0 -0.839225,-0.17363 -1.161686,-0.42168 l -1.087272,2.24896 c 0.537435,0.43822 1.53789,0.71107 2.410188,0.71107 1.682585,0 2.960026,-0.62425 3.832324,-2.7988 l 3.265951,-8.10286 z m 8.071858,7.94163 h 8.016046 v -2.65823 h -4.58886 v -7.50342 h -3.427186 z m 10.496516,-8.58242 c 1.20716,0 1.97611,-0.72347 1.97611,-1.72806 0,-0.94258 -0.76895,-1.60817 -1.97611,-1.60817 -1.20303,0 -1.97197,0.72347 -1.97197,1.67018 0,0.94258 0.76894,1.66605 1.97197,1.66605 z m -1.63711,8.58242 h 3.27836 v -7.94163 h -3.27836 z m 10.02833,-8.08633 c -0.86816,0 -1.53789,0.21498 -2.01745,0.68213 v -3.3693 h -3.27835 v 10.7735 h 3.12125 v -0.65319 c 0.47956,0.53744 1.19063,0.79789 2.17455,0.79789 2.07946,0 3.83646,-1.56683 3.83646,-4.12172 0,-2.55488 -1.757,-4.10931 -3.83646,-4.10931 z m -0.78135,5.67614 c -0.7276,0 -1.29398,-0.53743 -1.29398,-1.56683 0,-1.03352 0.56638,-1.55442 1.29398,-1.55442 0.72347,0 1.28985,0.5209 1.28985,1.55442 0,1.0294 -0.56638,1.56683 -1.28985,1.56683 z m 8.77053,-4.67568 v -0.85576 h -3.12126 v 7.94163 h 3.27835 v -3.5264 c 0,-1.26504 0.69867,-1.71566 1.68672,-1.71566 0.23151,0 0.43408,0.0165 0.72347,0.0579 v -2.90215 c -1.10381,0 -1.98851,0.33487 -2.56728,1.00046 z m 6.98252,-1.00046 c -1.23197,0 -2.6417,0.31833 -3.57188,0.90124 l 1.04593,2.16214 c 0.5209,-0.39274 1.32292,-0.62425 2.03399,-0.62425 0.92604,0 1.39319,0.31833 1.49241,0.93018 h -1.31878 c -2.46807,0 -3.62976,0.85576 -3.62976,2.39365 0,1.36426 1.00046,2.46807 2.94763,2.46807 1.11621,0 1.87275,-0.39274 2.24896,-1.19063 v 1.04593 h 3.05097 v -4.27054 c 0,-2.6417 -1.57096,-3.81579 -4.29947,-3.81579 z m -0.0124,6.25492 c -0.4961,0 -0.78548,-0.27285 -0.78548,-0.63665 0,-0.43409 0.30592,-0.66973 1.00045,-0.66973 h 0.81442 v 0.55397 c -0.17363,0.5209 -0.58291,0.75241 -1.02939,0.75241 z m 8.8563,-5.25446 v -0.85576 h -3.12125 v 7.94163 h 3.27835 v -3.5264 c 0,-1.26504 0.69866,-1.71566 1.68672,-1.71566 0.23151,0 0.43408,0.0165 0.72347,0.0579 v -2.90215 c -1.10381,0 -1.98851,0.33487 -2.56729,1.00046 z m 9.45059,-0.85576 -1.67018,4.254 -1.64124,-4.254 h -3.36931 l 3.34037,8.04498 c -0.17364,0.20258 -0.42169,0.31833 -0.81443,0.31833 -0.3886,0 -0.83922,-0.17363 -1.16168,-0.42168 l -1.08727,2.24896 c 0.53743,0.43822 1.53789,0.71107 2.41018,0.71107 1.68259,0 2.96003,-0.62425 3.83233,-2.7988 l 3.26595,-8.10286 z m 0,0"
       style="fill:#201447;fill-opacity:1;fill-rule:nonzero;stroke:none;stroke-width:0.352778"
       aria-label="Brisbane West&#10;Toy Library" />
    <path
       id="path273"
       d="m 44.186467,175.9737 c 0,-4.43406 3.594453,-8.02852 8.028516,-8.02852 4.434064,0 8.028517,3.59446 8.028517,8.02852"
       style="fill:#ff595c;fill-opacity:1;fill-rule:nonzero;stroke:none;stroke-width:0.352778" />
    <path
       id="path274"
       d="m 52.03631,151.40569 c -2.985205,2.75978 -5.878689,5.61904 -8.6741,8.57074 -0.871361,0.91969 -1.735666,1.85137 -2.705452,2.66629 -1.035756,0.8703 -2.181578,1.59914 -3.334456,2.30681 -0.161572,0.0995 -0.347486,0.27729 -0.256822,0.44345 0.02716,0.0497 0.07549,0.0847 0.124531,0.11288 0.561975,0.32315 1.254125,-0.0205 1.835502,-0.30797 1.868664,-0.92463 4.034367,-1.31163 5.644797,-2.63631 l -3.451577,2.18475 c -0.644878,0.40817 -1.309158,0.83503 -1.731433,1.47109 -0.04304,0.0649 -0.08467,0.14781 -0.04939,0.21766 0.02893,0.0575 0.09878,0.0804 0.162277,0.0903 0.340078,0.0519 0.672042,-0.11324 0.972961,-0.2794 3.829756,-2.11561 7.045325,-5.23804 10.942461,-7.22736"
       style="fill:#201447;fill-opacity:1;fill-rule:nonzero;stroke:none;stroke-width:0.352778" />
    <path
       id="path275"
       d="m 43.331175,163.77454 c 0.01552,-0.012 0.05539,-0.0261 0.05821,-0.0445 0.0028,-0.018 3.53e-4,-0.0462 -0.06174,-0.0917 l 3.91795,-2.55799 c 0.197908,0.72848 0.616303,1.35396 1.243542,1.75507 0.05009,0.0317 0.827969,0.0967 0.862894,0.14252 -0.03563,0.008 -0.792692,-0.0257 -0.820914,-10e-4 l -1.643239,0.0388 c -0.559858,-0.0198 -1.090083,0.018 -1.622425,0.17356 l -2.11843,1.39206 c -0.03104,-0.0423 -0.06209,-0.0833 -0.09172,-0.12171 -0.06103,-0.0801 -0.144286,-0.18203 -0.2413,-0.28398 z"
       style="fill:#201447;fill-opacity:1;fill-rule:nonzero;stroke:none;stroke-width:0.352778" />
    <path
       id="path276"
       d="m 56.705121,145.48912 c 0.03775,-0.18133 0.219075,-0.31432 0.439561,-0.26247 0.233539,0.0554 0.3175,0.28152 0.257881,0.46461 -0.06068,0.18592 -0.246592,0.27905 -0.42545,0.24024 -0.201789,-0.0441 -0.312561,-0.24624 -0.271992,-0.44238 m -9.459736,15.59137 c 0.197909,0.72848 0.616656,1.3536 1.243895,1.75471 0.04974,0.0321 0.103364,0.0445 0.137936,0.0903 0.02117,-0.005 0.04339,-0.007 0.06597,-0.004 0.959909,0.11889 1.927931,0.0808 2.868789,-0.14887 0.939094,-0.2293 1.823861,-0.62336 2.668764,-1.08761 0.248003,-0.13618 0.481894,-0.28364 0.703791,-0.46003 0.224367,-0.17815 0.445206,-0.36195 0.690034,-0.51152 0.006,-0.004 0.01164,-0.007 0.01764,-0.01 l 0.586316,-0.58773 0.726017,-0.76658 c 1.730022,-2.05211 1.907822,-4.75439 1.204383,-7.28698 -0.03916,-0.14111 -0.05856,-0.25859 -0.121003,-0.39194 -0.290688,-0.61771 -0.513644,-1.24318 -0.632177,-1.92228 -0.08608,-0.69603 -0.03704,-1.37301 0.08361,-2.03694 -0.03246,-0.0564 -0.02611,-0.127 -0.0074,-0.19932 -0.178153,-0.0744 -0.35807,-0.06 -0.403578,-0.14358 -0.01835,-0.0339 -0.01905,-0.097 0.0067,-0.14711 l 0.623358,-1.2005 c 0.04939,-0.0956 0.0063,-0.20602 -0.02752,-0.32985 0.006,-0.0476 0.116417,-0.078 0.144639,-0.11571 l 0.520347,-0.69532 c -0.201436,-0.26388 -0.587375,-0.36478 -0.821972,-0.54117 -0.7874,-0.5909 -1.898297,-0.41063 -2.789414,0.0159 -0.383116,0.18344 -0.681566,0.4512 -0.894291,0.81421 -0.263878,0.4004 -0.402167,0.85125 -0.526697,1.28834 0.02399,0.18274 0.192263,0.26988 0.323497,0.28787 0.446264,0.0603 0.409928,-0.39017 0.73025,-0.21943 0.286808,0.15311 0.553861,0.31433 0.764116,0.55422 0.153459,0.17498 0.188384,0.35877 0.184856,0.58667 -0.0127,0.85407 0.05045,1.69157 -0.200378,2.51777 -0.10795,0.35595 -0.3302,0.58702 -0.649464,0.76306 l -0.954264,0.52599 c -0.180974,0.0998 -0.201436,0.23672 -0.294569,0.40746 -0.06632,0.12277 -0.311855,0.21908 -0.465314,0.248 -1.01988,0.19086 -1.918052,0.6537 -2.68358,1.32116 -0.02222,-0.006 -0.03634,0.0229 -0.04974,0.0349 l -0.119592,0.10795 c -0.0448,0.0402 -0.07691,0.078 -0.123825,0.12065 -0.06703,0.0607 -0.203552,0.12735 -0.248002,0.19685 -0.05468,0.085 -0.111831,0.17463 -0.174273,0.24165 -0.342547,0.36725 -0.629355,0.7807 -0.928863,1.18075 -0.185209,0.24765 -0.316442,0.52529 -0.480836,0.80151 -0.07867,0.13194 -0.164042,0.19544 -0.174273,0.35102 0.176389,-0.14041 0.275167,-0.39864 0.498475,-0.54646 0.54857,-0.3623 1.092906,-0.70661 1.651353,-1.01988 -0.0064,-0.0737 0.0381,-0.0931 0.08819,-0.12982 l 1.1303,-0.82867 c 0.451203,-0.28999 0.860073,-0.59267 1.34867,-0.82797 0.423686,-0.0236 0.858661,0.002 1.256594,0.14428 0.208845,0.0819 0.364772,0.18345 0.470606,0.34043 0.148166,0.21978 0.261408,0.43392 0.206022,0.73731 -0.219075,1.19944 -1.808339,2.73967 -2.759781,3.49461 -0.03986,0.0416 -0.06844,0.12771 -0.116769,0.17533 -0.472722,0.46355 -0.962378,0.8435 -1.516944,1.21144 z"
       style="fill:#201447;fill-opacity:1;fill-rule:nonzero;stroke:none;stroke-width:0.352778" />
    <path
       id="path277"
       d="m 43.122577,163.65294 c -0.105833,-0.50236 -0.498122,-0.82903 -0.695678,-1.28482 -0.0025,-0.005 -0.0053,-0.01 -0.0078,-0.0148 0.09172,-0.22296 0.23495,-0.40464 0.40887,-0.57609 l 1.327502,-1.31127 c 0.07761,-0.25506 0.220486,-0.45544 0.38347,-0.64312 0.105127,-7e-4 0.234244,-0.0956 0.187325,-0.19403 -0.0081,-0.031 0.02152,-0.0864 0.02893,-0.11888 0.142875,-0.0751 0.222603,-0.22931 0.34537,-0.35031 l 1.351491,-1.33279 c 0.18027,-0.1778 0.384528,-0.31292 0.550334,-0.51189 0.07832,-0.0938 0.183091,-0.15169 0.268464,-0.23706 0.07232,-0.072 0.122414,-0.14041 0.220133,-0.0952 -0.106892,0.23177 -0.219428,0.4632 -0.254,0.73025 -0.04692,0.36371 0.161219,0.63429 0.500592,0.72355 0.978958,0.25752 1.721555,-0.37924 2.602794,-0.80293 -0.198614,0.3168 -0.499181,0.49283 -0.649464,0.8121 0.03598,0.0734 0.152047,0.0353 0.219075,-0.0106 0.587022,-0.40393 1.732844,-1.56915 1.932164,-1.47637 0.149578,0.0695 -0.263525,0.51788 -0.359833,0.89429 -0.0078,0.0402 0.13335,0.0367 0.177447,-0.004 -0.03986,0.0416 -0.06879,0.12771 -0.117122,0.17533 -0.47237,0.46355 -0.962025,0.8435 -1.516945,1.21144 l -2.780241,1.84432 -3.91795,2.558 c -0.0039,0.008 -0.04868,0.0141 -0.09666,0.0455 l -0.09102,0.06 c -0.0053,-0.0303 -0.01094,-0.0607 -0.01729,-0.091"
       style="fill:#201447;fill-opacity:1;fill-rule:nonzero;stroke:none;stroke-width:0.352778" />
    <path
       id="path278"
       d="m 49.314409,153.90237 0.02117,0.0212 0.02152,-0.0212 -0.02152,-0.0212 z m 4.322586,-7.15716 c 0.446264,0.0603 0.409928,-0.39017 0.73025,-0.21907 0.286808,0.15275 0.553861,0.31432 0.764116,0.55421 0.153459,0.17498 0.188384,0.35843 0.184856,0.58667 -0.0127,0.85408 0.05045,1.69122 -0.200378,2.51743 -0.10795,0.35595 -0.3302,0.58737 -0.649464,0.76305 l -0.954263,0.526 c -0.180975,0.0998 -0.201437,0.23671 -0.29457,0.40781 -0.06632,0.12241 -0.311855,0.21907 -0.465314,0.24765 -1.01988,0.19085 -1.918405,0.65405 -2.68358,1.3215 -0.0889,-0.0346 -0.08043,0.008 -0.04974,0.0346 l -0.119591,0.10795 -0.07832,-0.1083 c -0.08326,0.0663 -0.08114,0.15064 -0.04551,0.22895 -0.06703,0.061 -0.203553,0.12771 -0.248003,0.19685 -0.05468,0.085 -0.111831,0.17463 -0.174272,0.24166 -0.08784,-0.005 -0.210256,-0.0737 -0.18662,-0.13759 0.08361,-0.13229 0.121708,-0.23107 0.284339,-0.21554 0.04798,-0.18239 0.183797,-0.31468 0.332317,-0.42792 0.05221,-0.18027 0.228952,-0.34714 0.269875,-0.32703 0.02152,0.0106 0.04339,0.0434 0.05433,0.073 l 0.0762,-0.40182 0.244123,-0.0624 c 0.06138,-0.20567 0.242005,-0.32949 0.408163,-0.4258 0.0028,-0.0603 0.01023,-0.14217 0.0314,-0.1771 0.01834,-0.03 0.115005,-0.018 0.150636,-0.048 l 0.424391,-0.35666 c -0.0134,-0.0293 -0.03916,-0.0416 -0.07867,-0.073 0.04727,-0.0409 0.08643,-0.11782 0.155575,-0.16651 0.285044,-0.20108 0.863953,-0.83467 0.889353,-1.11266 0.120297,-1.3275 0.366536,-2.6296 0.904875,-3.83575 0.02399,0.18274 0.192264,0.27023 0.323497,0.28786"
       style="fill:#201447;fill-opacity:1;fill-rule:nonzero;stroke:none;stroke-width:0.352778" />
    <path
       id="path279"
       d="m 47.697064,155.6779 -0.136878,0.15381 c -0.401108,0.35666 -0.773641,0.72178 -1.139472,1.1109 -0.129469,0.13758 -0.179211,0.29704 -0.290689,0.44661 -0.130528,0.17534 -0.363361,0.33479 -0.529872,0.46779 -0.210256,0.16757 -0.190853,0.3556 -0.297039,0.54328 -0.150636,0.2674 -0.714022,0.58137 -0.547864,1.10983 0.142875,-0.0755 0.222603,-0.22965 0.34537,-0.35066 l 1.351491,-1.33244 c 0.18027,-0.1778 0.384528,-0.31326 0.550334,-0.51188 0.07796,-0.0942 0.182738,-0.15205 0.268463,-0.23742 0.07232,-0.072 0.122414,-0.14005 0.220134,-0.0949 0.0762,-0.1658 0.252589,-0.32596 0.277989,-0.49741 0.01023,-0.15558 0.09596,-0.21872 0.174625,-0.35102 0.164041,-0.27587 0.295627,-0.5535 0.480836,-0.80115 -0.01835,-0.11642 0.02434,-0.23143 0.08361,-0.34431 l 0.302683,-0.59267 c -0.03986,0.0314 -0.1143,0.0603 -0.178152,0.12453 l -0.291395,0.29245 c -0.07691,0.0776 -0.09349,0.15946 -0.173566,0.22296 -0.09455,0.0755 -0.212725,0.31926 -0.357012,0.49847 -0.03563,0.0448 -0.03492,0.13371 -0.113594,0.14323"
       style="fill:#e10186;fill-opacity:1;fill-rule:nonzero;stroke:none;stroke-width:0.352778" />
    <path
       id="path280"
       d="m 57.489267,147.71169 c 0.159808,-0.48895 0.484717,-0.89782 0.660047,-1.34832 -0.05539,0.0346 -0.199672,-0.0487 -0.21343,-0.10477 -0.01623,-0.0642 -0.01094,-0.15311 0.05221,-0.23283 l -0.0822,-0.31045 c -0.02611,-0.007 -0.05609,-0.0212 -0.07056,-0.0423 -0.0187,-0.0268 -0.01729,-0.0617 -0.0099,-0.0974 -0.02822,0.0378 -0.138289,0.0681 -0.144286,0.11571 0.03351,0.12383 0.07655,0.23425 0.02716,0.3295 l -0.623006,1.20085 c -0.02611,0.0497 -0.02505,0.11324 -0.0067,0.14711 0.04516,0.0836 0.225072,0.0691 0.403577,0.14358 -0.01905,0.0723 -0.02505,0.14288 0.0071,0.19932"
       style="fill:#201447;fill-opacity:1;fill-rule:nonzero;stroke:none;stroke-width:0.352778" />
    <path
       id="path281"
       d="m 49.228526,153.83718 -0.417689,0.55915 -0.303036,0.59267 c -0.05891,0.11254 -0.1016,0.22789 -0.08326,0.34431 0.299156,-0.40005 0.586317,-0.81386 0.928864,-1.1811 -0.08819,-0.005 -0.210255,-0.0737 -0.186619,-0.13758 0.08326,-0.13229 0.121355,-0.23107 0.284339,-0.21555 0.04798,-0.18239 0.183444,-0.31468 0.331964,-0.42792 0.05221,-0.18027 0.228952,-0.34713 0.269875,-0.32702 0.02152,0.0106 0.04374,0.0434 0.05468,0.0727 l 0.0762,-0.40146 0.244122,-0.0624 c 0.06103,-0.20567 0.242006,-0.3295 0.408164,-0.42581 0.0028,-0.0603 0.0099,-0.14252 0.0314,-0.17709 0.01835,-0.03 0.114653,-0.018 0.150284,-0.048 l 0.424391,-0.35666 c -0.01305,-0.0293 -0.0388,-0.042 -0.07832,-0.073 -0.785989,0.67874 -1.513064,1.43227 -2.135364,2.26483"
       style="fill:#201447;fill-opacity:1;fill-rule:nonzero;stroke:none;stroke-width:0.352778" />
    <path
       id="path282"
       d="m 47.697064,155.6779 c 0.07867,-0.01 0.07796,-0.0984 0.113594,-0.14323 0.144287,-0.17921 0.262467,-0.42298 0.357012,-0.49847 0.08008,-0.0635 0.09666,-0.14535 0.173566,-0.22296 l 0.291395,-0.29245 c 0.06385,-0.0642 0.138289,-0.0931 0.178152,-0.12453 l 0.417689,-0.55915 c -0.110066,7e-4 -0.149225,0.13582 -0.222603,0.19614 -0.136525,0.11148 -0.229305,0.21731 -0.343252,0.34184 -0.357364,0.39229 -0.820209,0.8569 -0.965553,1.30281"
       style="fill:#e10186;fill-opacity:1;fill-rule:nonzero;stroke:none;stroke-width:0.352778" />
    <path
       id="path283"
       d="m 44.538998,159.82272 c 0.105128,-7.1e-4 0.234244,-0.0952 0.187325,-0.19367 -0.107597,0.0314 -0.134761,0.13299 -0.187325,0.19367"
       style="fill:#e10186;fill-opacity:1;fill-rule:nonzero;stroke:none;stroke-width:0.352778" />
    <path
       id="path284"
       d="m 49.918982,154.91933 c -0.558447,0.31327 -1.102783,0.65722 -1.651353,1.01988 -0.222955,0.14746 -0.322086,0.40569 -0.498475,0.54645 -0.02575,0.17145 -0.201789,0.33161 -0.277989,0.49707 -0.106891,0.23177 -0.219427,0.46284 -0.254,0.73025 -0.04692,0.36371 0.160867,0.63429 0.500592,0.72354 0.978606,0.25718 1.721556,-0.37958 2.602442,-0.80292 -0.198261,0.3168 -0.498828,0.49248 -0.649464,0.8121 0.03634,0.073 0.1524,0.0353 0.219428,-0.0109 0.586669,-0.40358 1.732844,-1.56916 1.932163,-1.47602 0.149225,0.0695 -0.263877,0.51752 -0.359833,0.89429 -0.0081,0.0399 0.13335,0.0363 0.177447,-0.004 0.951089,-0.75494 2.540353,-2.29552 2.759428,-3.49461 0.05539,-0.30339 -0.05786,-0.51753 -0.206022,-0.73766 -0.559506,-0.31468 -1.406525,-0.0497 -2.064809,0.20814 -0.78493,0.30797 -1.511299,0.69109 -2.229555,1.09396"
       style="fill:#201447;fill-opacity:1;fill-rule:nonzero;stroke:none;stroke-width:0.352778" />
    <path
       id="path285"
       d="m 49.918982,154.91933 c 0.718256,-0.40287 1.444625,-0.78599 2.229555,-1.09396 0.658284,-0.25788 1.505303,-0.52282 2.064809,-0.20814 -0.105481,-0.15664 -0.261409,-0.25859 -0.470606,-0.34043 -0.397933,-0.14182 -0.832908,-0.16793 -1.256594,-0.14394 -0.488245,0.23531 -0.897114,0.53764 -1.348317,0.82762 l -1.130653,0.82868 c -0.05009,0.0367 -0.09419,0.0561 -0.08819,0.13017"
       style="fill:#201447;fill-opacity:1;fill-rule:nonzero;stroke:none;stroke-width:0.352778" />
    <path
       id="path286"
       d="m 56.831433,145.45624 c -0.06385,0.12136 -0.02575,0.27834 0.108656,0.35242 0.106891,0.0589 0.251883,0.0307 0.331258,-0.0811 0.07549,-0.10548 0.0635,-0.2854 -0.0889,-0.37642 -0.139347,-0.0832 -0.289631,-0.0113 -0.351014,0.10513 m 0.571147,0.23495 c -0.06068,0.18591 -0.246591,0.27905 -0.42545,0.24024 -0.201789,-0.0437 -0.312914,-0.24624 -0.271991,-0.44238 0.03775,-0.18133 0.219075,-0.31433 0.439208,-0.26247 0.233539,0.0554 0.3175,0.28152 0.258233,0.46461"
       style="fill:#fdfb76;fill-opacity:1;fill-rule:nonzero;stroke:none;stroke-width:0.352778" />
    <path
       id="path287"
       d="m 49.775393,153.71381 c 0.04692,-0.0427 0.07902,-0.0804 0.123825,-0.12065 l -0.07796,-0.1083 c -0.08361,0.0663 -0.08149,0.15028 -0.04586,0.22895"
       style="fill:#e10186;fill-opacity:1;fill-rule:nonzero;stroke:none;stroke-width:0.352778" />
    <path
       id="path288"
       d="m 50.018942,153.48504 c 0.01341,-0.012 0.02752,-0.0406 0.04974,-0.0346 -0.0889,-0.0346 -0.08043,0.008 -0.04974,0.0346"
       style="fill:#e10186;fill-opacity:1;fill-rule:nonzero;stroke:none;stroke-width:0.352778" />
    <path
       id="path289"
       d="m 49.335735,153.88106 -0.02117,0.0212 0.02117,0.0215 0.02117,-0.0215 z"
       style="fill:#e10186;fill-opacity:1;fill-rule:nonzero;stroke:none;stroke-width:0.352778" />
    <path
       id="path290"
       d="m 56.963699,145.50496 c -0.0254,0.054 -0.0035,0.13017 0.03246,0.16722 0.06138,0.0631 0.149225,0.037 0.178858,-0.006 0.04727,-0.0684 0.03598,-0.16122 -0.04127,-0.20532 -0.0635,-0.0363 -0.1397,-0.0198 -0.170039,0.0445 m 0.307975,0.2226 c -0.07973,0.11183 -0.224719,0.14006 -0.331611,0.0811 -0.134408,-0.0741 -0.172508,-0.23107 -0.108656,-0.35242 0.06138,-0.11642 0.211667,-0.18839 0.351014,-0.10513 0.1524,0.0907 0.164395,0.27093 0.08925,0.37641"
       style="fill:#201447;fill-opacity:1;fill-rule:nonzero;stroke:none;stroke-width:0.352778" />
    <path
       id="path291"
       d="m 57.133799,145.46054 c -0.0635,-0.0363 -0.140053,-0.0198 -0.170039,0.0444 -0.0254,0.054 -0.0035,0.13017 0.03246,0.16722 0.06138,0.0631 0.149225,0.0367 0.178858,-0.006 0.04692,-0.0684 0.03563,-0.16122 -0.04127,-0.20532"
       style="fill:#201447;fill-opacity:1;fill-rule:nonzero;stroke:none;stroke-width:0.352778" />
    <path
       id="path292"
       d="m 49.996929,159.07628 c 0.293864,-0.1778 0.585964,-0.35807 0.871361,-0.54892 0.807156,-0.5394 1.860903,-1.29293 2.131836,-2.2733 0.155222,-0.56233 0.307269,-1.06045 0.271639,-1.65559 -0.03351,-0.55351 -0.187325,-1.10031 -0.459317,-1.58432 -0.324555,-0.57785 -1.182864,-1.23966 -1.885597,-1.01636 -0.14993,0.0476 -0.28328,0.13759 -0.405694,0.23707 -0.486481,0.39476 -0.820561,0.94192 -1.225903,1.41993 -0.554919,0.65476 -1.246717,1.18322 -1.800225,1.83938 -0.306564,0.36372 -0.844903,0.75636 -1.165225,1.12854 -0.325966,0.37853 -0.625122,0.59055 -0.983191,0.94156 -0.766587,0.75177 -1.515181,1.53282 -2.39642,2.15407 -0.252941,0.1785 -0.55245,0.43391 -0.464255,0.73025 0.05821,0.19579 0.277989,0.30656 0.481894,0.30409 0.204258,-0.002 0.395464,-0.0924 0.578203,-0.18344 1.254125,-0.62477 2.445103,-1.37549 3.550002,-2.23732 -0.456494,0.42545 -0.912988,0.8509 -1.369483,1.27635 -0.190147,0.17709 -0.380647,0.49565 -0.178505,0.65863 0.05045,0.0402 0.115358,0.0575 0.178505,0.0716 1.486958,0.3302 2.967214,-0.47378 4.270375,-1.26224"
       style="fill:#90dcff;fill-opacity:1;fill-rule:nonzero;stroke:none;stroke-width:0.352778" />
    <path
       id="path293"
       d="m 53.462097,161.50297 c 0.150283,2.03906 0.297744,4.12644 -0.121003,6.10799 0.690386,0.39794 1.352197,0.87066 1.975556,1.41112 -0.682625,-0.41452 -1.390297,-0.76694 -2.114903,-1.0534 0.553156,0.43991 1.011767,1.05833 1.316919,1.77694 -0.354188,-0.35595 -0.720725,-0.69285 -1.09855,-1.01 -0.393347,-0.3302 -0.820208,-0.6477 -1.295047,-0.68862 -0.447322,-0.0385 -0.880886,0.17286 -1.296458,0.38029 0.135467,-0.43603 0.533047,-0.6671 0.910167,-0.72108 0.377119,-0.054 0.759177,0.025 1.137708,-0.006 0.07902,-0.006 0.162983,-0.0205 0.223308,-0.0836 0.231775,-0.24306 0.224367,-0.98813 0.2286,-1.32186 0.0071,-0.53446 -0.05433,-1.06891 -0.159455,-1.58679 -0.168981,-0.83573 -0.448028,-1.63089 -0.7366,-2.41547 -0.01341,-0.036 -0.02681,-0.0748 -0.02258,-0.11395 0.0078,-0.0688 0.06491,-0.10971 0.116064,-0.1397 0.325614,-0.19367 0.635705,-0.42862 0.986366,-0.52952"
       style="fill:#201447;fill-opacity:1;fill-rule:nonzero;stroke:none;stroke-width:0.352778" />
    <path
       id="path294"
       d="m 51.422451,161.78071 c 0.150283,2.03906 0.297744,4.12644 -0.121003,6.10799 0.690386,0.39794 1.352197,0.87066 1.975556,1.41112 -0.682625,-0.41452 -1.390297,-0.76694 -2.114903,-1.0534 0.553156,0.43991 1.011767,1.05833 1.316919,1.77694 -0.354188,-0.35595 -0.720725,-0.69285 -1.09855,-1.01 -0.393347,-0.3302 -0.820208,-0.6477 -1.295047,-0.68862 -0.447322,-0.0385 -0.880886,0.17286 -1.296458,0.38029 0.135467,-0.43603 0.533047,-0.6671 0.910167,-0.72108 0.377119,-0.054 0.759177,0.025 1.137708,-0.006 0.07902,-0.006 0.162983,-0.0205 0.223308,-0.0836 0.231775,-0.24306 0.224367,-0.98813 0.2286,-1.32186 0.0071,-0.53446 -0.05433,-1.06891 -0.159455,-1.58679 -0.168981,-0.83573 -0.448028,-1.63089 -0.7366,-2.41547 -0.01341,-0.036 -0.02681,-0.0748 -0.02258,-0.11395 0.0078,-0.0688 0.06491,-0.10971 0.116064,-0.1397 0.325614,-0.19367 0.635705,-0.42862 0.986366,-0.52952"
       style="fill:#201447;fill-opacity:1;fill-rule:nonzero;stroke:none;stroke-width:0.352778" />
    <path
       id="path295"
       d="m 57.523901,144.33917 c 0.234597,0.17604 0.620536,0.27693 0.821972,0.54116 l -0.520347,0.69533 c -0.0074,0.0356 -0.0088,0.0705 0.0099,0.0974 0.01446,0.0212 0.04445,0.0356 0.07056,0.0423 0.08608,0.009 0.164395,-0.0205 0.249767,-0.0621 l 0.721783,-0.34961 2.595386,-1.2266 c 0.11677,-0.0554 0.218017,-0.0797 0.3302,-0.0737 l 0.03034,0.002 c -0.01517,-0.0296 -0.0049,-0.0706 0.02152,-0.079 0.02469,-0.008 0.05009,-0.008 0.06809,-0.007 0.07267,0.005 0.227189,-0.0377 0.271991,-0.12594 -0.214841,-0.0194 -0.510469,-0.0586 -0.756002,-0.0346 -1.230136,0.11853 -2.424995,0.32738 -3.647722,0.50835 -0.107598,0.0159 -0.195439,0.0159 -0.267406,0.072"
       style="fill:#90dcff;fill-opacity:1;fill-rule:nonzero;stroke:none;stroke-width:0.352778" />
    <path
       id="path296"
       d="m 57.906012,145.71539 0.0822,0.31009 c -0.0635,0.0801 -0.06844,0.16898 -0.05221,0.23319 0.01376,0.0561 0.157692,0.13899 0.213431,0.10442 l 1.779411,-1.10666 1.715205,-1.09644 c 0.07338,-0.0473 0.376061,-0.18767 0.38735,-0.2734 -0.112183,-0.006 -0.441678,0.13511 -0.558447,0.19015 l -2.595386,1.22696 -0.721783,0.3496 c -0.08537,0.0413 -0.164042,0.0709 -0.249767,0.0621"
       style="fill:#90dcff;fill-opacity:1;fill-rule:nonzero;stroke:none;stroke-width:0.352778" />
    <path
       id="path297"
       d="m 58.345961,144.88022 -0.196497,1.48308 -0.54222,0.16404 v -1.26894 z"
       style="fill:#201447;fill-opacity:1;fill-rule:nonzero;stroke:none;stroke-width:0.352778" />
    <path
       id="path298"
       d="m 68.36343,138.21632 4.014258,10.20586 10.653536,-4.19029 z"
       style="fill:#00db96;fill-opacity:1;fill-rule:nonzero;stroke:none;stroke-width:0.352778" />
    <path
       id="path299"
       d="m 74.888902,138.3441 c -0.491772,0.53058 -0.588433,1.32574 -0.479425,2.04082 0.01588,0.10583 0.03528,0.21802 -0.0042,0.3175 -0.05644,0.14111 -0.210961,0.21096 -0.327025,0.30903 -0.363361,0.30657 -0.337609,0.86396 -0.280459,1.33597 -0.04339,-0.49918 0.401814,-0.8897 0.803628,-1.18956 -0.432858,0.39052 -0.546453,1.09008 -0.259997,1.59773 0.01482,-0.48543 0.252589,-0.95956 0.63253,-1.26189 -0.182738,0.49459 -0.01834,1.09714 0.390878,1.42981 -0.01693,-0.31468 -0.03387,-0.629 -0.0508,-0.94368 -0.0187,-0.34996 -0.159808,-0.95074 0.172156,-0.8382 0.200025,0.0674 0.319264,0.16228 0.558447,0.22507 -0.240242,-0.41416 -0.651228,-0.81774 -1.0414,-0.5207 -0.261408,-0.42157 -0.301272,-0.88865 -0.09278,-1.33844 0.208139,-0.45014 0.652287,-0.78281 1.143,-0.85584 -0.315383,-0.15275 -0.664633,-0.2346 -1.014941,-0.23777"
       style="fill:#ff595c;fill-opacity:1;fill-rule:nonzero;stroke:none;stroke-width:0.352778" />
    <path
       id="path300"
       d="m 78.012334,139.25158 c -0.591961,0.41557 -0.853722,1.17263 -0.897467,1.89477 -0.0063,0.10689 -0.01094,0.22049 -0.07055,0.30939 -0.08467,0.12629 -0.250472,0.16227 -0.384528,0.23353 -0.419805,0.22367 -0.511528,0.774 -0.554919,1.24743 0.06279,-0.49707 0.579966,-0.78564 1.035755,-0.99413 -0.505178,0.29069 -0.763411,0.95073 -0.589844,1.50742 0.116416,-0.47167 0.44838,-0.88547 0.883708,-1.10102 -0.282928,0.4452 -0.248356,1.06856 0.08184,1.4799 0.04939,-0.31115 0.09913,-0.6223 0.14852,-0.93345 0.05503,-0.34572 0.0829,-0.89323 0.383117,-0.71332 0.206727,0.12418 0.105127,0.0339 0.325613,0.14535 -0.261761,-0.41451 -0.355247,-0.7306 -0.799394,-0.52211 -0.166864,-0.46708 -0.08361,-1.01565 0.214842,-1.41182 0.298097,-0.39617 0.802216,-0.6283 1.297164,-0.5969 -0.276225,-0.21519 -0.600781,-0.36865 -0.942623,-0.4452"
       style="fill:#ff595c;fill-opacity:1;fill-rule:nonzero;stroke:none;stroke-width:0.352778" />
    <path
       id="path301"
       d="m 73.720634,130.94031 0.435328,-0.4512 0.579261,-0.69744 c 0.276225,-0.33267 0.52458,-0.71226 0.667808,-1.12501 l 0.552803,-1.59315 c 0.06068,-0.17497 0.155928,-0.30374 0.339372,-0.34713 l 0.680156,-0.16087 c 0.845608,-0.20002 1.621719,-0.52246 2.441222,-0.81668 1.020586,-0.36618 2.023886,-0.69814 3.015544,-1.13206 0.210256,-0.0921 0.392289,-0.18627 0.6096,-0.25577 0.167569,-0.0536 0.324556,-0.13617 0.475192,-0.23353 l 1.424516,-0.92146 0.832556,-0.6477 c 0.849489,-0.72707 1.614311,-1.49754 2.397125,-2.29447 l 1.173338,-1.19556 c 0.137231,-0.1397 0.301978,-0.23142 0.490009,-0.26705 0.112536,-0.0212 0.242005,0.0607 0.226483,0.19544 l -0.08467,0.73801 -0.500591,1.50459 c -0.385234,0.86431 -0.863953,1.69016 -1.480961,2.41159 l -1.322917,1.34585 c -0.221897,0.22578 -0.507294,0.36936 -0.758472,0.56762 -0.562681,0.44415 -1.198739,0.74965 -1.858786,1.05163 0.06668,0.0765 0.176389,0.0631 0.2667,0.037 l 1.157817,-0.33584 c 0.156986,-0.0455 0.296686,-0.0797 0.446969,-0.13229 l 0.935214,-0.32562 1.336322,-0.59972 1.073855,-0.56339 c 0.935214,-0.55456 1.808692,-1.17334 2.707923,-1.78047 0.05045,-0.0339 0.112888,-0.0339 0.147813,-0.007 0.112537,0.0861 -0.08184,0.52846 -0.242005,0.81738 -0.271992,0.49142 -0.62477,0.9137 -0.98037,1.34162 -0.452613,0.54469 -1.460852,1.51412 -2.019299,1.87783 l -1.063625,0.69251 -0.721078,0.36442 c -0.496358,0.25047 -1.987197,0.66428 -1.958622,0.74789 0.01164,0.0342 0.06421,0.0663 0.105128,0.0593 l 2.777066,-0.48824 c 0.154869,-0.0275 0.253294,-0.054 0.400403,-0.11677 l 0.407811,-0.0268 1.41358,-0.27905 c 0.474134,-0.0938 0.940506,-0.12665 1.4224,-0.16369 0.06244,-0.005 0.127353,0.0568 0.138995,0.0938 0.04833,0.15522 -0.264936,0.5588 -0.481189,0.7239 l -1.189214,0.90805 -1.198386,0.70697 c -0.833261,0.49142 -1.697214,0.84843 -2.626783,1.11583 -0.363009,0.10442 -0.691092,0.24307 -1.063272,0.30516 l -1.200503,0.20002 c -0.06491,0.0109 -0.112183,0.0226 -0.109714,0.0949 0.0011,0.0296 0.03316,0.0667 0.08537,0.0765 l 0.605014,0.11606 c 1.132064,0.2787 2.258131,0.40782 3.421239,0.46144 l 0.95638,-0.008 c 0.1651,-0.001 0.314678,0.072 0.488598,0.0529 0.04798,-0.005 0.117827,0.0526 0.124883,0.0893 0.02963,0.15522 -0.352778,0.36442 -0.613481,0.46602 -0.563386,0.21942 -1.113366,0.44414 -1.703563,0.58913 -0.815975,0.20038 -1.603023,0.39758 -2.434873,0.5006 l -2.102908,0.15592 c -0.142875,0.0102 -0.290689,-0.079 -0.427566,0.0508 0.100894,0.10337 0.239888,0.0857 0.369005,0.10831 0.436033,0.0755 0.848783,0.20179 1.273175,0.34078 l 1.49225,0.4893 c 0.2032,0.0663 0.42298,0.19121 0.488244,0.39617 0.08467,0.26705 -1.044927,0.51647 -1.533877,0.54293 l -1.8923,0.10195 c -0.631472,0.0342 -1.238603,-0.0875 -1.857728,-0.18521 -0.121355,-0.0194 -0.242005,-0.0494 -0.325967,0.0677 0.267759,0.44098 0.244475,0.40817 0.652639,0.8248 -0.06032,0.0543 0.470253,0.4632 0.487892,0.49883 0.02258,0.0448 0.438503,-0.14358 0.444853,-0.078 0.0078,0.0804 -0.142523,0.0755 -0.155223,0.1644 -0.0049,0.0342 0.0092,0.0783 0.04269,0.11183 l 0.303036,0.30198 1.895827,1.99883 c 0.217311,0.22896 0.306564,0.51929 0.382764,0.79305 l 1.607961,1.36983 1.811161,1.56669 0.177095,0.16792 1.252361,1.14089 c 0.293158,0.26705 0.553508,0.53234 0.802922,0.8389 0.05997,0.0737 0.08255,0.20849 -0.0014,0.27094 -0.255058,-0.0797 -0.505178,-0.1958 -0.744714,-0.34925 l -3.814586,-2.43946 c -0.03175,-0.0469 -0.08184,-0.0138 -0.0635,0.0201 0.134761,0.21801 0.336903,0.34395 0.511175,0.51646 l 1.017411,1.00754 c 0.125236,0.12382 0.217311,0.26493 0.266347,0.45578 -0.18415,0.003 -0.345722,-0.0684 -0.497769,-0.16862 l -1.941336,-1.27741 -2.699808,-1.93358 -2.069042,-1.52329 c -0.156986,-0.11571 -0.350308,-0.12488 -0.531636,-0.18345 -0.46355,-0.14957 -0.849842,-0.14957 -1.284817,-0.24094 l -0.124177,-0.0342 c -0.03316,-0.0134 -0.06703,-0.0265 -0.101248,-0.0381 -0.351366,-0.1203 -0.716491,-0.23566 -1.073855,-0.33585 -0.250472,-0.0705 -0.512586,-0.11253 -0.771878,-0.14993 -0.02611,-0.01 -0.05221,-0.0205 -0.07902,-0.0293 -0.106539,-0.0346 -0.213078,-0.0589 -0.318911,-0.0737 -0.02258,-0.008 -0.0448,-0.0166 -0.06773,-0.024 -0.159456,-0.0519 -0.318912,-0.0808 -0.47625,-0.0896 l -0.841728,-0.33867 c -0.164395,-0.066 -0.308328,-0.13123 -0.469195,-0.21308 l -1.275644,-0.64805 -0.900642,-0.56127 -1.229077,-0.9585 c -0.469547,-0.39299 -0.898172,-0.81491 -1.298222,-1.26753 0.402872,-0.44203 0.788811,-0.89993 1.163813,-1.36172 0.654756,-0.8061 1.278467,-1.63724 1.93675,-2.44052 0.150989,-0.1845 0.307975,-0.36406 0.459317,-0.54821 -0.136525,0.16616 -0.188736,0.2293 -0.194381,0.23636 -7.05e-4,7e-4 -7.05e-4,0.001 0,0 0.0081,-0.01 0.150636,-0.18168 0.207434,-0.24483 0.08996,-0.0995 0.180622,-0.19791 0.272344,-0.29492"
       style="fill:#ff595c;fill-opacity:1;fill-rule:nonzero;stroke:none;stroke-width:0.352778" />
    <path
       id="path302"
       d="m 81.130608,136.11765 c -0.0829,-0.16192 -0.364772,-0.0399 -0.380294,0.14111 -0.01517,0.18133 0.121708,0.33585 0.249766,0.46531 0.441325,0.44486 0.887942,0.88371 1.336322,1.32151 2.499784,2.44087 5.042606,4.83799 7.627056,7.18961 0.300919,0.27411 0.620888,0.57997 0.684036,0.98213 0.0056,0.037 0.0088,0.0773 -0.0078,0.11078 -0.04974,0.10054 -0.201084,0.0586 -0.297745,0.001 -2.451805,-1.44674 -4.596341,-3.35421 -6.937375,-4.97417 -0.548922,-0.37959 -1.112308,-0.74648 -1.588911,-1.21355 -0.37218,-0.36478 -0.685094,-0.78458 -0.996244,-1.20227 -0.530225,-0.71155 -1.069975,-1.44216 -1.324328,-2.292 -0.05292,-0.17603 -0.09208,-0.36971 -0.02434,-0.54081 0.06738,-0.17109 0.282575,-0.29386 0.442383,-0.20249"
       style="fill:#ff595c;fill-opacity:1;fill-rule:nonzero;stroke:none;stroke-width:0.352778" />
    <path
       id="path303"
       d="m 81.246204,136.05005 c -0.161925,-0.22825 -0.496711,-0.14922 -0.602192,0.0974 -0.162983,0.38029 0.338667,0.74965 0.563034,0.97366 0.751416,0.75001 1.513769,1.48873 2.277886,2.22603 1.558219,1.50389 3.133019,2.99085 4.723694,4.46052 0.402872,0.37218 0.806803,0.74366 1.211791,1.11372 0.337256,0.30798 0.765175,0.61278 0.989189,1.02024 0.02575,0.0469 0.1524,0.25153 0.06068,0.30127 -0.03916,0.0208 -0.224719,-0.12665 -0.268111,-0.15275 -0.229658,-0.139 -0.456847,-0.28152 -0.681567,-0.42792 -0.427566,-0.27764 -0.847019,-0.56692 -1.261533,-0.86396 -1.637947,-1.17369 -3.193344,-2.45921 -4.852811,-3.60397 -0.462844,-0.31927 -0.93345,-0.63112 -1.350433,-1.01001 -0.418042,-0.38064 -0.760942,-0.82938 -1.097492,-1.28129 -0.319264,-0.42792 -0.639586,-0.85725 -0.905227,-1.32115 -0.138642,-0.2413 -0.262467,-0.49177 -0.357364,-0.75389 -0.04375,-0.12029 -0.08819,-0.24412 -0.111478,-0.37041 -0.02399,-0.13088 -0.0025,-0.55033 0.261056,-0.4378 0.156986,0.067 0.293511,-0.16369 0.135113,-0.23107 -0.337608,-0.14428 -0.655461,0.11995 -0.677686,0.46955 -0.02928,0.45543 0.250473,0.9719 0.463198,1.3596 0.23248,0.42369 0.514349,0.81774 0.801511,1.2058 0.299508,0.40499 0.5969,0.81527 0.936977,1.1878 0.700617,0.76835 1.620661,1.29822 2.45745,1.90147 0.861483,0.62125 1.700742,1.27212 2.545645,1.91523 0.832908,0.63395 1.671813,1.26118 2.542116,1.84397 0.222603,0.14923 0.447675,0.29563 0.674864,0.43815 0.200378,0.12595 0.4064,0.28223 0.62618,0.37183 0.112889,0.0459 0.258587,0.067 0.356659,-0.0243 0.136878,-0.12735 0.0635,-0.35384 0.0049,-0.49989 -0.1651,-0.41134 -0.528109,-0.70202 -0.846314,-0.99236 -0.426861,-0.38911 -0.852664,-0.77929 -1.277056,-1.17087 -0.827969,-0.76341 -1.651352,-1.53176 -2.470502,-2.3047 -0.934509,-0.88159 -1.863725,-1.76953 -2.786945,-2.66347 -0.454025,-0.43956 -0.907344,-0.88053 -1.358194,-1.32362 -0.223308,-0.21978 -0.445911,-0.43992 -0.667456,-0.66181 -0.102658,-0.10231 -0.21343,-0.20144 -0.306211,-0.31327 -0.03457,-0.042 -0.09137,-0.115 -0.10548,-0.17357 -0.02716,-0.0713 -0.01129,-0.12453 0.04833,-0.1591 0.02611,-0.0247 0.05045,-0.0279 0.07232,-0.01 0.09913,0.1397 0.331258,0.006 0.231422,-0.13511"
       style="fill:#ff595c;fill-opacity:1;fill-rule:nonzero;stroke:none;stroke-width:0.352778" />
    <path
       id="path304"
       d="m 74.031043,138.86286 c 0.547864,0.24271 1.104194,0.46179 1.671461,0.65476 0.0314,-0.11466 0.06315,-0.22931 0.0949,-0.34432 -0.30233,-0.0921 -0.601486,-0.19261 -0.898525,-0.30162 -0.218369,-0.0801 -0.303389,0.26 -0.0949,0.34431 0.981428,0.39829 1.986844,0.73448 3.013075,0.9973 0.512939,0.13159 1.030111,0.24589 1.550458,0.3422 0.412397,0.0762 0.890058,0.21978 1.307395,0.11465 0.222602,-0.0561 0.128411,-0.4004 -0.0949,-0.34431 -0.246944,0.0621 -0.511175,-0.01 -0.756708,-0.0512 -0.240947,-0.0406 -0.481189,-0.085 -0.720725,-0.133 -0.479072,-0.0967 -0.954969,-0.20814 -1.426986,-0.33443 -0.944386,-0.25295 -1.87078,-0.56762 -2.776714,-0.93557 -0.0314,0.115 -0.06315,0.22966 -0.0949,0.34431 0.297039,0.10901 0.596194,0.20955 0.898525,0.30163 0.221192,0.0677 0.310797,-0.27059 0.0949,-0.34432 -0.537986,-0.18309 -1.066447,-0.3884 -1.586089,-0.61877 -0.208138,-0.0924 -0.390172,0.2152 -0.180269,0.30833"
       style="fill:#ff595c;fill-opacity:1;fill-rule:nonzero;stroke:none;stroke-width:0.352778" />
    <path
       id="path305"
       d="m 65.399991,130.67241 c -0.02328,-0.44979 0.01799,-1.0728 0.361244,-1.65947 0.279048,-0.47625 0.605367,-0.66922 1.039284,-1.0481 0.765527,-0.66781 1.193447,-1.32539 1.633008,-2.0006 1.04775,-1.60973 1.162403,-2.9785 1.411817,-2.93688 0.160161,0.0268 0.224366,0.60819 0.189088,1.08409 -0.102305,1.37477 -1.062566,2.23132 -0.935566,2.34527 0.09807,0.0882 0.737305,-0.36301 1.297516,-0.99202 0.688975,-0.77364 0.951442,-1.47214 1.045634,-1.43298 0.07796,0.0325 -0.0046,0.55069 -0.232834,1.06927 -0.549627,1.2506 -1.621013,1.76848 -1.534936,1.90606 0.06456,0.10301 0.726723,-0.0914 1.303514,-0.5274 0.602192,-0.45473 0.837495,-0.96556 0.941564,-0.91511 0.106186,0.0519 -0.01094,0.641 -0.240947,1.10631 -0.194028,0.393 -0.779286,1.32539 -2.59962,1.8288"
       style="fill:#ff595c;fill-opacity:1;fill-rule:nonzero;stroke:none;stroke-width:0.352778" />
    <path
       id="path306"
       d="m 75.032306,131.81958 c -1.494367,-0.75389 -2.935111,-1.6129 -4.308828,-2.56893 -0.440619,-0.30656 -0.88018,-0.62653 -1.380772,-0.82126 -0.500239,-0.19438 -1.079147,-0.25153 -1.567039,-0.0275 -0.817738,0.37606 -1.165577,1.41464 -1.978024,1.80164 -0.117475,0.0561 -0.249767,0.10265 -0.32385,0.2099 -0.09066,0.13053 -0.06526,0.30691 -0.02752,0.46143 0.275519,1.13101 0.986014,2.1142 1.819275,2.927 0.832908,0.81315 1.794228,1.48061 2.710391,2.19851 0.249414,0.19579 0.511528,0.4198 0.579967,0.72954 0.06385,-0.40922 0.343958,-0.74683 0.613128,-1.06186 0.640644,-0.7493 1.281289,-1.49895 1.92158,-2.24825 0.273403,-0.31997 0.550686,-0.64347 0.894997,-0.88512 0.348192,-0.24412 0.75177,-0.39546 1.152525,-0.53904"
       style="fill:#ff595c;fill-opacity:1;fill-rule:nonzero;stroke:none;stroke-width:0.352778" />
    <path
       id="path307"
       d="m 66.655465,132.00246 c -0.01376,-0.26211 -0.09384,-0.52987 -0.274108,-0.72037 -0.180623,-0.1905 -0.474134,-0.28575 -0.717198,-0.18592 -0.139699,0.0572 -0.249766,0.1704 -0.337961,0.29352 -0.390877,0.54539 -0.382058,1.34443 0.02046,1.88136 0.08961,0.11924 0.206727,0.23177 0.353836,0.25506 0.02011,-0.13618 0.03986,-0.27235 0.05962,-0.40852 0.01235,-0.0854 0.02681,-0.17568 0.08361,-0.24059 0.06879,-0.0787 0.90805,-0.91476 0.811742,-0.87454 -0.237772,0.0991 -0.450497,0.50588 0,0 0.1397,0.12277 0.205317,0.2353 0.345017,0.35807 0.06456,0.0564 0.13088,0.11571 0.166158,0.19403 0.04339,0.0963 0.03316,0.20814 0.0099,0.31115 -0.03704,0.16333 -0.113947,0.32984 -0.258939,0.4131 -0.166158,0.0956 -0.373945,0.0589 -0.56127,0.0194 -0.154869,-0.0328 -0.309738,-0.0656 -0.464608,-0.0984"
       style="fill:#201447;fill-opacity:1;fill-rule:nonzero;stroke:none;stroke-width:0.352778" />
    <path
       id="path308"
       d="m 67.644081,129.99833 c -0.06385,0.12136 -0.02575,0.27834 0.108656,0.35242 0.106891,0.0589 0.251883,0.0307 0.331258,-0.0811 0.07549,-0.10548 0.0635,-0.2854 -0.0889,-0.37642 -0.139347,-0.0833 -0.289631,-0.0113 -0.351014,0.10513 m 0.571147,0.23495 c -0.06068,0.18591 -0.246591,0.27905 -0.42545,0.24024 -0.201789,-0.0437 -0.312914,-0.24624 -0.271991,-0.44238 0.03775,-0.18133 0.219075,-0.31433 0.439208,-0.26247 0.233539,0.0554 0.3175,0.28152 0.258233,0.46461"
       style="fill:#fdfb76;fill-opacity:1;fill-rule:nonzero;stroke:none;stroke-width:0.352778" />
    <path
       id="path309"
       d="m 67.776346,130.04705 c -0.0254,0.054 -0.0035,0.13017 0.03246,0.16722 0.06138,0.0631 0.149225,0.037 0.178858,-0.006 0.04727,-0.0684 0.03598,-0.16122 -0.04127,-0.20532 -0.0635,-0.0363 -0.1397,-0.0198 -0.170039,0.0445 m 0.307975,0.2226 c -0.07973,0.11183 -0.224719,0.14006 -0.331611,0.0811 -0.134408,-0.0741 -0.172508,-0.23107 -0.108656,-0.35242 0.06138,-0.11642 0.211667,-0.18839 0.351014,-0.10513 0.1524,0.0907 0.164395,0.27093 0.08925,0.37641"
       style="fill:#201447;fill-opacity:1;fill-rule:nonzero;stroke:none;stroke-width:0.352778" />
    <path
       id="path310"
       d="m 67.946447,130.00263 c -0.0635,-0.0363 -0.140053,-0.0198 -0.170039,0.0444 -0.0254,0.054 -0.0035,0.13017 0.03246,0.16722 0.06138,0.0631 0.149225,0.0367 0.178858,-0.006 0.04692,-0.0684 0.03563,-0.16122 -0.04127,-0.20532"
       style="fill:#201447;fill-opacity:1;fill-rule:nonzero;stroke:none;stroke-width:0.352778" />
  </g>
</svg>
