<?xml version="1.0" encoding="UTF-8" standalone="no"?>
<!-- Created with Inkscape (http://www.inkscape.org/) -->

<svg
   width="60.400314mm"
   height="42.70541mm"
   viewBox="0 0 60.400314 42.70541"
   version="1.1"
   id="svg1"
   inkscape:version="1.4.4 (dcaf3e7, 2026-05-05)"
   sodipodi:docname="birds-square.svg"
   xmlns:inkscape="http://www.inkscape.org/namespaces/inkscape"
   xmlns:sodipodi="http://sodipodi.sourceforge.net/DTD/sodipodi-0.dtd"
   xmlns="http://www.w3.org/2000/svg"
   xmlns:svg="http://www.w3.org/2000/svg">
  <sodipodi:namedview
     id="namedview1"
     pagecolor="#ffffff"
     bordercolor="#000000"
     borderopacity="0.25"
     inkscape:showpageshadow="2"
     inkscape:pageopacity="0.0"
     inkscape:pagecheckerboard="0"
     inkscape:deskcolor="#d1d1d1"
     inkscape:document-units="mm"
     inkscape:zoom="2.0154121"
     inkscape:cx="9.1792642"
     inkscape:cy="56.316026"
     inkscape:window-width="1512"
     inkscape:window-height="916"
     inkscape:window-x="0"
     inkscape:window-y="38"
     inkscape:window-maximized="1"
     inkscape:current-layer="layer1" />
  <defs
     id="defs1" />
  <g
     inkscape:label="Layer 1"
     inkscape:groupmode="layer"
     id="layer1"
     transform="translate(-78.316665,-127.26458)">
    <path
       id="path313"
       d="m 116.29254,151.81538 c -0.06,0.11395 -0.0243,0.26106 0.10195,0.33091 0.10019,0.0554 0.23636,0.0286 0.31115,-0.0762 0.0706,-0.0991 0.0593,-0.26812 -0.0836,-0.35349 -0.13088,-0.078 -0.27199,-0.0106 -0.32949,0.0988 m 0.53587,0.22049 c -0.0568,0.17462 -0.23107,0.26176 -0.39935,0.22542 -0.18944,-0.0413 -0.29315,-0.23107 -0.25505,-0.41522 0.0353,-0.17004 0.20567,-0.29492 0.41239,-0.24588 0.21908,0.0515 0.29775,0.26387 0.24201,0.43568"
       style="fill:#fdfb76 icc-color(Display, 0.99198914, 0.98399353, 0.5369873);fill-opacity:1;fill-rule:nonzero;stroke:none;stroke-width:0.352778" />
    <path
       id="path314"
       d="m 116.41663,151.8611 c -0.0236,0.0505 -0.004,0.12206 0.0307,0.15699 0.0575,0.0593 0.1397,0.0346 0.16757,-0.006 0.0441,-0.0642 0.0335,-0.15134 -0.0388,-0.19262 -0.0593,-0.0342 -0.13124,-0.0187 -0.15946,0.0416 m 0.28892,0.20884 c -0.0748,0.10478 -0.2106,0.13159 -0.31114,0.0762 -0.1263,-0.0699 -0.16158,-0.21695 -0.10196,-0.3309 0.0575,-0.10936 0.19862,-0.17674 0.3295,-0.0984 0.14287,0.085 0.15416,0.254 0.0836,0.35313"
       style="fill:#201447 icc-color(Display, 0.11799622, 0.07798767, 0.26699829);fill-opacity:1;fill-rule:nonzero;stroke:none;stroke-width:0.352778" />
    <path
       id="path315"
       d="m 116.57628,151.8194 c -0.0596,-0.0342 -0.13123,-0.0187 -0.15946,0.0416 -0.024,0.0508 -0.004,0.12206 0.0303,0.15698 0.0575,0.0593 0.14006,0.0346 0.16793,-0.006 0.0441,-0.0639 0.0335,-0.15135 -0.0388,-0.19262"
       style="fill:#201447 icc-color(Display, 0.11799622, 0.07798767, 0.26699829);fill-opacity:1;fill-rule:nonzero;stroke:none;stroke-width:0.352778" />
    <path
       id="path316"
       d="m 90.115115,132.48183 c 0.731731,-0.36793 1.11207,-0.98805 1.11207,-1.73219 0,-1.21543 -1.033516,-2.10013 -3.245273,-2.10013 h -4.291198 v 8.02845 h 4.51858 c 2.211758,0 3.394102,-0.81442 3.394102,-2.21175 0,-0.95498 -0.549831,-1.64124 -1.488281,-1.98438 z m -2.501133,-1.9389 c 0.607721,0 0.88056,0.20671 0.88056,0.59532 0,0.3886 -0.272839,0.59531 -0.88056,0.59531 h -1.260898 v -1.19063 z m 0.36793,4.24161 h -1.628828 v -1.26091 h 1.628828 c 0.595312,0 0.892968,0.21911 0.892968,0.63252 0,0.41341 -0.297656,0.62839 -0.892968,0.62839 z m 6.958753,-3.70417 v -0.67386 h -2.463932 v 6.27145 h 2.592096 v -2.78639 c 0,-0.99632 0.549831,-1.35186 1.327044,-1.35186 0.186029,0 0.347266,0.008 0.574649,0.0455 v -2.29444 c -0.872305,0 -1.570964,0.26459 -2.029857,0.78962 z m 4.059687,-1.17822 c 0.95086,0 1.558578,-0.57465 1.558578,-1.3684 0,-0.74414 -0.607718,-1.26917 -1.558578,-1.26917 -0.950833,0 -1.558555,0.57051 -1.558555,1.31878 0,0.74414 0.607722,1.31879 1.558555,1.31879 z m -1.293971,6.77581 h 2.592099 v -6.27145 h -2.592099 z m 6.189799,0.11575 c 2.17868,0 3.2453,-0.98805 3.2453,-2.12079 0,-2.51355 -3.60083,-1.66605 -3.60083,-2.31924 0,-0.14883 0.18603,-0.29766 0.85162,-0.29766 0.52504,0 1.16996,0.10335 1.81075,0.45889 l 0.71107,-1.70739 c -0.66558,-0.34727 -1.64123,-0.51677 -2.55902,-0.51677 -2.10839,0 -3.20807,0.96325 -3.20807,2.14561 0,2.50941 3.60907,1.64951 3.60907,2.2903 0,0.18603 -0.16949,0.30179 -0.802,0.30179 -0.74414,0 -1.59163,-0.20671 -2.1911,-0.56224 l -0.71107,1.70739 c 0.64493,0.36794 1.76941,0.62011 2.84428,0.62011 z m 8.21139,-6.50296 c -0.68627,0 -1.21544,0.1695 -1.59163,0.53744 v -2.65824 h -2.59209 v 8.50801 h 2.46393 v -0.51676 c 0.38034,0.42581 0.94258,0.63251 1.71979,0.63251 1.64124,0 3.0303,-1.24023 3.0303,-3.25768 0,-2.01745 -1.38906,-3.24528 -3.0303,-3.24528 z m -0.62013,4.48552 c -0.57049,0 -1.01698,-0.42582 -1.01698,-1.24024 0,-0.81442 0.44649,-1.22783 1.01698,-1.22783 0.57465,0 1.02113,0.41341 1.02113,1.22783 0,0.81442 -0.44648,1.24024 -1.02113,1.24024 z m 7.11068,-4.48552 c -0.9715,0 -2.08772,0.25218 -2.81945,0.71107 l 0.82682,1.70739 c 0.41341,-0.31006 1.0418,-0.49196 1.60404,-0.49196 0.73585,0 1.09966,0.25218 1.18234,0.73174 h -1.04593 c -1.94717,0 -2.86493,0.67799 -2.86493,1.89342 0,1.07901 0.78962,1.9513 2.32751,1.9513 0.88469,0 1.48,-0.31005 1.77766,-0.94257 v 0.82682 h 2.40607 v -3.37344 c 0,-2.08359 -1.23611,-3.01377 -3.39413,-3.01377 z m -0.008,4.94027 c -0.39272,0 -0.62011,-0.21497 -0.62011,-0.50436 0,-0.34313 0.23977,-0.52503 0.78963,-0.52503 h 0.64492 v 0.43408 c -0.14058,0.41341 -0.4589,0.59531 -0.81444,0.59531 z m 8.88629,-4.94027 c -0.73588,0 -1.40147,0.23978 -1.89344,0.73174 v -0.61598 h -2.46393 v 6.27145 h 2.5921 v -2.94762 c 0,-0.93018 0.44648,-1.26091 0.97152,-1.26091 0.47128,0 0.76893,0.29766 0.76893,1.07901 v 3.12952 h 2.5921 v -3.57601 c 0,-1.9761 -1.12448,-2.8112 -2.56728,-2.8112 z m 10.48102,3.24528 c 0,-2.1208 -1.59165,-3.24528 -3.45199,-3.24528 -2.02986,0 -3.55534,1.33946 -3.55534,3.24528 0,1.86862 1.49241,3.25768 3.7951,3.25768 1.25265,0 2.13321,-0.34313 2.74093,-1.00872 l -1.35186,-1.36426 c -0.41341,0.30593 -0.73173,0.45476 -1.30638,0.45476 -0.64077,0 -1.079,-0.25218 -1.2609,-0.73174 h 4.35737 c 0.0124,-0.1819 0.033,-0.42582 0.033,-0.60772 z m -3.4272,-1.48001 c 0.52504,0 0.90538,0.31006 1.00872,0.83923 h -2.01744 c 0.10337,-0.52917 0.46717,-0.83923 1.00872,-0.83923 z m -40.346894,7.17786 -1.48,4.62194 -1.397343,-4.62194 h -2.488724 l -1.480026,4.56406 -1.397318,-4.56406 h -2.786406 l 2.567278,8.02845 h 2.902162 l 1.364244,-4.28708 1.298126,4.28708 h 2.898007 l 2.571433,-8.02845 z m 9.300714,4.88652 c 0,-2.1208 -1.59163,-3.24528 -3.45197,-3.24528 -2.029854,0 -3.555335,1.33945 -3.555335,3.24528 0,1.86862 1.492408,3.25768 3.795105,3.25768 1.25264,0 2.1332,-0.34313 2.74092,-1.00872 l -1.35186,-1.36426 c -0.41341,0.30593 -0.73173,0.45475 -1.30638,0.45475 -0.640794,0 -1.078997,-0.25218 -1.260898,-0.73174 h 4.357348 c 0.0124,-0.1819 0.0331,-0.42581 0.0331,-0.60771 z m -3.42718,-1.48001 c 0.52504,0 0.90538,0.31005 1.00873,0.83922 h -2.017449 c 0.103346,-0.52917 0.467148,-0.83922 1.008719,-0.83922 z m 6.69521,4.73769 c 2.17868,0 3.24527,-0.98805 3.24527,-2.1208 0,-2.51354 -3.60079,-1.66605 -3.60079,-2.31924 0,-0.14882 0.18602,-0.29765 0.85161,-0.29765 0.52504,0 1.16996,0.10335 1.81076,0.45888 l 0.71106,-1.70739 c -0.66561,-0.34726 -1.64126,-0.51676 -2.55902,-0.51676 -2.10841,0 -3.20807,0.96325 -3.20807,2.14561 0,2.5094 3.60907,1.64951 3.60907,2.2903 0,0.18603 -0.16949,0.30178 -0.802,0.30178 -0.74414,0 -1.59166,-0.2067 -2.1911,-0.56224 l -0.71106,1.7074 c 0.64492,0.36793 1.7694,0.62011 2.84427,0.62011 z m 8.02949,-2.1332 c -0.17364,0.11575 -0.38034,0.1695 -0.58706,0.1695 -0.31006,0 -0.53742,-0.21498 -0.53742,-0.60772 v -1.57923 h 1.28569 v -1.89342 h -1.28569 v -1.757 H 111.065 v 1.757 h -0.8599 v 1.89342 h 0.8599 v 1.60404 c 0,1.73219 1.00872,2.54661 2.74092,2.54661 0.6077,0 1.19475,-0.10335 1.59576,-0.33486 z m 0,0"
       style="fill:#201447 icc-color(Display, 0.11799622, 0.07798767, 0.26699829);fill-opacity:1;fill-rule:nonzero;stroke:none;stroke-width:0.352777"
       aria-label="Brisbane&#10;West" />
    <path
       id="path317"
       d="m 120.15982,149.08695 3.13055,7.95867 8.30757,-3.26743 z"
       style="fill:#00db96 icc-color(Display, 0.38798523, 0.84698486, 0.60798645);fill-opacity:1;fill-rule:nonzero;stroke:none;stroke-width:0.352777" />
    <path
       id="path318"
       d="m 125.24845,149.18657 c -0.38346,0.41381 -0.45895,1.03399 -0.37394,1.59138 0.0127,0.0825 0.0279,0.17004 -0.003,0.24765 -0.0441,0.11007 -0.16439,0.16475 -0.25506,0.24095 -0.28329,0.23919 -0.26318,0.67381 -0.21873,1.04211 -0.0339,-0.38947 0.31326,-0.69427 0.62653,-0.92781 -0.33724,0.30445 -0.42614,0.8502 -0.20283,1.24601 0.0116,-0.37853 0.19719,-0.74859 0.49353,-0.98425 -0.14253,0.38594 -0.014,0.85549 0.3048,1.11513 -0.013,-0.24553 -0.0265,-0.49071 -0.0395,-0.73624 -0.0148,-0.27235 -0.12454,-0.74119 0.13403,-0.65335 0.15595,0.0526 0.24908,0.12665 0.43569,0.17533 -0.18732,-0.32279 -0.508,-0.63747 -0.81245,-0.40604 -0.20355,-0.32879 -0.23495,-0.69286 -0.0723,-1.04352 0.16264,-0.35102 0.50905,-0.61031 0.89146,-0.66746 -0.24588,-0.11924 -0.51822,-0.18274 -0.79164,-0.18521"
       style="fill:#ff595c icc-color(Display, 0.98799133, 0.4039917, 0.38798523);fill-opacity:1;fill-rule:nonzero;stroke:none;stroke-width:0.352777" />
    <path
       id="path319"
       d="m 127.68412,149.89421 c -0.46178,0.32385 -0.66569,0.9144 -0.6999,1.47744 -0.005,0.0836 -0.008,0.17215 -0.055,0.2413 -0.066,0.0984 -0.19508,0.12664 -0.29986,0.18238 -0.32739,0.17427 -0.39864,0.60325 -0.43251,0.97261 0.0487,-0.3877 0.45225,-0.61277 0.80751,-0.7754 -0.39405,0.22683 -0.59513,0.74153 -0.46003,1.17545 0.091,-0.36759 0.34996,-0.69003 0.68897,-0.85831 -0.22048,0.34714 -0.1933,0.83326 0.0642,1.15394 0.0384,-0.24271 0.0769,-0.48507 0.1157,-0.72778 0.043,-0.26988 0.0646,-0.69674 0.29882,-0.55633 0.16121,0.0967 0.0818,0.0265 0.254,0.11324 -0.20426,-0.32315 -0.27728,-0.56974 -0.62336,-0.40711 -0.13017,-0.36406 -0.0653,-0.79198 0.16722,-1.10102 0.23283,-0.30903 0.62582,-0.48965 1.01176,-0.46531 -0.21555,-0.16792 -0.46849,-0.28751 -0.73519,-0.34749"
       style="fill:#ff595c icc-color(Display, 0.98799133, 0.4039917, 0.38798523);fill-opacity:1;fill-rule:nonzero;stroke:none;stroke-width:0.352777" />
    <path
       id="path320"
       d="m 124.33743,143.41305 0.33938,-0.35172 0.45191,-0.54398 c 0.21556,-0.2593 0.40886,-0.55528 0.5207,-0.87736 l 0.43109,-1.24213 c 0.0473,-0.13653 0.12171,-0.23707 0.26458,-0.27094 l 0.53023,-0.12523 c 0.65971,-0.15628 1.26471,-0.40746 1.90394,-0.63677 0.79587,-0.28575 1.57797,-0.54468 2.35162,-0.883 0.16404,-0.0716 0.30585,-0.14534 0.47519,-0.19967 0.13089,-0.0416 0.25331,-0.10584 0.37078,-0.18204 l 1.11054,-0.71825 0.64947,-0.50518 c 0.66215,-0.56691 1.2587,-1.16769 1.86902,-1.78929 l 0.91509,-0.93239 c 0.10726,-0.10901 0.23566,-0.18062 0.38243,-0.20814 0.0875,-0.0166 0.18838,0.0473 0.17637,0.1524 l -0.066,0.57538 -0.39053,1.17334 c -0.30057,0.67381 -0.67381,1.31798 -1.15464,1.88066 l -1.03188,1.04951 c -0.17285,0.17604 -0.39547,0.28787 -0.5916,0.44239 -0.4385,0.34642 -0.93451,0.5849 -1.44921,0.82021 0.0522,0.06 0.13759,0.0494 0.20778,0.0289 l 0.90276,-0.26176 c 0.12277,-0.0356 0.23143,-0.0624 0.34891,-0.10301 l 0.72919,-0.25435 1.04209,-0.46743 0.83751,-0.43921 c 0.72919,-0.43251 1.41004,-0.91511 2.11172,-1.38853 0.0392,-0.0265 0.0878,-0.0265 0.11501,-0.006 0.0878,0.067 -0.0639,0.41205 -0.18875,0.63747 -0.21201,0.38312 -0.48718,0.71226 -0.76446,1.04599 -0.35314,0.4251 -1.13911,1.18075 -1.5748,1.46438 l -0.82902,0.54045 -0.56235,0.28399 c -0.38735,0.19544 -1.54974,0.51788 -1.52752,0.58314 0.009,0.0265 0.0501,0.0519 0.0822,0.0462 l 2.16535,-0.381 c 0.12065,-0.0212 0.19754,-0.042 0.31221,-0.0907 l 0.31784,-0.0208 1.10278,-0.21802 c 0.36936,-0.073 0.73343,-0.0988 1.10914,-0.12735 0.0487,-0.004 0.0991,0.0441 0.10829,0.073 0.0378,0.12135 -0.20672,0.43603 -0.37534,0.56479 l -0.92747,0.70767 -0.9345,0.5514 c -0.64982,0.38347 -1.32327,0.66181 -2.04822,0.8703 -0.28292,0.0811 -0.5387,0.18944 -0.82939,0.23777 l -0.93591,0.15593 c -0.0508,0.008 -0.0875,0.0177 -0.0857,0.0741 0,0.0233 0.0262,0.0519 0.0667,0.06 l 0.47201,0.0903 c 0.88265,0.21731 1.76073,0.3182 2.66772,0.35983 l 0.74575,-0.006 c 0.12877,-0.001 0.24519,0.0561 0.381,0.0413 0.0374,-0.004 0.0917,0.0409 0.0974,0.0695 0.0233,0.12101 -0.27517,0.28434 -0.47837,0.36337 -0.43921,0.17145 -0.86818,0.34642 -1.32855,0.45931 -0.63606,0.15628 -1.24989,0.31009 -1.89865,0.39053 l -1.64007,0.12135 c -0.11113,0.008 -0.22649,-0.0614 -0.33338,0.0399 0.0787,0.0808 0.18733,0.067 0.28787,0.0843 0.34009,0.0593 0.66183,0.15734 0.99309,0.26599 l 1.16345,0.38136 c 0.1584,0.0519 0.32985,0.14922 0.38065,0.30903 0.0663,0.20849 -0.81457,0.40252 -1.19591,0.42333 l -1.47569,0.0797 c -0.49247,0.0265 -0.96589,-0.0684 -1.44849,-0.14464 -0.0949,-0.0152 -0.1891,-0.0385 -0.25437,0.0529 0.20886,0.34396 0.1905,0.31821 0.50906,0.64311 -0.0472,0.0423 0.36655,0.36125 0.38031,0.38912 0.0177,0.0349 0.34219,-0.11183 0.34677,-0.061 0.006,0.0628 -0.11113,0.0589 -0.121,0.12841 -0.003,0.0265 0.007,0.061 0.0335,0.0871 l 0.23636,0.23531 1.47814,1.55892 c 0.16934,0.17851 0.23882,0.40499 0.29845,0.61842 l 1.25413,1.06821 1.41216,1.22167 0.1383,0.13088 0.97647,0.88971 c 0.2286,0.20814 0.4318,0.41522 0.62619,0.65405 0.0466,0.0575 0.0642,0.16263 0,0.21131 -0.19897,-0.0621 -0.39405,-0.1524 -0.58103,-0.27199 l -2.97426,-1.90253 c -0.0251,-0.0363 -0.0639,-0.0109 -0.0497,0.0159 0.10512,0.16969 0.26281,0.26776 0.39862,0.40252 l 0.79341,0.78564 c 0.0977,0.0967 0.16933,0.20673 0.20743,0.3556 -0.14322,0.002 -0.26916,-0.0533 -0.38806,-0.13159 l -1.51376,-0.99624 -2.10537,-1.50777 -1.61327,-1.18781 c -0.12277,-0.0903 -0.2734,-0.0974 -0.4145,-0.14287 -0.36161,-0.11677 -0.66289,-0.11677 -1.00224,-0.18803 l -0.0967,-0.0265 c -0.0262,-0.0109 -0.0522,-0.0212 -0.079,-0.03 -0.27377,-0.0938 -0.5588,-0.18379 -0.83715,-0.26211 -0.19579,-0.0547 -0.3997,-0.0878 -0.60219,-0.11677 -0.0204,-0.008 -0.0406,-0.0159 -0.0617,-0.0226 -0.0829,-0.0272 -0.16616,-0.0459 -0.24871,-0.0575 -0.0172,-0.007 -0.0349,-0.013 -0.0525,-0.019 -0.12454,-0.0402 -0.2487,-0.0632 -0.37147,-0.0695 l -0.65654,-0.26423 c -0.12806,-0.0515 -0.24024,-0.10231 -0.36581,-0.16616 l -0.99483,-0.50553 -0.70205,-0.43744 -0.95848,-0.74754 c -0.36618,-0.30656 -0.70027,-0.6357 -1.01248,-0.98848 0.31432,-0.34467 0.61524,-0.70168 0.90771,-1.06186 0.51046,-0.62865 0.99695,-1.27671 1.51024,-1.90324 0.11782,-0.14393 0.24024,-0.28363 0.35806,-0.42757 -0.10618,0.12983 -0.14711,0.17886 -0.15169,0.18451 0,2.6e-4 0,7.9e-4 0,0 0.006,-0.008 0.11748,-0.14182 0.16193,-0.19121 0.0702,-0.0773 0.14076,-0.15416 0.21235,-0.22966"
       style="fill:#ff595c icc-color(Display, 0.98799133, 0.4039917, 0.38798523);fill-opacity:1;fill-rule:nonzero;stroke:none;stroke-width:0.352777" />
    <path
       id="path321"
       d="m 130.11575,147.45038 c -0.0646,-0.1263 -0.28432,-0.031 -0.29633,0.11006 -0.0124,0.14147 0.0949,0.26212 0.19473,0.36266 0.34396,0.34713 0.69252,0.68933 1.04177,1.03082 1.94945,1.90323 3.9324,3.7726 5.94783,5.60634 0.23458,0.21378 0.484,0.45226 0.5334,0.76588 0.005,0.0289 0.007,0.0603 -0.006,0.0864 -0.0388,0.0787 -0.15698,0.0455 -0.23212,0.001 -1.91207,-1.12818 -3.58423,-2.61549 -5.40986,-3.87879 -0.42828,-0.29598 -0.86749,-0.58208 -1.23931,-0.9465 -0.28998,-0.28434 -0.53411,-0.61172 -0.77681,-0.93769 -0.41347,-0.55456 -0.83431,-1.1243 -1.03259,-1.78682 -0.0413,-0.13758 -0.072,-0.28857 -0.0191,-0.42192 0.0526,-0.13335 0.22013,-0.22895 0.34501,-0.15804"
       style="fill:#ff595c icc-color(Display, 0.98799133, 0.4039917, 0.38798523);fill-opacity:1;fill-rule:nonzero;stroke:none;stroke-width:0.352777" />
    <path
       id="path322"
       d="m 130.18959,147.37654 c -0.12417,-0.15804 -0.3697,-0.0811 -0.44907,0.0861 -0.12171,0.25647 0.16404,0.49883 0.32139,0.65652 0.59478,0.5969 1.20015,1.18322 1.80586,1.76883 1.20438,1.16346 2.42112,2.31387 3.65053,3.45087 0.31221,0.28928 0.62585,0.5775 0.9398,0.86501 0.27766,0.254 0.61455,0.49848 0.83222,0.80927 0.03,0.043 0.15838,0.22402 0.13264,0.27482 -0.0466,0.091 -0.19862,-0.0402 -0.2413,-0.066 -0.16934,-0.10266 -0.33727,-0.20779 -0.50342,-0.31574 -0.33232,-0.21519 -0.65829,-0.43956 -0.98037,-0.66992 -1.26894,-0.9077 -2.47298,-1.90324 -3.75602,-2.79153 -0.37748,-0.26141 -0.76412,-0.5133 -1.10456,-0.82339 -0.32419,-0.29492 -0.59018,-0.64276 -0.85124,-0.99271 -0.24448,-0.32773 -0.49072,-0.65652 -0.69604,-1.01071 -0.10618,-0.1838 -0.20249,-0.37359 -0.27797,-0.57221 -0.0385,-0.10124 -0.0783,-0.20849 -0.0981,-0.31503 -0.0282,-0.15028 0.01,-0.43074 0.22471,-0.34607 0.12488,0.0494 0.17923,-0.15275 0.0554,-0.20144 -0.23532,-0.0928 -0.45968,0.0952 -0.49707,0.32667 -0.0526,0.32632 0.14534,0.70379 0.28927,0.98637 0.34255,0.67381 0.83502,1.31798 1.32998,1.88807 0.53022,0.61101 1.22484,1.02623 1.87677,1.49154 0.67839,0.48401 1.33773,0.99378 2.00025,1.49895 0.66146,0.50483 1.3268,1.00542 2.01649,1.47144 0.33444,0.22578 0.67591,0.47555 1.03646,0.65758 0.19756,0.0998 0.42473,0.0568 0.39158,-0.20532 -0.0423,-0.33514 -0.32597,-0.59725 -0.5602,-0.81209 -0.32457,-0.29704 -0.65019,-0.59302 -0.97367,-0.89112 -0.65794,-0.60537 -1.31199,-1.21461 -1.96286,-1.82774 -0.72319,-0.68086 -1.4418,-1.36666 -2.15617,-2.05705 -0.3683,-0.35595 -0.73554,-0.71296 -1.10138,-1.07174 -0.18487,-0.18097 -0.36902,-0.36265 -0.55211,-0.54539 -0.0811,-0.0811 -0.16473,-0.16052 -0.24342,-0.24412 -0.0335,-0.0356 -0.0815,-0.0762 -0.10617,-0.11924 -0.0402,-0.0702 -0.031,-0.32209 0.06,-0.20567 0.0829,0.10548 0.23,-0.043 0.14779,-0.14782"
       style="fill:#ff595c icc-color(Display, 0.98799133, 0.4039917, 0.38798523);fill-opacity:1;fill-rule:nonzero;stroke:none;stroke-width:0.352777" />
    <path
       id="path323"
       d="m 124.5795,149.59111 c 0.42651,0.18979 0.86114,0.36089 1.30318,0.51082 l 0.0741,-0.26847 c -0.23566,-0.0716 -0.46921,-0.14993 -0.70027,-0.2353 -0.17039,-0.0628 -0.23672,0.20214 -0.0741,0.26847 0.7426,0.30268 1.50423,0.55738 2.28036,0.75988 0.38418,0.10019 0.77116,0.18768 1.16134,0.26247 0.19473,0.0374 0.39018,0.0713 0.58631,0.1023 0.1845,0.0293 0.36653,0.0628 0.54999,0.009 0.17145,-0.0501 0.0984,-0.31891 -0.0741,-0.26846 -0.17463,0.0512 -0.3683,-0.003 -0.54293,-0.0321 -0.18803,-0.031 -0.37536,-0.0653 -0.56234,-0.1023 -0.38134,-0.0759 -0.76057,-0.16369 -1.13628,-0.26388 -0.74438,-0.19861 -1.47497,-0.44485 -2.18829,-0.73554 l -0.0741,0.26846 c 0.23106,0.0854 0.46461,0.16369 0.70027,0.23531 0.17285,0.0522 0.2427,-0.21167 0.0741,-0.26847 -0.41947,-0.14217 -0.83222,-0.30268 -1.23684,-0.48295 -0.16227,-0.072 -0.30409,0.16792 -0.14042,0.24059"
       style="fill:#ff595c icc-color(Display, 0.98799133, 0.4039917, 0.38798523);fill-opacity:1;fill-rule:nonzero;stroke:none;stroke-width:0.352777" />
    <path
       id="path324"
       d="m 117.84892,143.20417 c -0.0183,-0.35066 0.0138,-0.83644 0.28189,-1.29399 0.2173,-0.37147 0.47165,-0.52211 0.81031,-0.81739 0.5969,-0.5207 0.93065,-1.03328 1.27355,-1.55998 0.81703,-1.25518 0.90628,-2.32269 1.10101,-2.29023 0.12454,0.0208 0.17463,0.47413 0.14711,0.84525 -0.0797,1.0721 -0.82833,1.7399 -0.72954,1.82916 0.0765,0.0684 0.57502,-0.28328 1.01177,-0.77365 0.53726,-0.6036 0.74224,-1.14829 0.8156,-1.1176 0.0607,0.0251 -0.004,0.42934 -0.18166,0.83397 -0.42862,0.97508 -1.26402,1.37866 -1.19697,1.48626 0.0504,0.0804 0.56655,-0.0713 1.01668,-0.41134 0.46956,-0.35455 0.65265,-0.75319 0.73414,-0.71332 0.0825,0.0399 -0.008,0.49953 -0.18804,0.86254 -0.15134,0.30621 -0.60782,1.03364 -2.02705,1.42593"
       style="fill:#ff595c icc-color(Display, 0.98799133, 0.4039917, 0.38798523);fill-opacity:1;fill-rule:nonzero;stroke:none;stroke-width:0.352777" />
    <path
       id="path325"
       d="m 125.36026,144.09871 c -1.16522,-0.58773 -2.2888,-1.25765 -3.36021,-2.00343 -0.34359,-0.23918 -0.68614,-0.48859 -1.07632,-0.64029 -0.39016,-0.15169 -0.84172,-0.19614 -1.22201,-0.0215 -0.63783,0.29351 -0.90911,1.10314 -1.5427,1.40511 -0.0917,0.0437 -0.19474,0.0801 -0.2526,0.16334 -0.0709,0.10195 -0.0508,0.23954 -0.0214,0.36019 0.21484,0.88194 0.76906,1.64853 1.41888,2.28247 0.64944,0.63394 1.39911,1.15429 2.11349,1.7145 0.19473,0.15275 0.39899,0.32702 0.45225,0.56868 0.0501,-0.31927 0.2681,-0.58244 0.47802,-0.82797 l 1.4986,-1.75331 c 0.21307,-0.24941 0.42932,-0.50165 0.69779,-0.69003 0.27165,-0.1905 0.58632,-0.30868 0.89887,-0.42051"
       style="fill:#ff595c icc-color(Display, 0.98799133, 0.4039917, 0.38798523);fill-opacity:1;fill-rule:nonzero;stroke:none;stroke-width:0.352777" />
    <path
       id="path326"
       d="m 118.82796,144.2413 c -0.0106,-0.20426 -0.073,-0.41345 -0.21378,-0.56198 -0.14076,-0.14851 -0.3697,-0.2226 -0.55915,-0.14499 -0.109,0.0448 -0.19507,0.13335 -0.26352,0.22931 -0.3048,0.4251 -0.29811,1.0481 0.0159,1.46685 0.0699,0.0931 0.16122,0.18062 0.27589,0.19897 0.0156,-0.10619 0.031,-0.21238 0.0466,-0.31856 0.01,-0.0667 0.0209,-0.13723 0.0653,-0.18768 0.0536,-0.061 0.70802,-0.71332 0.63288,-0.68192 -0.18521,0.0773 -0.35136,0.39441 0,0 0.10901,0.0956 0.16018,0.18345 0.26919,0.2794 0.0501,0.0441 0.10194,0.09 0.12946,0.15099 0.0339,0.0751 0.0257,0.16228 0.008,0.24271 -0.0289,0.12735 -0.0889,0.25717 -0.20214,0.32209 -0.12946,0.0748 -0.29138,0.0459 -0.43743,0.0152 -0.121,-0.0254 -0.24165,-0.0512 -0.36267,-0.0766"
       style="fill:#201447 icc-color(Display, 0.11799622, 0.07798767, 0.26699829);fill-opacity:1;fill-rule:nonzero;stroke:none;stroke-width:0.352777" />
    <path
       id="path327"
       d="m 113.08936,150.29701 c 0.0836,0 0.084,-0.13017 0,-0.13017 -0.0836,0 -0.084,0.13017 0,0.13017"
       style="fill:#0d0d0d icc-color(Display, 0.05099487, 0.05099487, 0.05099487);fill-opacity:1;fill-rule:nonzero;stroke:none;stroke-width:0.352777" />
    <path
       id="path328"
       d="m 119.59888,142.6785 c -0.0497,0.0945 -0.0201,0.21695 0.0847,0.27481 0.0836,0.0462 0.1965,0.024 0.2586,-0.0631 0.0585,-0.0825 0.0494,-0.22295 -0.0695,-0.29351 -0.10866,-0.0649 -0.22614,-0.009 -0.27376,0.0819 m 0.44521,0.18344 c -0.0469,0.14499 -0.1919,0.21731 -0.3316,0.18697 -0.15735,-0.0342 -0.24379,-0.19191 -0.21204,-0.34466 0.0293,-0.14146 0.17077,-0.24518 0.34256,-0.20461 0.18203,0.043 0.24765,0.21943 0.20108,0.3623"
       style="fill:#fdfb76 icc-color(Display, 0.99198914, 0.98399353, 0.5369873);fill-opacity:1;fill-rule:nonzero;stroke:none;stroke-width:0.352777" />
    <path
       id="path329"
       d="m 119.70199,142.71649 c -0.0198,0.042 -0.003,0.10125 0.0254,0.13053 0.048,0.049 0.11641,0.0286 0.13935,-0.005 0.0367,-0.0533 0.0279,-0.12594 -0.0321,-0.16016 -0.0494,-0.0286 -0.10901,-0.0155 -0.13266,0.0346 m 0.23989,0.17357 c -0.0621,0.0871 -0.17496,0.10936 -0.25823,0.0632 -0.10512,-0.0579 -0.13441,-0.17992 -0.0847,-0.27482 0.0476,-0.0907 0.16476,-0.14675 0.27377,-0.0818 0.11853,0.0709 0.12806,0.21131 0.0691,0.29351"
       style="fill:#201447 icc-color(Display, 0.11799622, 0.07798767, 0.26699829);fill-opacity:1;fill-rule:nonzero;stroke:none;stroke-width:0.352777" />
    <path
       id="path330"
       d="m 119.83468,142.68184 c -0.0494,-0.0282 -0.10901,-0.0155 -0.13264,0.0346 -0.0198,0.042 -0.003,0.1016 0.0254,0.13052 0.048,0.049 0.11642,0.0286 0.13936,-0.005 0.0367,-0.0533 0.0279,-0.12594 -0.0321,-0.16017"
       style="fill:#201447 icc-color(Display, 0.11799622, 0.07798767, 0.26699829);fill-opacity:1;fill-rule:nonzero;stroke:none;stroke-width:0.352777" />
    <path
       id="path331"
       d="m 96.656329,157.04571 h 2.703698 v -5.92832 h 2.352303 v -2.10013 h -7.408332 v 2.10013 h 2.352331 z m 8.357101,0.11575 c 2.1332,0 3.65043,-1.35599 3.65043,-3.25768 0,-1.90582 -1.51723,-3.24528 -3.65043,-3.24528 -2.12079,0 -3.6463,1.33946 -3.6463,3.24528 0,1.90169 1.52551,3.25768 3.6463,3.25768 z m 0,-2.01744 c -0.57052,0 -1.017,-0.42582 -1.017,-1.24024 0,-0.81442 0.44648,-1.22783 1.017,-1.22783 0.57465,0 1.02113,0.41341 1.02113,1.22783 0,0.81442 -0.44648,1.24024 -1.02113,1.24024 z m 8.81909,-4.36976 -1.31876,3.3569 -1.294,-3.3569 h -2.66237 l 2.63758,6.35 c -0.13642,0.16123 -0.33073,0.25218 -0.64079,0.25218 -0.31007,0 -0.66559,-0.13643 -0.91776,-0.33073 l -0.8599,1.77767 c 0.42579,0.34313 1.21542,0.56224 1.90582,0.56224 1.32705,0 2.33577,-0.49196 3.02617,-2.21175 l 2.57969,-6.39961 z m -18.920801,16.85582 h 6.329341 v -2.10013 h -3.621489 v -5.92832 h -2.707852 z m 8.290961,-6.77582 c 0.95086,0 1.55858,-0.57464 1.55858,-1.36839 0,-0.74414 -0.60772,-1.26917 -1.55858,-1.26917 -0.95084,0 -1.55856,0.5705 -1.55856,1.31878 0,0.74414 0.60772,1.31878 1.55856,1.31878 z m -1.29398,6.77582 h 2.5921 v -6.27146 h -2.5921 z m 7.922,-6.38721 c -0.68625,0 -1.21542,0.1695 -1.59163,0.53743 v -2.65823 h -2.59209 v 8.50801 h 2.46393 v -0.51677 c 0.38034,0.42582 0.94258,0.63252 1.71979,0.63252 1.64126,0 3.03033,-1.24023 3.03033,-3.25768 0,-2.01745 -1.38907,-3.24528 -3.03033,-3.24528 z m -0.6201,4.48551 c -0.57052,0 -1.01701,-0.42581 -1.01701,-1.24023 0,-0.81442 0.44649,-1.22783 1.01701,-1.22783 0.57464,0 1.02113,0.41341 1.02113,1.22783 0,0.81442 -0.44649,1.24023 -1.02113,1.24023 z m 6.92774,-3.69589 v -0.67387 h -2.46393 v 6.27146 h 2.59207 v -2.7864 c 0,-0.99632 0.54986,-1.35185 1.32707,-1.35185 0.18603,0 0.34726,0.008 0.57462,0.0455 v -2.29443 c -0.87228,0 -1.57096,0.26458 -2.02983,0.78962 z m 5.51593,-0.78962 c -0.9715,0 -2.08772,0.25218 -2.81946,0.71107 l 0.82683,1.70739 c 0.41341,-0.31006 1.04179,-0.49196 1.60403,-0.49196 0.73586,0 1.09967,0.25218 1.18235,0.73174 h -1.04593 c -1.94717,0 -2.86493,0.67799 -2.86493,1.89342 0,1.079 0.78962,1.9513 2.32751,1.9513 0.88469,0 1.48,-0.31006 1.77766,-0.94258 v 0.82683 h 2.40607 v -3.37344 c 0,-2.08359 -1.23611,-3.01377 -3.39413,-3.01377 z m -0.008,4.94027 c -0.39275,0 -0.62013,-0.21498 -0.62013,-0.50437 0,-0.34313 0.23979,-0.52503 0.78962,-0.52503 h 0.64492 v 0.43408 c -0.14057,0.41342 -0.45889,0.59532 -0.81441,0.59532 z m 6.99285,-4.15065 v -0.67387 h -2.46393 v 6.27146 h 2.59207 v -2.7864 c 0,-0.99632 0.54986,-1.35185 1.32707,-1.35185 0.18603,0 0.34727,0.008 0.57462,0.0455 v -2.29443 c -0.87227,0 -1.57096,0.26458 -2.02983,0.78962 z m 7.46414,-0.67387 -1.31879,3.3569 -1.29397,-3.3569 h -2.66237 l 2.63758,6.35 c -0.13645,0.16124 -0.33073,0.25219 -0.6408,0.25219 -0.31006,0 -0.66561,-0.13643 -0.91779,-0.33073 l -0.85989,1.77767 c 0.42582,0.34313 1.21544,0.56224 1.90582,0.56224 1.32707,0 2.33579,-0.49197 3.0262,-2.21176 l 2.57968,-6.39961 z m 0,0"
       style="fill:#201447 icc-color(Display, 0.11799622, 0.07798767, 0.26699829);fill-opacity:1;fill-rule:nonzero;stroke:none;stroke-width:0.352777"
       aria-label="Toy&#10;Library" />
    <path
       id="path332"
       d="m 82.415316,167.84855 c 0,-2.54352 2.062004,-4.60551 4.605523,-4.60551 2.543519,0 4.605523,2.06199 4.605523,4.60551"
       style="fill:#ff595c icc-color(Display, 0.98799133, 0.4039917, 0.38798523);fill-opacity:1;fill-rule:nonzero;stroke:none;stroke-width:0.352777" />
    <path
       id="path333"
       d="m 86.918419,153.75508 c -1.712383,1.58327 -3.372194,3.22333 -4.975913,4.91667 -0.499904,0.52775 -0.995548,1.06186 -1.551887,1.52964 -0.594413,0.49918 -1.251638,0.91722 -1.912752,1.32327 -0.09279,0.0568 -0.199681,0.15875 -0.147453,0.25435 0.01561,0.0286 0.04302,0.0483 0.07125,0.0646 0.322447,0.18556 0.719666,-0.0116 1.053041,-0.17639 1.072092,-0.53058 2.314231,-0.75247 3.238156,-1.51236 -0.660056,0.41769 -1.319741,0.83538 -1.979797,1.25307 -0.370073,0.23425 -0.751073,0.47907 -0.993431,0.84385 -0.02461,0.0374 -0.04868,0.085 -0.0282,0.12488 0.01667,0.0332 0.05644,0.0462 0.09313,0.0519 0.195078,0.03 0.385234,-0.0649 0.558086,-0.16017 2.1971,-1.2139 4.041431,-3.00496 6.276975,-4.14619"
       style="fill:#201447 icc-color(Display, 0.11799622, 0.07798767, 0.26699829);fill-opacity:1;fill-rule:nonzero;stroke:none;stroke-width:0.352777" />
    <path
       id="path334"
       d="m 81.924673,160.8505 c 0.0087,-0.007 0.03175,-0.0148 0.03352,-0.0254 0.0026,-0.0106 0,-0.0265 -0.03564,-0.0529 l 2.247556,-1.46721 c 0.113586,0.41804 0.353484,0.77647 0.713661,1.00683 0.02857,0.0183 0.474848,0.0554 0.494612,0.0819 -0.02011,0.005 -0.454739,-0.0148 -0.470958,-8e-4 l -0.942287,0.0222 c -0.321363,-0.0113 -0.625475,0.0102 -0.930963,0.0995 l -1.214967,0.79869 c -0.01799,-0.0243 -0.03598,-0.0476 -0.05257,-0.0699 -0.03527,-0.0459 -0.08289,-0.10442 -0.138641,-0.16298 z"
       style="fill:#201447 icc-color(Display, 0.11799622, 0.07798767, 0.26699829);fill-opacity:1;fill-rule:nonzero;stroke:none;stroke-width:0.352777" />
    <path
       id="path335"
       d="m 89.59669,150.36104 c 0.02143,-0.10407 0.125598,-0.18027 0.252254,-0.15063 0.133694,0.0318 0.182033,0.16157 0.147796,0.2667 -0.03455,0.10654 -0.141446,0.15981 -0.244105,0.13758 -0.115728,-0.0251 -0.179228,-0.14111 -0.155945,-0.25365 m -5.426419,8.94398 c 0.113242,0.41804 0.353484,0.77646 0.713317,1.00683 0.02858,0.018 0.05927,0.0254 0.07937,0.0519 0.01191,-0.003 0.02461,-0.004 0.03776,-0.002 0.550677,0.0681 1.105958,0.0466 1.645708,-0.0854 0.538692,-0.13158 1.045977,-0.35771 1.530694,-0.62406 0.142531,-0.078 0.276569,-0.16263 0.40394,-0.26388 0.128746,-0.10195 0.255402,-0.20743 0.395816,-0.29351 0.0032,-0.002 0.0066,-0.004 0.0098,-0.005 l 0.33655,-0.33726 0.416269,-0.43991 c 0.992716,-1.17687 1.094687,-2.72733 0.691091,-4.18007 -0.02249,-0.0808 -0.0335,-0.14816 -0.06948,-0.22471 -0.166873,-0.35455 -0.294587,-0.71332 -0.362665,-1.10279 -0.0494,-0.39899 -0.02117,-0.78775 0.04797,-1.1684 -0.01826,-0.0324 -0.01482,-0.0727 -0.0042,-0.1143 -0.102288,-0.0427 -0.205317,-0.0342 -0.231405,-0.0822 -0.01058,-0.0194 -0.01085,-0.0561 0.004,-0.0847 l 0.357373,-0.68862 c 0.02858,-0.0547 0.004,-0.11818 -0.01561,-0.18909 0.0034,-0.0275 0.06667,-0.0448 0.08292,-0.0663 l 0.29845,-0.39899 c -0.115729,-0.15134 -0.336921,-0.20919 -0.471673,-0.31044 -0.451564,-0.33902 -1.088681,-0.23566 -1.599856,0.009 -0.219763,0.10513 -0.391213,0.25859 -0.512921,0.46708 -0.151342,0.22966 -0.230717,0.48824 -0.302339,0.73871 0.01376,0.10513 0.11041,0.15523 0.185552,0.16546 0.256117,0.0346 0.23532,-0.22402 0.4191,-0.12595 0.164412,0.0879 0.3175,0.18028 0.43815,0.31786 0.08821,0.10054 0.10795,0.20567 0.106204,0.33655 -0.0074,0.49001 0.02858,0.97049 -0.115015,1.44427 -0.0621,0.20426 -0.189441,0.3369 -0.372533,0.4378 l -0.547502,0.30162 c -0.104087,0.0575 -0.115729,0.13582 -0.16899,0.23389 -0.0381,0.0702 -0.178858,0.12559 -0.267044,0.14217 -0.584914,0.10937 -1.100322,0.37501 -1.539531,0.75812 -0.01243,-0.004 -0.0209,0.013 -0.02823,0.0198 l -0.06879,0.0621 c -0.02567,0.0229 -0.04408,0.0448 -0.07091,0.0691 -0.03844,0.0349 -0.11676,0.073 -0.142504,0.11289 -0.03106,0.0487 -0.06387,0.10019 -0.09985,0.13864 -0.19648,0.21061 -0.360892,0.44803 -0.532686,0.67734 -0.106177,0.14216 -0.181689,0.30127 -0.275881,0.45966 -0.04514,0.0759 -0.09419,0.11219 -0.100171,0.20144 0.10123,-0.0804 0.158036,-0.2286 0.286094,-0.31326 0.314669,-0.20814 0.626877,-0.40535 0.947208,-0.58526 -0.0034,-0.0423 0.02196,-0.0533 0.0508,-0.0744 l 0.648415,-0.47554 c 0.258921,-0.16616 0.493183,-0.33973 0.773641,-0.47484 0.243047,-0.0134 0.492469,10e-4 0.720725,0.0829 0.119936,0.0469 0.20918,0.10513 0.269875,0.19509 0.08501,0.12629 0.149913,0.24906 0.118163,0.42333 -0.125571,0.68792 -1.037166,1.57127 -1.582896,2.00448 -0.02302,0.024 -0.03953,0.0734 -0.06705,0.10054 -0.271278,0.266 -0.55208,0.48401 -0.870294,0.69498 z"
       style="fill:#201447 icc-color(Display, 0.11799622, 0.07798767, 0.26699829);fill-opacity:1;fill-rule:nonzero;stroke:none;stroke-width:0.352777" />
    <path
       id="path336"
       d="m 81.805029,160.78072 c -0.06067,-0.28822 -0.28575,-0.47554 -0.398992,-0.73695 -0.0026,-0.003 -0.0032,-0.006 -0.0045,-0.008 0.05257,-0.12806 0.134752,-0.23212 0.234606,-0.33055 l 0.761286,-0.75212 c 0.04479,-0.1464 0.126656,-0.26141 0.220133,-0.36901 0.06032,-2.6e-4 0.134408,-0.0547 0.107606,-0.11112 -0.005,-0.018 0.01243,-0.0497 0.01667,-0.0684 0.08186,-0.043 0.127714,-0.13159 0.198278,-0.20108 l 0.775044,-0.76448 c 0.103373,-0.10195 0.220848,-0.17956 0.315728,-0.29351 0.04482,-0.054 0.104775,-0.0871 0.153828,-0.13617 0.04162,-0.0413 0.07054,-0.0804 0.12663,-0.0543 -0.06138,0.13265 -0.125942,0.26529 -0.14568,0.41875 -0.02717,0.20849 0.09207,0.36371 0.287153,0.41522 0.56126,0.14746 0.987425,-0.21766 1.492964,-0.46073 -0.113956,0.18168 -0.286464,0.28258 -0.372533,0.46602 0.02037,0.042 0.08713,0.0201 0.125571,-0.006 0.33655,-0.23177 0.994145,-0.90029 1.108445,-0.84702 0.08573,0.0402 -0.151341,0.29704 -0.206375,0.5133 -0.0045,0.0229 0.07654,0.0208 0.1016,-0.002 -0.02302,0.024 -0.03916,0.0734 -0.06705,0.10054 -0.270933,0.26599 -0.55208,0.48401 -0.870294,0.69497 l -1.594908,1.05798 -2.247186,1.4672 c -0.0026,0.005 -0.02823,0.008 -0.05575,0.0265 l -0.0522,0.0342 c -0.0029,-0.0176 -0.0064,-0.0349 -0.0098,-0.0522"
       style="fill:#201447 icc-color(Display, 0.11799622, 0.07798767, 0.26699829);fill-opacity:1;fill-rule:nonzero;stroke:none;stroke-width:0.352777" />
    <path
       id="path337"
       d="m 85.357007,155.18729 0.01244,0.0123 0.01191,-0.0123 -0.01191,-0.0124 z m 2.479675,-4.10563 c 0.256116,0.0346 0.23495,-0.22401 0.4191,-0.12594 0.164412,0.0878 0.3175,0.18027 0.43815,0.31821 0.08821,0.10018 0.10795,0.20567 0.106203,0.33655 -0.0074,0.48965 0.02858,0.97013 -0.115014,1.44427 -0.0621,0.2039 -0.189442,0.33655 -0.372533,0.43744 l -0.547502,0.30163 c -0.104088,0.0575 -0.115729,0.13582 -0.16899,0.23389 -0.0381,0.0705 -0.178858,0.12594 -0.267044,0.14217 -0.584914,0.10971 -1.100323,0.37535 -1.539531,0.75812 -0.0508,-0.0198 -0.04585,0.005 -0.02823,0.0198 l -0.06879,0.0621 -0.04479,-0.0621 c -0.04797,0.0381 -0.04657,0.0864 -0.02619,0.13123 -0.03844,0.0349 -0.116761,0.073 -0.142505,0.11289 -0.03106,0.049 -0.06387,0.10019 -0.09985,0.13865 -0.05043,-0.003 -0.12065,-0.0423 -0.106891,-0.0787 0.04762,-0.0762 0.06951,-0.13265 0.162983,-0.12383 0.02752,-0.10477 0.105489,-0.18062 0.1905,-0.24553 0.03,-0.10337 0.131604,-0.19897 0.154887,-0.18733 0.01244,0.006 0.02514,0.0247 0.03138,0.0416 l 0.04376,-0.23036 0.140044,-0.036 c 0.03493,-0.11782 0.138641,-0.18909 0.233891,-0.24412 0.0026,-0.0346 0.0061,-0.0818 0.01799,-0.1016 0.01058,-0.0173 0.06596,-0.0102 0.08644,-0.0275 l 0.243417,-0.20461 c -0.0074,-0.0169 -0.02223,-0.024 -0.04516,-0.042 0.02717,-0.0233 0.04974,-0.0674 0.08961,-0.0956 0.163327,-0.11536 0.4953,-0.47872 0.509746,-0.63818 0.06916,-0.76164 0.210609,-1.50847 0.519298,-2.20027 0.01376,0.10477 0.110067,0.15487 0.185552,0.1651"
       style="fill:#201447 icc-color(Display, 0.11799622, 0.07798767, 0.26699829);fill-opacity:1;fill-rule:nonzero;stroke:none;stroke-width:0.352777" />
    <path
       id="path338"
       d="m 84.429192,156.20586 -0.07866,0.0882 c -0.230002,0.20461 -0.443786,0.41416 -0.653336,0.63712 -0.07445,0.079 -0.103029,0.17039 -0.166873,0.25646 -0.07514,0.10055 -0.208491,0.19191 -0.304085,0.26811 -0.12065,0.0963 -0.109379,0.20426 -0.170392,0.31186 -0.08644,0.15311 -0.409575,0.33373 -0.314325,0.63641 0.08218,-0.043 0.127688,-0.13158 0.198252,-0.20073 l 0.775415,-0.76482 c 0.103346,-0.10195 0.220477,-0.17921 0.315383,-0.29351 0.04479,-0.054 0.105119,-0.0871 0.154146,-0.13617 0.04127,-0.0413 0.07022,-0.0804 0.126313,-0.0543 0.04373,-0.0949 0.144621,-0.18697 0.159437,-0.2854 0.0061,-0.0892 0.05503,-0.12559 0.100198,-0.20143 0.09419,-0.15805 0.169677,-0.3175 0.275881,-0.45968 -0.01058,-0.0667 0.01376,-0.13264 0.04797,-0.1972 l 0.173567,-0.34007 c -0.02302,0.018 -0.06562,0.0346 -0.102315,0.0713 l -0.166846,0.16792 c -0.04445,0.0445 -0.05363,0.0914 -0.09985,0.12806 -0.05432,0.043 -0.122052,0.18273 -0.204602,0.28575 -0.02037,0.0257 -0.02011,0.0769 -0.06527,0.0822"
       style="fill:#e10186 icc-color(Display, 0.80799866, 0.17298889, 0.51799011);fill-opacity:1;fill-rule:nonzero;stroke:none;stroke-width:0.352777" />
    <path
       id="path339"
       d="m 90.046508,151.63602 c 0.09173,-0.28046 0.277998,-0.51506 0.37854,-0.77364 -0.03175,0.0201 -0.1143,-0.0279 -0.122423,-0.06 -0.0093,-0.0367 -0.0064,-0.0878 0.03,-0.1337 l -0.04694,-0.1778 c -0.01508,-0.004 -0.03244,-0.0124 -0.04056,-0.0243 -0.01058,-0.0155 -0.0098,-0.0356 -0.0056,-0.0561 -0.01614,0.0219 -0.07937,0.0392 -0.08292,0.0667 0.01931,0.0709 0.04411,0.13441 0.01561,0.18909 l -0.357373,0.68862 c -0.01482,0.0286 -0.01455,0.0649 -0.004,0.0847 0.02619,0.0476 0.129117,0.0395 0.231405,0.0822 -0.01058,0.0416 -0.01402,0.0818 0.0042,0.1143"
       style="fill:#201447 icc-color(Display, 0.11799622, 0.07798767, 0.26699829);fill-opacity:1;fill-rule:nonzero;stroke:none;stroke-width:0.352777" />
    <path
       id="path340"
       d="m 85.307715,155.14993 -0.239527,0.32067 -0.173911,0.34008 c -0.03387,0.0646 -0.05821,0.13053 -0.04762,0.19756 0.17145,-0.22966 0.33618,-0.46673 0.532686,-0.67769 -0.05046,-0.003 -0.12065,-0.0423 -0.107236,-0.0787 0.04797,-0.0762 0.06985,-0.13264 0.163327,-0.12382 0.02752,-0.10478 0.105119,-0.18062 0.1905,-0.24553 0.02998,-0.10337 0.131234,-0.19897 0.154861,-0.18733 0.01244,0.006 0.02461,0.0247 0.03106,0.0416 l 0.04374,-0.23037 0.140044,-0.036 c 0.0353,-0.11783 0.139012,-0.18909 0.234262,-0.24412 0.0026,-0.0346 0.0056,-0.0819 0.01799,-0.1016 0.01058,-0.0173 0.06596,-0.0102 0.08641,-0.0275 l 0.243417,-0.20461 c -0.0077,-0.0169 -0.02249,-0.024 -0.04514,-0.042 -0.45085,0.38947 -0.867833,0.82162 -1.224862,1.29928"
       style="fill:#201447 icc-color(Display, 0.11799622, 0.07798767, 0.26699829);fill-opacity:1;fill-rule:nonzero;stroke:none;stroke-width:0.352777" />
    <path
       id="path341"
       d="m 84.429192,156.20586 c 0.04516,-0.005 0.04482,-0.0564 0.06527,-0.0822 0.08255,-0.10302 0.150283,-0.24272 0.204602,-0.28575 0.04622,-0.0367 0.0554,-0.0836 0.09985,-0.12806 l 0.166846,-0.16792 c 0.0367,-0.0367 0.07937,-0.0533 0.102315,-0.0713 L 85.307609,155.15 c -0.06313,2.7e-4 -0.08535,0.0776 -0.127688,0.11218 -0.07832,0.0642 -0.131604,0.12489 -0.19685,0.1965 -0.204973,0.22472 -0.470614,0.49142 -0.553879,0.74718"
       style="fill:#e10186 icc-color(Display, 0.80799866, 0.17298889, 0.51799011);fill-opacity:1;fill-rule:nonzero;stroke:none;stroke-width:0.352777" />
    <path
       id="path342"
       d="m 82.617564,158.58351 c 0.06032,-2.6e-4 0.134408,-0.0547 0.107606,-0.11112 -0.06173,0.018 -0.0776,0.0765 -0.107606,0.11112"
       style="fill:#e10186 icc-color(Display, 0.80799866, 0.17298889, 0.51799011);fill-opacity:1;fill-rule:nonzero;stroke:none;stroke-width:0.352777" />
    <path
       id="path343"
       d="m 85.703823,155.77068 c -0.320305,0.17956 -0.632513,0.37712 -0.947209,0.5849 -0.128058,0.0847 -0.184838,0.23284 -0.286094,0.31362 -0.01482,0.0984 -0.115702,0.19015 -0.159464,0.28505 -0.06138,0.13299 -0.125942,0.26564 -0.14568,0.4191 -0.02683,0.20849 0.09242,0.36371 0.287153,0.41486 0.56126,0.14782 0.987769,-0.21766 1.492964,-0.46073 -0.113612,0.18204 -0.28612,0.28293 -0.372533,0.46603 0.0209,0.042 0.08747,0.0205 0.125941,-0.006 0.33655,-0.23178 0.993775,-0.90029 1.108075,-0.84702 0.08572,0.0399 -0.151341,0.29704 -0.206375,0.51329 -0.0045,0.0226 0.07654,0.0208 0.101944,-0.002 0.545756,-0.43322 1.457325,-1.31692 1.582923,-2.00484 0.03175,-0.17392 -0.03318,-0.29669 -0.118189,-0.42298 -0.321019,-0.18062 -0.806794,-0.0286 -1.184275,0.11924 -0.450506,0.17674 -0.867119,0.39652 -1.279181,0.62759"
       style="fill:#201447 icc-color(Display, 0.11799622, 0.07798767, 0.26699829);fill-opacity:1;fill-rule:nonzero;stroke:none;stroke-width:0.352777" />
    <path
       id="path344"
       d="m 85.703823,155.77068 c 0.412062,-0.23107 0.828675,-0.45085 1.279181,-0.6276 0.377481,-0.14781 0.863256,-0.29986 1.184275,-0.11923 -0.06067,-0.09 -0.14994,-0.14852 -0.269875,-0.19544 -0.228256,-0.0815 -0.478023,-0.0963 -0.721069,-0.0825 -0.280115,0.13476 -0.514721,0.30832 -0.773298,0.47484 l -0.648758,0.47554 c -0.02858,0.0208 -0.05397,0.0321 -0.05046,0.0744"
       style="fill:#201447 icc-color(Display, 0.11799622, 0.07798767, 0.26699829);fill-opacity:1;fill-rule:nonzero;stroke:none;stroke-width:0.352777" />
    <path
       id="path345"
       d="m 89.669133,150.34217 c -0.03667,0.0695 -0.01482,0.15945 0.06244,0.20214 0.06138,0.0339 0.144303,0.0177 0.190156,-0.0466 0.04305,-0.0607 0.03633,-0.16368 -0.05114,-0.2159 -0.08009,-0.0476 -0.166159,-0.007 -0.201454,0.0603 m 0.327739,0.13476 c -0.03493,0.10689 -0.141472,0.16016 -0.244131,0.13794 -0.115702,-0.0254 -0.179546,-0.14147 -0.155919,-0.254 0.02143,-0.10372 0.125598,-0.18027 0.251884,-0.15029 0.134064,0.0318 0.182033,0.16122 0.148166,0.26635"
       style="fill:#fdfb76 icc-color(Display, 0.99198914, 0.98399353, 0.5369873);fill-opacity:1;fill-rule:nonzero;stroke:none;stroke-width:0.352777" />
    <path
       id="path346"
       d="m 85.621431,155.07913 c 0.02717,-0.0243 0.04516,-0.0462 0.07091,-0.0691 l -0.04479,-0.0624 c -0.04763,0.0381 -0.04657,0.0864 -0.02619,0.13159"
       style="fill:#e10186 icc-color(Display, 0.80799866, 0.17298889, 0.51799011);fill-opacity:1;fill-rule:nonzero;stroke:none;stroke-width:0.352777" />
    <path
       id="path347"
       d="m 85.761131,154.94789 c 0.0077,-0.007 0.01587,-0.0233 0.02857,-0.0198 -0.05114,-0.0198 -0.0462,0.005 -0.02857,0.0198"
       style="fill:#e10186 icc-color(Display, 0.80799866, 0.17298889, 0.51799011);fill-opacity:1;fill-rule:nonzero;stroke:none;stroke-width:0.352777" />
    <path
       id="path348"
       d="m 85.369204,155.17508 -0.01243,0.0124 0.01243,0.012 0.01244,-0.012 z"
       style="fill:#e10186 icc-color(Display, 0.80799866, 0.17298889, 0.51799011);fill-opacity:1;fill-rule:nonzero;stroke:none;stroke-width:0.352777" />
    <path
       id="path349"
       d="m 89.744989,150.37011 c -0.01455,0.031 -0.0026,0.0744 0.01878,0.0959 0.03527,0.0363 0.08538,0.0212 0.102659,-0.004 0.0268,-0.0391 0.02037,-0.0928 -0.02355,-0.11782 -0.0367,-0.0208 -0.08043,-0.0117 -0.09774,0.0254 m 0.176741,0.1277 c -0.04585,0.0642 -0.129116,0.0804 -0.190129,0.0466 -0.07726,-0.0427 -0.09914,-0.13265 -0.06244,-0.20214 0.03493,-0.067 0.121338,-0.10795 0.201427,-0.0603 0.0875,0.0522 0.09419,0.15522 0.05114,0.2159"
       style="fill:#201447 icc-color(Display, 0.11799622, 0.07798767, 0.26699829);fill-opacity:1;fill-rule:nonzero;stroke:none;stroke-width:0.352777" />
    <path
       id="path350"
       d="m 89.842594,150.34464 c -0.03633,-0.0208 -0.08043,-0.0113 -0.09771,0.0254 -0.01455,0.031 -0.0026,0.0748 0.01879,0.096 0.03527,0.0363 0.08573,0.0212 0.102658,-0.004 0.02715,-0.0392 0.02037,-0.0924 -0.02355,-0.11783"
       style="fill:#201447 icc-color(Display, 0.11799622, 0.07798767, 0.26699829);fill-opacity:1;fill-rule:nonzero;stroke:none;stroke-width:0.352777" />
    <path
       id="path351"
       d="m 85.748511,158.15531 c 0.168645,-0.10195 0.336206,-0.20531 0.499903,-0.31503 0.462836,-0.30938 1.067488,-0.74154 1.222719,-1.30386 0.08924,-0.32244 0.176398,-0.60854 0.155919,-0.94968 -0.01905,-0.3175 -0.107235,-0.63147 -0.263154,-0.90876 -0.186637,-0.33196 -0.678762,-0.7112 -1.081987,-0.58314 -0.08607,0.0272 -0.162269,0.0787 -0.232463,0.13582 -0.2794,0.22648 -0.470959,0.54046 -0.703448,0.81457 -0.318214,0.3757 -0.715089,0.67874 -1.032589,1.05515 -0.176028,0.2085 -0.484717,0.43392 -0.668496,0.64735 -0.186982,0.21731 -0.358432,0.33867 -0.564092,0.5401 -0.439923,0.43145 -0.869262,0.87948 -1.374775,1.23578 -0.144992,0.10231 -0.316812,0.24871 -0.266012,0.4191 0.03318,0.11219 0.159464,0.17569 0.276225,0.17428 0.117131,-10e-4 0.226854,-0.0529 0.331629,-0.10513 0.719296,-0.35842 1.402635,-0.78917 2.036577,-1.28341 -0.262123,0.24377 -0.523875,0.48789 -0.785627,0.73202 -0.109009,0.1016 -0.218388,0.28433 -0.102315,0.37782 0.02892,0.0233 0.06596,0.0328 0.102315,0.0409 0.853016,0.1898 1.702143,-0.27163 2.449671,-0.7239"
       style="fill:#90dcff icc-color(Display, 0.6309967, 0.85499573, 0.98399353);fill-opacity:1;fill-rule:nonzero;stroke:none;stroke-width:0.352777" />
    <path
       id="path352"
       d="m 87.736299,159.54738 c 0.0861,1.16981 0.170762,2.36714 -0.06948,3.50379 0.396161,0.22824 0.775759,0.49953 1.133475,0.80962 -0.391953,-0.23777 -0.797639,-0.43991 -1.21322,-0.60431 0.317156,0.25224 0.580337,0.60713 0.755306,1.01918 -0.2032,-0.20391 -0.413464,-0.39723 -0.630052,-0.57926 -0.225796,-0.18944 -0.470615,-0.37148 -0.74295,-0.39512 -0.256831,-0.0219 -0.50554,0.0991 -0.743665,0.21838 0.0776,-0.25048 0.305859,-0.38277 0.522103,-0.41381 0.21627,-0.0307 0.435345,0.0145 0.652647,-0.003 0.04516,-0.004 0.09348,-0.0116 0.128059,-0.048 0.133006,-0.13934 0.128772,-0.56691 0.131233,-0.75847 0.004,-0.30656 -0.03141,-0.61313 -0.09136,-0.91016 -0.09702,-0.47943 -0.257175,-0.93557 -0.422989,-1.38536 -0.0074,-0.0208 -0.01508,-0.043 -0.0127,-0.0656 0.0042,-0.0395 0.03739,-0.0628 0.06633,-0.0801 0.186955,-0.11113 0.364755,-0.24589 0.566208,-0.30374"
       style="fill:#201447 icc-color(Display, 0.11799622, 0.07798767, 0.26699829);fill-opacity:1;fill-rule:nonzero;stroke:none;stroke-width:0.352777" />
    <path
       id="path353"
       d="m 86.566258,159.70672 c 0.0861,1.16982 0.170763,2.36714 -0.06948,3.50379 0.39616,0.22825 0.775758,0.49954 1.133475,0.80963 -0.391954,-0.23777 -0.79764,-0.43992 -1.213221,-0.60431 0.317156,0.25224 0.580338,0.60713 0.755306,1.01918 -0.2032,-0.20391 -0.413464,-0.39723 -0.630052,-0.57926 -0.225795,-0.18945 -0.470614,-0.37148 -0.74295,-0.39512 -0.256831,-0.0219 -0.505539,0.0991 -0.743664,0.21837 0.0776,-0.25047 0.305858,-0.38276 0.522102,-0.4138 0.216271,-0.0307 0.435346,0.0145 0.652648,-0.003 0.04516,-0.004 0.09348,-0.0116 0.128058,-0.048 0.133006,-0.13934 0.128773,-0.56691 0.131233,-0.75847 0.004,-0.30656 -0.03141,-0.61313 -0.09136,-0.91017 -0.09702,-0.47942 -0.257175,-0.93556 -0.42299,-1.38535 -0.0074,-0.0208 -0.01508,-0.043 -0.0127,-0.0656 0.0042,-0.0395 0.03739,-0.0628 0.06633,-0.0801 0.186954,-0.11113 0.364754,-0.24589 0.566208,-0.30374"
       style="fill:#201447 icc-color(Display, 0.11799622, 0.07798767, 0.26699829);fill-opacity:1;fill-rule:nonzero;stroke:none;stroke-width:0.352777" />
    <path
       id="path354"
       d="m 90.066378,149.70135 c 0.134779,0.10089 0.355971,0.1591 0.471673,0.31044 l -0.298794,0.39864 c -0.0042,0.0205 -0.005,0.0406 0.0056,0.0561 0.0085,0.012 0.02567,0.0205 0.04056,0.0243 0.0494,0.005 0.09456,-0.012 0.143589,-0.0356 l 0.413809,-0.20038 1.489075,-0.70379 c 0.06702,-0.0318 0.124883,-0.0459 0.189097,-0.0423 l 0.01773,0.001 c -0.0087,-0.0173 -0.0032,-0.0406 0.01244,-0.0455 0.01402,-0.005 0.02858,-0.004 0.03881,-0.004 0.04162,0.003 0.130519,-0.0215 0.156263,-0.0723 -0.123454,-0.0109 -0.292788,-0.0335 -0.433916,-0.0198 -0.705538,0.0681 -1.390994,0.18803 -2.092325,0.29175 -0.06173,0.009 -0.112184,0.009 -0.153459,0.0413"
       style="fill:#90dcff icc-color(Display, 0.6309967, 0.85499573, 0.98399353);fill-opacity:1;fill-rule:nonzero;stroke:none;stroke-width:0.352777" />
    <path
       id="path355"
       d="m 90.285559,150.49083 0.04694,0.1778 c -0.03598,0.0459 -0.03916,0.097 -0.03,0.1337 0.0082,0.0321 0.09067,0.0801 0.122766,0.06 l 1.020604,-0.63464 0.98388,-0.62901 c 0.04233,-0.0272 0.2159,-0.10759 0.22225,-0.15698 -0.06419,-0.004 -0.253286,0.0776 -0.320305,0.10936 l -1.488731,0.70379 -0.414152,0.20038 c -0.04905,0.0236 -0.09385,0.0406 -0.143246,0.0356"
       style="fill:#90dcff icc-color(Display, 0.6309967, 0.85499573, 0.98399353);fill-opacity:1;fill-rule:nonzero;stroke:none;stroke-width:0.352777" />
    <path
       id="path356"
       d="m 90.537919,150.01172 -0.112871,0.8509 -0.310806,0.0938 v -0.72778 z"
       style="fill:#201447 icc-color(Display, 0.11799622, 0.07798767, 0.26699829);fill-opacity:1;fill-rule:nonzero;stroke:none;stroke-width:0.352777" />
  </g>
</svg>
