<?xml version="1.0" encoding="UTF-8" standalone="no"?>
<!-- Created with Inkscape (http://www.inkscape.org/) -->

<svg
   width="130.31233mm"
   height="38.384056mm"
   viewBox="0 0 130.31233 38.384056"
   version="1.1"
   id="svg1"
   inkscape:version="1.4.4 (dcaf3e7, 2026-05-05)"
   sodipodi:docname="ibis-flat.svg"
   xmlns:inkscape="http://www.inkscape.org/namespaces/inkscape"
   xmlns:sodipodi="http://sodipodi.sourceforge.net/DTD/sodipodi-0.dtd"
   xmlns="http://www.w3.org/2000/svg"
   xmlns:svg="http://www.w3.org/2000/svg">
  <sodipodi:namedview
     id="namedview1"
     pagecolor="#ffffff"
     bordercolor="#000000"
     borderopacity="0.25"
     inkscape:showpageshadow="2"
     inkscape:pageopacity="0.0"
     inkscape:pagecheckerboard="0"
     inkscape:deskcolor="#d1d1d1"
     inkscape:document-units="mm"
     inkscape:zoom="1.0164506"
     inkscape:cx="244.4782"
     inkscape:cy="-2.4595392"
     inkscape:window-width="1512"
     inkscape:window-height="916"
     inkscape:window-x="0"
     inkscape:window-y="38"
     inkscape:window-maximized="1"
     inkscape:current-layer="layer1" />
  <defs
     id="defs1">
    <clipPath
       clipPathUnits="userSpaceOnUse"
       id="clipPath52">
      <path
         d="M 0,0 H 1122.52 V 793.70133 H 0 Z"
         id="path52" />
    </clipPath>
    <clipPath
       clipPathUnits="userSpaceOnUse"
       id="clipPath1">
      <path
         d="M 0,0 H 1122.52 V 793.70133 H 0 Z"
         id="path1" />
    </clipPath>
    <clipPath
       clipPathUnits="userSpaceOnUse"
       id="clipPath2">
      <path
         d="M 0,0 H 1122.52 V 793.70133 H 0 Z"
         id="path2" />
    </clipPath>
    <clipPath
       clipPathUnits="userSpaceOnUse"
       id="clipPath3">
      <path
         d="M 0,0 H 1122.52 V 793.70133 H 0 Z"
         id="path3" />
    </clipPath>
    <clipPath
       clipPathUnits="userSpaceOnUse"
       id="clipPath4">
      <path
         d="M 0,0 H 1122.52 V 793.70133 H 0 Z"
         id="path4" />
    </clipPath>
    <clipPath
       clipPathUnits="userSpaceOnUse"
       id="clipPath5">
      <path
         d="M 0,0 H 1122.52 V 793.70133 H 0 Z"
         id="path5" />
    </clipPath>
    <clipPath
       clipPathUnits="userSpaceOnUse"
       id="clipPath6">
      <path
         d="M 0,0 H 1122.52 V 793.70133 H 0 Z"
         id="path6" />
    </clipPath>
    <clipPath
       clipPathUnits="userSpaceOnUse"
       id="clipPath7">
      <path
         d="M 0,0 H 1122.52 V 793.70133 H 0 Z"
         id="path7" />
    </clipPath>
  </defs>
  <g
     inkscape:label="Layer 1"
     inkscape:groupmode="layer"
     id="layer1"
     transform="translate(-43.391667,-129.38124)">
    <path
       id="path35"
       d="m 81.302615,161.03677 h -6.72853 v -6.72853 h 6.72853 z"
       style="fill:#0048ce icc-color(Display, 0.10198975, 0.27799988, 0.77598572);fill-opacity:1;fill-rule:nonzero;stroke:none;stroke-width:0.352778" />
    <path
       id="path36"
       d="m 88.031146,154.30789 h -6.728531 v -6.72853 h 6.728531 z"
       style="fill:#fd20a6 icc-color(Display, 0.9099884, 0.23899841, 0.63899231);fill-opacity:1;fill-rule:nonzero;stroke:none;stroke-width:0.352778" />
    <path
       id="path37"
       d="m 88.031146,161.03677 h -6.728531 v -6.72853 h 6.728531 z"
       style="fill:#a40000 icc-color(Display, 0.58799744, 0, 0);fill-opacity:1;fill-rule:nonzero;stroke:none;stroke-width:0.352778" />
    <path
       id="path38"
       d="m 88.031146,167.7653 h -6.728531 v -6.72853 h 6.728531 z"
       style="fill:#1c9347 icc-color(Display, 0.2749939, 0.56898499, 0.30999756);fill-opacity:1;fill-rule:nonzero;stroke:none;stroke-width:0.352778" />
    <path
       id="path39"
       d="m 81.302615,167.7653 h -6.72853 v -6.72853 h 6.72853 z"
       style="fill:#fd20a6 icc-color(Display, 0.9099884, 0.23899841, 0.63899231);fill-opacity:1;fill-rule:nonzero;stroke:none;stroke-width:0.352778" />
    <path
       id="path40"
       d="m 74.573733,167.7653 h -6.728531 v -6.72853 h 6.728531 z"
       style="fill:#ff7800 icc-color(Display, 1, 0.5059967, 0.06298828);fill-opacity:1;fill-rule:nonzero;stroke:none;stroke-width:0.352778" />
    <path
       id="path41"
       d="m 67.845205,161.03663 3.364441,-6.72853 3.364089,6.72853"
       style="fill:#ffd800 icc-color(Display, 0.98799133, 0.85499573, 0.28199768);fill-opacity:1;fill-rule:nonzero;stroke:none;stroke-width:0.352778" />
    <path
       id="path42"
       d="m 73.985231,147.27843 1.931458,-7.27075 4.657725,5.90762"
       style="fill:#ff7800 icc-color(Display, 1, 0.5059967, 0.06298828);fill-opacity:1;fill-rule:nonzero;stroke:none;stroke-width:0.352778" />
    <path
       id="path43"
       d="m 74.385633,132.11298 c -0.254353,-0.21943 -0.459669,-0.43709 -0.600781,-0.76623 -0.242358,-0.56621 -0.680861,-1.016 -1.159933,-1.40371 -0.88653,-0.7179 -1.840089,-0.75388 -2.763661,-0.0727 -1.230841,0.9077 -1.986491,2.08986 -1.972733,3.67383 0.0046,0.55527 0.01834,1.11054 0.02787,1.66546 0.194028,1.55611 -0.361244,2.7492 -1.495424,3.62444 l 0.201436,-0.0632 c 0.386644,-0.12594 0.626533,0.36125 0.464608,0.73414 l 0.442736,0.0649 c 0.09172,0.0138 0.147108,0.10936 0.112536,0.19579 l -0.232128,0.58102 0.571148,0.15946 c 0.09419,0.20143 -0.02152,0.38417 -0.189795,0.55139 0.601486,-0.28928 1.291519,-0.88865 1.719086,-1.36243 0.363361,-0.45755 0.437445,-1.01 0.518936,-1.56174 0.1016,-0.68722 0.161572,-1.38254 0.415925,-2.04012 0.159103,-0.41098 0.382764,-0.80257 0.859014,-0.79198 0.440972,0.01 0.859014,0.19226 1.105253,0.62406 1.394883,2.44687 1.873602,5.02708 1.150761,7.78722 -0.112536,0.42862 -0.229306,0.86289 -0.01129,1.33949 0.46355,-0.19967 0.503061,-0.65193 0.605367,-1.02199 0.775405,-2.80459 0.551391,-5.56049 -0.441325,-8.27617 -0.228953,-0.62548 -0.491773,-1.24778 -0.535517,-1.92405 -0.01023,-0.15311 0.0194,-0.35842 0.115358,-0.45755 0.143581,-0.14852 0.309386,0.0141 0.436386,0.10654 2.429228,1.77023 4.204406,3.96486 4.577645,7.06896 0.06703,0.55739 0.04374,1.10948 -0.02293,1.6644 -0.01976,0.16263 -0.02117,0.35913 0.199672,0.39335 0.198967,0.031 0.300567,-0.12771 0.358775,-0.28505 0.149578,-0.40251 0.102659,-0.82161 0.08361,-1.2386 -0.168275,-3.67136 -1.795992,-6.60435 -4.540603,-8.96902"
       style="fill:#041947 icc-color(Display, 0.0349884, 0.09799194, 0.26699829);fill-opacity:1;fill-rule:nonzero;stroke:none;stroke-width:0.352778" />
    <path
       id="path44"
       d="m 55.136526,147.98392 c -0.715081,0.99977 -1.361017,2.04717 -1.969558,3.11432 -0.602545,1.05622 -1.249892,2.13184 -1.747661,3.24132 0.9906,0.29845 2.05105,0.50553 3.063875,0.76236 1.058686,0.26846 2.116666,0.53904 3.176058,0.80539 0.50553,0.12841 1.015294,0.25788 1.483783,0.48683 0.900642,0.43921 1.59138,1.21462 2.176286,2.02847 0.629003,0.87489 1.177925,1.85808 1.261533,2.93265 -0.740127,-1.61502 -1.7272,-3.17148 -3.168297,-4.21076 0.832909,1.06998 1.279878,2.43346 1.241778,3.78848 -0.369711,-1.52541 -0.806803,-3.16124 -2.018947,-4.15854 -0.06138,-0.0505 -0.130528,-0.10125 -0.210256,-0.10301 -0.09525,-0.002 -0.176389,0.0663 -0.244122,0.13335 -0.840669,0.83114 -1.186392,2.02635 -1.500364,3.16618 -0.0194,-1.19663 0.392995,-2.39572 1.144411,-3.3274 -2.298347,-0.16969 -4.566355,-0.73943 -6.67138,-1.67676 -0.146403,-0.0649 -0.303036,-0.14252 -0.371475,-0.28751 -0.155222,-0.32703 0.07655,-0.84702 0.195792,-1.15182 0.161219,-0.4131 0.37218,-0.80504 0.587375,-1.19239 0.990952,-1.78435 2.091619,-3.50837 3.29318,-5.15867"
       style="fill:#0048ce icc-color(Display, 0.10198975, 0.27799988, 0.77598572);fill-opacity:1;fill-rule:nonzero;stroke:none;stroke-width:0.352778" />
    <path
       id="path45"
       d="m 56.755811,150.29747 c -0.403931,1.87466 -0.808919,3.7525 -1.382183,5.58271 -0.0822,0.26211 -0.168275,0.52634 -0.187678,0.8001 -0.01905,0.26987 0.02716,0.53975 0.07161,0.8068 0.461786,2.76684 0.762,5.56084 0.898878,8.36295 1.56598,-1.00718 3.704872,-1.04034 5.301191,-0.0822 -1.700389,-0.3182 -3.501319,-0.51329 -5.12445,0.0847 1.700389,-0.26353 3.492853,0.11747 4.939242,1.04951 -1.500364,-0.62124 -3.147836,-0.88441 -4.767086,-0.76094 0.918986,0.13441 1.818216,0.40111 2.661708,0.78952 0.371475,0.17145 0.764117,0.40181 0.892528,0.79022 -2.348089,-1.52823 -5.46735,-1.79599 -8.041569,-0.69039 0.219427,-0.28081 0.583847,-0.39828 0.927452,-0.49318 0.729898,-0.20179 1.468967,-0.3683 2.2098,-0.52564 0.229659,-0.049 0.464961,-0.11606 0.695325,-0.15099 -0.26423,-2.24825 -0.529166,-4.49756 -0.906286,-6.72958 -0.1143,-0.67628 -0.239183,-1.35397 -0.246944,-2.03977 -0.02611,-2.29693 1.255536,-4.44394 1.314097,-6.74052"
       style="fill:#0048ce icc-color(Display, 0.10198975, 0.27799988, 0.77598572);fill-opacity:1;fill-rule:nonzero;stroke:none;stroke-width:0.352778" />
    <path
       id="path46"
       d="m 66.18468,139.01232 c -0.376767,0.25929 -0.711906,0.46002 -1.107722,0.31997 -0.39617,-0.14005 -0.708378,-0.44203 -1.044575,-0.69391 -1.160286,-0.87066 -2.670881,-1.17017 -4.120092,-1.10667 -1.449211,0.0632 -2.860674,0.46073 -4.253441,0.86678 -0.911931,0.26599 -1.82633,0.53834 -2.687108,0.9398 -0.865364,0.40393 -1.66617,0.93345 -2.439458,1.49366 -2.589036,1.87642 -4.909256,4.12362 -6.867525,6.65127 -0.144639,0.18662 -0.292806,0.3877 -0.270933,0.63888 0.0127,0.14711 0.108655,0.28187 0.25153,0.31997 0.407811,0.10901 0.562681,-0.61101 0.97402,-0.70873 -0.3429,0.2667 -0.470959,0.7754 -0.295275,1.17228 0.523169,-0.1016 1.008591,-0.38594 1.353255,-0.79269 l 0.03528,0.5087 c 0.72143,0.3616 1.42628,-0.98989 2.183694,-0.71155 -0.08678,0.12665 -0.01199,0.31186 0.116064,0.39652 0.128058,0.0843 0.289278,0.0952 0.442383,0.10372 2.361142,0.12876 4.722636,0.25788 7.083778,0.387 0.03986,0.43815 -0.03316,0.87947 -0.0088,1.31868 0.03351,0.60254 0.29845,1.26012 1.036461,1.32539 0.267406,0.0236 0.53587,-0.0445 0.771525,-0.17322 0.632884,-0.34643 0.974373,-0.98107 1.419931,-1.51553 1.05798,-1.26824 2.652889,-1.92581 4.119739,-2.68499 1.466849,-0.75953 2.96051,-1.78717 3.459338,-3.36162 0.236361,-0.74613 0.264231,-1.62984 0.850547,-2.14807 0.281164,-0.24835 0.716139,-0.5341 0.557742,-0.87347 l -0.571147,-0.15946 0.232128,-0.58102 c 0.03457,-0.0864 -0.02081,-0.18204 -0.112537,-0.1958 l -0.442736,-0.0649 c 0.161925,-0.37288 -0.07796,-0.86007 -0.464608,-0.73413"
       style="fill:#449dff icc-color(Display, 0.36099243, 0.60798645, 1);fill-opacity:1;fill-rule:nonzero;stroke:none;stroke-width:0.352778" />
    <path
       id="path47"
       d="m 72.497109,131.73222 c 0,0.3556 -0.288219,0.64382 -0.643819,0.64382 -0.3556,0 -0.64382,-0.28822 -0.64382,-0.64382 0,-0.3556 0.28822,-0.64382 0.64382,-0.64382 0.3556,0 0.643819,0.28822 0.643819,0.64382"
       style="fill:#ffd800 icc-color(Display, 0.98799133, 0.85499573, 0.28199768);fill-opacity:1;fill-rule:nonzero;stroke:none;stroke-width:0.352778" />
    <path
       id="path48"
       d="m 72.323436,131.86928 c 0,0.12982 -0.105128,0.23495 -0.23495,0.23495 -0.129822,0 -0.235303,-0.10513 -0.235303,-0.23495 0,-0.12982 0.105481,-0.23495 0.235303,-0.23495 0.129822,0 0.23495,0.10513 0.23495,0.23495"
       style="fill:#041947 icc-color(Display, 0.0349884, 0.09799194, 0.26699829);fill-opacity:1;fill-rule:nonzero;stroke:none;stroke-width:0.352778" />
    <path
       id="path49"
       d="m 90.889424,155.29674 v -6.02341 c 0,-0.0909 0,-0.15709 0,-0.19843 0,-0.0434 0,-0.10749 0,-0.19017 0,-0.0847 0,-0.14573 0,-0.1819 0,-0.0383 0,-0.0961 0,-0.17364 v -1.21956 c 1.493449,-0.10129 2.666504,-0.093 3.518131,0.0248 0.853695,0.11886 1.467611,0.34623 1.839681,0.68213 0.374138,0.33383 0.578776,0.80409 0.611849,1.40973 0.0083,0.41135 -0.03721,0.76792 -0.136426,1.07074 -0.0083,0.0579 -0.0279,0.11782 -0.05788,0.17777 -0.03101,0.0579 -0.05788,0.11575 -0.08268,0.17363 l -0.03721,0.062 c -0.0248,0.0362 -0.04961,0.0703 -0.07441,0.10335 -0.05271,0.0744 -0.107488,0.14056 -0.165365,0.19844 -0.168465,0.17673 -0.345199,0.29972 -0.529167,0.36794 0.344165,0.0579 0.622185,0.26665 0.835091,0.62425 0.214974,0.35553 0.293522,0.87023 0.235645,1.54202 -0.07441,0.74724 -0.460954,1.28055 -1.157552,1.59991 -0.08578,0.0331 -0.167432,0.062 -0.243913,0.0868 -0.07441,0.0248 -0.148828,0.0455 -0.223242,0.062 -0.102319,0.0196 -0.176733,0.0362 -0.223242,0.0496 -0.04444,0.0114 -0.113688,0.0248 -0.206706,0.0413 -0.275952,0.0496 -0.540535,0.0651 -0.79375,0.0496 h -3.108854 z m 2.265495,-1.43867 c 0.344165,0.008 0.637687,-0.0413 0.880566,-0.14883 0.244946,-0.10956 0.367936,-0.28216 0.367936,-0.51677 0.0083,-0.2005 -0.03927,-0.36897 -0.14056,-0.50436 -0.08268,-0.10955 -0.192236,-0.17777 -0.326595,-0.20257 -0.09922,-0.0331 -0.208772,-0.0496 -0.326595,-0.0496 -0.160197,0.008 -0.312125,0.0289 -0.454752,0.062 z m 0,-3.26182 c 0.344165,0.0331 0.636653,-0.006 0.876432,-0.11989 0.239779,-0.11265 0.359668,-0.32039 0.359668,-0.62425 0,-0.3328 -0.119889,-0.55604 -0.359668,-0.66973 -0.239779,-0.11575 -0.532267,-0.14262 -0.876432,-0.0827 z m 4.636409,3.35277 c 0,-0.0847 0.001,-0.14573 0.0041,-0.1819 0.0052,-0.0383 0.0083,-0.0961 0.0083,-0.17364 v -0.0124 c 0,-0.0744 10e-4,-0.12816 0.0041,-0.16123 0.0052,-0.0351 0.0083,-0.0868 0.0083,-0.15296 l 0.190169,-5.25033 0.0124,-0.35553 0.0124,-0.339 0.289388,-0.0124 0.388606,-0.0124 c 1.200961,-0.0413 2.226229,-0.0331 3.075789,0.0248 0.87332,0.0579 1.51308,0.30385 1.91822,0.73587 0.40722,0.43305 0.61185,1.09037 0.61185,1.97197 0,0.63149 -0.16433,1.19063 -0.49196,1.67845 -0.32557,0.48576 -0.72347,0.86713 -1.19476,1.14515 l 1.9389,2.48047 -0.678,0.0744 -0.56637,0.062 -0.62012,0.0785 -0.47542,0.0496 -0.35554,0.0496 -0.3762,-0.55397 c -0.0662,-0.10128 -0.13849,-0.20257 -0.21497,-0.30179 -0.0496,-0.0765 -0.0992,-0.14883 -0.14883,-0.21497 l -0.93432,-1.36012 -0.202564,2.36885 h -2.253092 z m 2.596222,-2.88562 c 0.44339,0.0165 0.82062,-0.0393 1.13275,-0.16949 0.31109,-0.1292 0.46715,-0.3452 0.46715,-0.64906 0,-0.21704 -0.093,-0.39791 -0.27698,-0.54157 -0.094,-0.0848 -0.22118,-0.14883 -0.38034,-0.19017 -0.0331,-0.008 -0.0661,-0.0165 -0.0992,-0.0248 -0.0661,-0.0165 -0.13436,-0.0289 -0.20257,-0.0372 -0.21808,-0.0413 -0.43202,-0.0537 -0.64079,-0.0372 z m 4.93613,1.68672 c 0,-0.14262 0,-0.28525 0,-0.42581 0,-0.12609 0,-0.24908 0,-0.36794 v -4.58473 h 2.58383 l -0.0289,0.75654 -0.0124,0.40101 -0.0124,0.42995 -0.16123,4.71289 c 0,0.0992 -0.003,0.1726 -0.008,0.21911 -0.003,0.0475 -0.004,0.11575 -0.004,0.2067 0,0.10232 -0.004,0.20258 -0.0124,0.30179 l -0.0537,1.2361 h -2.2903 z m 6.10816,2.93522 c -0.29249,0 -0.54881,-0.0217 -0.76895,-0.062 -0.0827,-0.008 -0.16433,-0.0207 -0.24391,-0.0372 -0.0806,-0.0165 -0.16123,-0.0372 -0.24391,-0.062 -0.185,-0.0517 -0.32453,-0.0951 -0.41755,-0.12815 -0.39481,-0.14263 -0.75964,-0.32763 -1.09554,-0.55398 l 0.16537,-0.33899 0.18603,-0.39274 0.19017,-0.37621 0.19017,-0.36793 0.19844,-0.41342 0.0413,0.0496 c 0.12402,0.19327 0.31109,0.37001 0.56224,0.52917 0.25321,0.1602 0.5519,0.23978 0.8971,0.23978 0.28629,0 0.51263,-0.0765 0.678,-0.23151 0.16743,-0.1571 0.25218,-0.3607 0.25218,-0.61185 0,-0.23358 -0.0806,-0.40721 -0.23978,-0.5209 -0.1571,-0.11575 -0.42478,-0.23978 -0.80202,-0.37207 -0.11059,-0.0351 -0.22118,-0.0713 -0.33073,-0.10749 -0.10749,-0.0382 -0.22117,-0.0827 -0.339,-0.13229 -0.11885,-0.0434 -0.23357,-0.0961 -0.34313,-0.15709 -0.10749,-0.0631 -0.21084,-0.13746 -0.31006,-0.22325 -0.0527,-0.0413 -0.10232,-0.0848 -0.14882,-0.13229 -0.0444,-0.0465 -0.0868,-0.0992 -0.12816,-0.15709 -0.24598,-0.3111 -0.36794,-0.72141 -0.36794,-1.23197 0,-0.54777 0.1571,-1.0356 0.47129,-1.46348 0.31626,-0.42684 0.73277,-0.75757 1.2485,-0.99218 0.5178,-0.23668 1.07074,-0.35554 1.65778,-0.35554 0.43512,0 0.86507,0.0744 1.28985,0.22324 0.42374,0.14677 0.81235,0.36174 1.16582,0.64493 l -0.19017,0.27698 -0.25218,0.39274 -0.25218,0.3638 -0.26459,0.39275 -0.18603,0.28938 -0.062,-0.0661 c -0.1354,-0.11576 -0.29559,-0.21498 -0.47956,-0.29766 -0.185,-0.0847 -0.40825,-0.12816 -0.66973,-0.12816 -0.25941,0 -0.46302,0.0682 -0.61185,0.20258 -0.14676,0.13229 -0.21911,0.31729 -0.21911,0.55397 0,0.20154 0.0682,0.34933 0.20671,0.44235 0.14056,0.0909 0.36897,0.19017 0.68626,0.29765 0.22841,0.0693 0.43615,0.14676 0.62425,0.23151 0.19017,0.0827 0.36897,0.18604 0.53744,0.31006 0.0413,0.0362 0.0827,0.0734 0.12402,0.11162 0.0413,0.0362 0.0837,0.0744 0.12816,0.11576 0.0496,0.0527 0.0971,0.11059 0.14469,0.17363 0.0465,0.061 0.0909,0.12609 0.1323,0.1943 0.18396,0.35347 0.27698,0.77205 0.27698,1.25678 0,0.56534 -0.13952,1.04386 -0.41754,1.43453 -0.27596,0.38861 -0.64803,0.6842 -1.11621,0.8847 -0.46613,0.20154 -0.98392,0.30179 -1.55443,0.30179 z m 4.0442,-0.3886 v -6.02341 c 0,-0.0909 0,-0.15709 0,-0.19843 0,-0.0434 0,-0.10749 0,-0.19017 0,-0.0847 0,-0.14573 0,-0.1819 0,-0.0383 0,-0.0961 0,-0.17364 v -1.21956 c 1.49344,-0.10129 2.6665,-0.093 3.51813,0.0248 0.85369,0.11886 1.46761,0.34623 1.83968,0.68213 0.37414,0.33383 0.57877,0.80409 0.61185,1.40973 0.008,0.41135 -0.0372,0.76792 -0.13643,1.07074 -0.008,0.0579 -0.0279,0.11782 -0.0579,0.17777 -0.031,0.0579 -0.0579,0.11575 -0.0827,0.17363 l -0.0372,0.062 c -0.0248,0.0362 -0.0496,0.0703 -0.0744,0.10335 -0.0527,0.0744 -0.10749,0.14056 -0.16536,0.19844 -0.16847,0.17673 -0.3452,0.29972 -0.52917,0.36794 0.34416,0.0579 0.62218,0.26665 0.83509,0.62425 0.21497,0.35553 0.29352,0.87023 0.23564,1.54202 -0.0744,0.74724 -0.46095,1.28055 -1.15755,1.59991 -0.0858,0.0331 -0.16743,0.062 -0.24391,0.0868 -0.0744,0.0248 -0.14883,0.0455 -0.22324,0.062 -0.10232,0.0196 -0.17674,0.0362 -0.22324,0.0496 -0.0445,0.0114 -0.11369,0.0248 -0.20671,0.0413 -0.27595,0.0496 -0.54054,0.0651 -0.79375,0.0496 h -3.10885 z m 2.26549,-1.43867 c 0.34417,0.008 0.63769,-0.0413 0.88057,-0.14883 0.24494,-0.10956 0.36793,-0.28216 0.36793,-0.51677 0.008,-0.2005 -0.0393,-0.36897 -0.14056,-0.50436 -0.0827,-0.10955 -0.19223,-0.17777 -0.32659,-0.20257 -0.0992,-0.0331 -0.20877,-0.0496 -0.3266,-0.0496 -0.16019,0.008 -0.31212,0.0289 -0.45475,0.062 z m 0,-3.26182 c 0.34417,0.0331 0.63665,-0.006 0.87643,-0.11989 0.23978,-0.11265 0.35967,-0.32039 0.35967,-0.62425 0,-0.3328 -0.11989,-0.55604 -0.35967,-0.66973 -0.23978,-0.11575 -0.53226,-0.14262 -0.87643,-0.0827 z m 5.48184,-0.64079 c 0.0248,-0.0765 0.0455,-0.15296 0.062,-0.22737 0.0165,-0.0414 0.0289,-0.0837 0.0372,-0.12816 0.0248,-0.0744 0.0455,-0.14883 0.062,-0.22324 0.0165,-0.0434 0.0289,-0.0868 0.0372,-0.12816 l 0.49196,-1.86449 h 2.88562 l 1.43453,5.89525 c 0.0165,0.0413 0.03,0.0889 0.0413,0.14056 0,0.0248 0.008,0.0703 0.0248,0.13643 0.0248,0.10231 0.0496,0.20257 0.0744,0.30179 l 0.44235,1.81487 h -2.4846 l -0.27699,-1.36012 h -1.78594 l -0.26458,1.36012 h -2.30684 z m 2.48047,1.85208 -0.3266,-1.72805 h -0.20257 l -0.3514,1.72805 z m 3.61424,-0.85989 c 0,-0.091 0,-0.1571 0,-0.19844 0,-0.0434 0,-0.10749 0,-0.19017 0,-0.0744 0,-0.13022 0,-0.1695 0,-0.0382 0,-0.0951 0,-0.1695 v -2.8732 h 2.22829 l 1.38493,3.42718 h 0.091 l 0.21084,-3.42718 0.47956,-0.0124 h 0.97151 l 0.52917,0.0124 v 1.2361 c 0,0.0992 0,0.17259 0,0.2191 0,0.0476 0,0.11576 0,0.20671 0,0.0858 0,0.14883 0,0.19017 0,0.0413 0,0.10542 0,0.19017 v 4.09277 c 0,0.11059 0,0.21911 0,0.3266 0,0.0941 0,0.16123 0,0.20257 0,0.0413 0,0.10955 0,0.20257 v 1.43454 h -1.98024 l -1.81074,-3.64216 -0.10335,-0.0124 -0.22325,3.65456 h -1.77767 z m 6.94015,2.8484 c 0.008,-0.0992 0.0124,-0.17156 0.0124,-0.2191 0,-0.0465 0.004,-0.12093 0.0124,-0.22325 v -0.0124 c 0.008,-0.11575 0.0124,-0.20257 0.0124,-0.26045 0,-0.0599 0.004,-0.14986 0.0124,-0.26872 l 0.14056,-5.32473 1.02112,-0.0538 c 0.13229,-0.008 0.26149,-0.0124 0.38861,-0.0124 0.11782,-0.008 0.2036,-0.0124 0.25631,-0.0124 0.0548,0 0.13746,-0.004 0.24805,-0.0124 l 2.92282,-0.12402 v 2.01331 l -2.72025,0.11576 v 1.39733 h 1.69912 v 1.5999 l -1.69912,0.0248 v 1.16996 h 1.24437 c 0.1509,0 0.30283,0 0.45475,0 0.14263,0 0.28216,0 0.41755,0 h 0.60358 v 2.01745 h -5.06429 z m 9.97562,0.57878 c -0.0165,-0.0992 -0.0279,-0.17157 -0.0331,-0.21911 -0.003,-0.0465 -0.0124,-0.11575 -0.0289,-0.2067 v -0.0248 c -0.0165,-0.10128 -0.0279,-0.1757 -0.0331,-0.22324 -0.006,-0.0465 -0.0165,-0.11576 -0.0331,-0.20671 l -1.04599,-6.19703 h 2.34404 l 0.339,3.2122 h 0.0661 l 0.36381,-0.93431 c 0.0331,-0.0827 0.062,-0.16226 0.0868,-0.23978 0.0269,-0.0744 0.0496,-0.12815 0.0661,-0.16123 0.0166,-0.0331 0.0372,-0.0879 0.062,-0.16536 l 0.59118,-1.52135 0.45475,-0.0165 0.43822,-0.0124 0.60771,-0.0248 0.88057,2.94763 h 0.062 l 1.02113,-3.08405 h 2.16627 l -0.84336,4.04316 c -0.0165,0.0744 -0.0331,0.1509 -0.0496,0.22738 -0.0248,0.10748 -0.0558,0.22117 -0.0909,0.33899 l -0.84336,3.74138 h -2.00091 l -1.02112,-3.77858 h -0.12403 l -1.04593,3.77858 h -2.16627 z m 9.04337,-0.57878 c 0.008,-0.0992 0.0124,-0.17156 0.0124,-0.2191 0,-0.0465 0.004,-0.12093 0.0124,-0.22325 v -0.0124 c 0.008,-0.11575 0.0124,-0.20257 0.0124,-0.26045 0,-0.0599 0.004,-0.14986 0.0124,-0.26872 l 0.14056,-5.32473 1.02112,-0.0538 c 0.13229,-0.008 0.26149,-0.0124 0.38861,-0.0124 0.11782,-0.008 0.2036,-0.0124 0.25631,-0.0124 0.0548,0 0.13746,-0.004 0.24805,-0.0124 l 2.92282,-0.12402 v 2.01331 l -2.72025,0.11576 v 1.39733 h 1.69912 v 1.5999 l -1.69912,0.0248 v 1.16996 h 1.24437 c 0.1509,0 0.30282,0 0.45475,0 0.14263,0 0.28216,0 0.41755,0 h 0.60358 v 2.01745 H 155.24 Z m 8.55142,1.88929 c -0.29249,0 -0.5488,-0.0217 -0.76895,-0.062 -0.0827,-0.008 -0.16433,-0.0207 -0.24391,-0.0372 -0.0806,-0.0165 -0.16123,-0.0372 -0.24391,-0.062 -0.185,-0.0517 -0.32453,-0.0951 -0.41755,-0.12815 -0.39481,-0.14263 -0.75964,-0.32763 -1.09554,-0.55398 l 0.16537,-0.33899 0.18603,-0.39274 0.19017,-0.37621 0.19017,-0.36793 0.19844,-0.41342 0.0413,0.0496 c 0.12402,0.19327 0.31109,0.37001 0.56224,0.52917 0.25321,0.1602 0.5519,0.23978 0.8971,0.23978 0.28629,0 0.51263,-0.0765 0.678,-0.23151 0.16743,-0.1571 0.25218,-0.3607 0.25218,-0.61185 0,-0.23358 -0.0806,-0.40721 -0.23978,-0.5209 -0.1571,-0.11575 -0.42478,-0.23978 -0.80202,-0.37207 -0.11059,-0.0351 -0.22118,-0.0713 -0.33073,-0.10749 -0.10749,-0.0382 -0.22118,-0.0827 -0.339,-0.13229 -0.11885,-0.0434 -0.23357,-0.0961 -0.34313,-0.15709 -0.10749,-0.0631 -0.21084,-0.13746 -0.31006,-0.22325 -0.0527,-0.0413 -0.10232,-0.0848 -0.14883,-0.13229 -0.0444,-0.0465 -0.0868,-0.0992 -0.12815,-0.15709 -0.24598,-0.3111 -0.36794,-0.72141 -0.36794,-1.23197 0,-0.54777 0.1571,-1.0356 0.47129,-1.46348 0.31626,-0.42684 0.73277,-0.75757 1.2485,-0.99218 0.5178,-0.23668 1.07074,-0.35554 1.65778,-0.35554 0.43512,0 0.86507,0.0744 1.28985,0.22324 0.42374,0.14677 0.81235,0.36174 1.16582,0.64493 l -0.19017,0.27698 -0.25218,0.39274 -0.25218,0.3638 -0.26459,0.39275 -0.18603,0.28938 -0.062,-0.0661 c -0.13539,-0.11576 -0.29558,-0.21498 -0.47955,-0.29766 -0.18501,-0.0847 -0.40825,-0.12816 -0.66973,-0.12816 -0.25941,0 -0.46302,0.0682 -0.61185,0.20258 -0.14676,0.13229 -0.21911,0.31729 -0.21911,0.55397 0,0.20154 0.0682,0.34933 0.20671,0.44235 0.14056,0.0909 0.36897,0.19017 0.68626,0.29765 0.22841,0.0693 0.43615,0.14676 0.62425,0.23151 0.19017,0.0827 0.36897,0.18604 0.53744,0.31006 0.0413,0.0362 0.0827,0.0734 0.12402,0.11162 0.0413,0.0362 0.0837,0.0744 0.12816,0.11576 0.0496,0.0527 0.0971,0.11059 0.14469,0.17363 0.0465,0.061 0.0909,0.12609 0.1323,0.1943 0.18396,0.35347 0.27698,0.77205 0.27698,1.25678 0,0.56534 -0.13952,1.04386 -0.41755,1.43453 -0.27594,0.38861 -0.64802,0.6842 -1.11621,0.8847 -0.46612,0.20154 -0.98391,0.30179 -1.55442,0.30179 z m 5.60482,-3.8778 c 0,-0.10955 0,-0.19223 0,-0.24804 0,-0.0548 0,-0.13643 0,-0.24391 0,-0.0847 0,-0.14573 0,-0.18191 0,-0.0382 0,-0.10025 0,-0.18603 v -1.14515 h -1.68672 v -2.39365 l 3.19981,-0.0496 c 0.15089,0 0.30282,0 0.45475,0 0.1571,-0.008 0.31523,-0.0124 0.47543,-0.0124 l 1.82727,-0.0248 v 2.45566 l -1.85208,0.0248 -0.0868,4.08037 c 0,0.10232 -0.003,0.17673 -0.008,0.22324 -0.003,0.0475 -0.004,0.11989 -0.004,0.21911 0,0.0941 -0.003,0.16123 -0.008,0.20257 -0.003,0.0413 -0.004,0.10542 -0.004,0.19017 l -0.0124,0.93018 h -2.29443 z m 0,0"
       style="fill:#041947 icc-color(Display, 0.0349884, 0.09799194, 0.26699829);fill-opacity:1;fill-rule:nonzero;stroke:none;stroke-width:0.352778"
       aria-label="BrisBane WesT" />
    <path
       id="path50"
       d="m 92.675361,162.83115 c 0,-0.12919 0,-0.22531 0,-0.28939 0,-0.0661 0,-0.16329 0,-0.29352 0,-0.0992 0,-0.17053 0,-0.21497 0,-0.0434 0,-0.11576 0,-0.21498 v -1.35185 h -1.992643 v -2.8236 l 3.774447,-0.062 c 0.1788,0 0.356567,0 0.5333,0 0.19017,-0.008 0.378272,-0.0124 0.566374,-0.0124 l 2.153874,-0.0289 v 2.89801 l -2.182812,0.0289 -0.103353,4.81624 c 0,0.11886 -0.0031,0.20567 -0.0083,0.26045 -0.0062,0.0527 -0.0083,0.13953 -0.0083,0.26045 0,0.10749 -0.0031,0.18604 -0.0083,0.23564 -0.0031,0.0496 -0.0041,0.12403 -0.0041,0.22325 l -0.01653,1.09967 h -2.703711 z m 9.630419,4.53099 c -0.53537,0.0103 -1.03146,-0.0723 -1.48828,-0.25218 -0.45475,-0.1788 -0.855762,-0.43615 -1.203028,-0.77308 -0.118855,-0.10955 -0.237711,-0.23978 -0.355533,-0.3886 -0.04961,-0.0682 -0.09922,-0.13746 -0.148828,-0.20671 -0.04961,-0.0682 -0.09922,-0.14263 -0.148828,-0.22324 -0.535369,-0.87023 -0.802019,-1.9265 -0.802019,-3.16673 0,-0.82063 0.188102,-1.61748 0.566374,-2.38952 0.02687,-0.0682 0.05994,-0.13436 0.09922,-0.19844 0.04134,-0.0662 0.08062,-0.13333 0.119889,-0.20257 0.07958,-0.14056 0.159163,-0.26458 0.239779,-0.37207 0.415478,-0.57568 0.913634,-1.03146 1.492414,-1.36839 0.58084,-0.3359 1.19269,-0.50437 1.83555,-0.50437 0.50643,0 0.98805,0.0992 1.4428,0.29766 0.06,0.0196 0.11679,0.0444 0.1695,0.0744 0.0548,0.0279 0.11266,0.0568 0.17363,0.0868 0.0496,0.0196 0.093,0.0444 0.1323,0.0744 0.0382,0.031 0.0785,0.061 0.11989,0.091 l 0.29765,0.22324 0.25218,0.22324 c 0.5147,0.48576 0.91571,1.08727 1.20303,1.80661 0.28629,0.71727 0.41961,1.47588 0.40101,2.27789 -0.0196,0.96222 -0.21498,1.80661 -0.58705,2.53422 -0.37207,0.7276 -0.8878,1.29811 -1.54615,1.71152 -0.6594,0.41134 -1.41387,0.62632 -2.2655,0.64492 z m 0.0165,-2.58795 c 0.44338,0.0114 0.83509,-0.19637 1.17408,-0.62425 0.0465,-0.0682 0.0889,-0.13746 0.12816,-0.20671 0.0413,-0.0682 0.0827,-0.14263 0.12403,-0.22324 0.0992,-0.22531 0.15812,-0.42375 0.17776,-0.59532 0.0186,-0.11782 0.0382,-0.26561 0.0579,-0.44235 v -0.14882 c 0.0103,-0.64493 -0.12299,-1.19166 -0.40101,-1.64125 -0.27905,-0.45165 -0.62012,-0.69246 -1.02526,-0.72347 -0.25631,-0.0186 -0.51676,0.0775 -0.78135,0.28939 -0.26251,0.21291 -0.47749,0.50746 -0.64492,0.8847 -0.16846,0.37827 -0.25218,0.77515 -0.25218,1.19063 0,0.63458 0.13746,1.16168 0.41341,1.58336 0.27802,0.41962 0.62115,0.63872 1.0294,0.65733 z m 7.2347,1.33945 c 0,-0.0992 0,-0.17363 0,-0.22324 0,-0.0496 0,-0.12403 0,-0.22324 0,-0.0992 0,-0.17054 0,-0.21498 0,-0.0434 0,-0.11575 0,-0.21497 v -1.29398 l -1.94717,-3.81992 c -0.0393,-0.0879 -0.0703,-0.1509 -0.0951,-0.19017 -0.0248,-0.0413 -0.0579,-0.10129 -0.0992,-0.1819 -0.0496,-0.10749 -0.10336,-0.21601 -0.16123,-0.3266 l -0.8475,-1.66191 h 2.80707 l 1.53375,2.72025 1.75287,-2.72025 h 2.97243 l -1.29398,2.22829 c -0.0496,0.0806 -0.0847,0.14262 -0.10336,0.18603 -0.0196,0.0444 -0.0537,0.10645 -0.10335,0.18604 -0.0496,0.0806 -0.0847,0.14262 -0.10335,0.18603 -0.0196,0.0444 -0.0537,0.10646 -0.10335,0.18604 l -1.62058,2.79052 -0.0331,3.83646 h -2.55488 z m 10.2278,-5.73815 c 0,-0.13746 0,-0.23771 0,-0.30179 0,-0.0661 0,-0.16227 0,-0.28939 0,-0.0909 0,-0.15503 0,-0.1943 0,-0.0413 0,-0.10542 0,-0.19431 v -1.72392 l 0.41341,-0.0289 0.53743,-0.0289 0.68213,-0.0455 0.50436,-0.0289 0.76068,-0.0455 -0.1943,7.19336 1.16168,0.0124 c 0.0879,0 0.1509,0 0.19017,0 0.0413,0 0.10542,0 0.19431,0 0.12919,0 0.22324,0.003 0.28112,0.008 0.0599,0.006 0.14986,0.008 0.26871,0.008 l 1.5751,0.0165 v 2.65823 h -4.01422 c -0.10749,0 -0.18604,0 -0.23565,0 -0.0496,0 -0.13022,0 -0.23978,0 -0.0992,0 -0.17363,0 -0.22324,0 -0.0496,0 -0.12299,0 -0.21911,0 h -1.4428 z m 7.46104,4.90719 c 0,-0.0909 0.001,-0.15503 0.004,-0.1943 0.005,-0.0382 0.008,-0.10335 0.008,-0.1943 0,-0.13746 0.002,-0.23772 0.008,-0.30179 0.005,-0.0661 0.008,-0.16744 0.008,-0.30593 l 0.10336,-4.50205 c 0,-0.0796 0.002,-0.13643 0.008,-0.1695 0.005,-0.0351 0.008,-0.093 0.008,-0.17363 0,-0.0992 0.001,-0.17053 0.004,-0.21497 0.005,-0.0434 0.008,-0.11163 0.008,-0.20258 l 0.0289,-1.47174 h 2.63343 v 3.92327 c 0,0.0806 0,0.14263 0,0.18604 0,0.0444 0,0.10645 0,0.18603 0,0.0909 0,0.15607 0,0.19431 0,0.0393 0,0.10335 0,0.1943 v 5.02295 h -2.86908 z m 4.01216,1.66192 v -7.10241 c 0,-0.10956 0,-0.19017 0,-0.23978 0,-0.0496 0,-0.12402 0,-0.22324 0,-0.0961 0,-0.1664 0,-0.21084 0,-0.0465 0,-0.11369 0,-0.20257 v -1.44281 c 1.7632,-0.11782 3.14709,-0.10749 4.15065,0.0331 1.00562,0.1385 1.72909,0.40515 2.17041,0.80202 0.44028,0.39481 0.68213,0.94878 0.72347,1.66192 0.008,0.48575 -0.0475,0.90743 -0.16537,1.26503 -0.008,0.0693 -0.031,0.1385 -0.0661,0.20671 -0.0331,0.0692 -0.0651,0.13849 -0.0951,0.20671 l -0.0455,0.0744 c -0.031,0.0413 -0.061,0.0816 -0.0909,0.11989 -0.0579,0.0889 -0.12196,0.16846 -0.19017,0.23978 -0.19844,0.2067 -0.40721,0.35036 -0.62425,0.42995 0.40514,0.0692 0.73277,0.31419 0.98392,0.73587 0.25321,0.42168 0.34519,1.02836 0.27698,1.81901 -0.0889,0.88263 -0.54467,1.51205 -1.36839,1.88929 -0.0971,0.0393 -0.19017,0.0734 -0.28112,0.10335 -0.0889,0.031 -0.17777,0.0558 -0.26872,0.0744 -0.11885,0.0196 -0.20567,0.0372 -0.26045,0.0537 -0.0527,0.0145 -0.13436,0.031 -0.24391,0.0496 -0.32556,0.061 -0.63665,0.0796 -0.93431,0.0579 h -3.67109 z m 2.67477,-1.69086 c 0.40514,0.008 0.75034,-0.0506 1.03766,-0.17776 0.28939,-0.12919 0.43408,-0.3328 0.43408,-0.61185 0.008,-0.23668 -0.0475,-0.43512 -0.16536,-0.59531 -0.0992,-0.1292 -0.22738,-0.20774 -0.38447,-0.23565 -0.11886,-0.0413 -0.24805,-0.062 -0.38861,-0.062 -0.1881,0.0114 -0.36587,0.0362 -0.5333,0.0744 z m 0,-3.85299 c 0.40514,0.0413 0.74827,-0.004 1.02939,-0.13643 0.28319,-0.13436 0.42582,-0.38137 0.42582,-0.74 0,-0.39688 -0.14263,-0.66146 -0.42582,-0.79375 -0.28112,-0.13436 -0.62425,-0.1664 -1.02939,-0.0951 z m 5.4684,3.95635 c 0,-0.0992 0.002,-0.17054 0.008,-0.21498 0.005,-0.0465 0.008,-0.11369 0.008,-0.20257 v -0.0165 c 0,-0.0879 0.001,-0.15089 0.004,-0.19016 0.005,-0.0414 0.008,-0.10026 0.008,-0.17777 l 0.22324,-6.20117 0.0165,-0.41341 0.0124,-0.40101 0.34313,-0.0165 0.46302,-0.0124 c 1.41593,-0.0496 2.62516,-0.0393 3.62562,0.0289 1.03043,0.0692 1.78594,0.35863 2.26549,0.86816 0.47956,0.51056 0.71934,1.28571 0.71934,2.32751 0,0.74207 -0.19327,1.40043 -0.57878,1.9761 -0.38654,0.57361 -0.85576,1.02423 -1.40973,1.35186 l 2.28617,2.92695 -0.80202,0.0909 -0.66973,0.0744 -0.7276,0.0868 -0.56224,0.062 -0.41755,0.0579 -0.44648,-0.65319 c -0.0806,-0.11782 -0.16434,-0.23668 -0.25218,-0.35553 -0.061,-0.0909 -0.11989,-0.1757 -0.17777,-0.25632 l -1.09967,-1.60403 -0.23978,2.79466 h -2.65824 z m 3.06338,-3.40651 c 0.52296,0.0227 0.96842,-0.0434 1.33532,-0.19844 0.36586,-0.154 0.54983,-0.40928 0.54983,-0.76481 0,-0.25838 -0.10955,-0.47232 -0.32659,-0.64079 -0.10749,-0.0992 -0.25631,-0.17363 -0.44649,-0.22324 -0.0393,-0.008 -0.0775,-0.0176 -0.11575,-0.0289 -0.0806,-0.0186 -0.1602,-0.0341 -0.23978,-0.0455 -0.25631,-0.0496 -0.5085,-0.0641 -0.75654,-0.0455 z m 6.12366,2.14147 c 0.0186,-0.0682 0.0331,-0.12196 0.0413,-0.16123 0.0103,-0.0413 0.0259,-0.0961 0.0455,-0.16537 0.03,-0.10955 0.0496,-0.1881 0.0579,-0.23564 0.0103,-0.0496 0.031,-0.12403 0.062,-0.22324 l 1.52962,-5.61827 h 3.04684 l 0.57878,2.28617 c 0.0217,0.0806 0.0372,0.14263 0.0455,0.18604 0.0103,0.0444 0.0258,0.10645 0.0455,0.18603 0.0186,0.0992 0.0382,0.16847 0.0579,0.20671 0.0217,0.0723 0.0372,0.14676 0.0455,0.22324 l 1.66604,6.60218 h -2.79466 l -0.25218,-1.36839 h -2.11253 l -0.25218,1.36839 h -2.70371 z m 3.71243,-0.68213 -0.50436,-2.19935 h -0.0868 l -0.66972,2.19935 z m 4.23747,-2.00918 c 0,-0.10749 0.002,-0.18604 0.008,-0.23565 0.005,-0.0496 0.008,-0.12402 0.008,-0.22324 0,-0.0879 0.001,-0.15399 0.004,-0.19844 0.005,-0.0465 0.008,-0.11368 0.008,-0.20257 l 0.033,-2.14147 0.0124,-0.44648 v -0.31006 l 0.35553,-0.0289 0.44649,-0.0331 0.40101,-0.0124 c 0.5457,-0.03 1.12965,-0.0548 1.75286,-0.0744 0.62529,-0.0186 1.11208,-0.0186 1.45935,0 0.46509,0.0196 0.9064,0.16123 1.32291,0.42581 0.41548,0.26252 0.74931,0.64803 1.00046,1.15756 0.25321,0.51056 0.38034,1.12241 0.38034,1.83554 0,0.60358 -0.12403,1.13895 -0.37207,1.60404 -0.0992,0.17983 -0.17777,0.30799 -0.23565,0.38447 -0.0909,0.12196 -0.18086,0.22634 -0.26872,0.31419 -0.19843,0.20671 -0.41547,0.38034 -0.64905,0.5209 -0.23151,0.1385 -0.45062,0.23771 -0.65733,0.29766 l 1.00873,1.52962 c 0.0682,0.0889 0.13332,0.1819 0.1943,0.28112 0.0496,0.0806 0.0878,0.14056 0.11576,0.1819 0.03,0.0393 0.0703,0.0982 0.11988,0.17777 l 0.74415,1.14102 h -2.80707 l -1.99264,-2.60036 v 2.60036 h -2.52595 z m 2.58795,0.49196 c 0.46509,0.0806 0.85783,0.0537 1.17822,-0.0786 0.32247,-0.13436 0.4837,-0.40101 0.4837,-0.79788 0,-0.39688 -0.16123,-0.65733 -0.4837,-0.78135 -0.32039,-0.12402 -0.71313,-0.14573 -1.17822,-0.0661 z m 7.81761,2.03812 -0.78961,-1.60817 c -0.0496,-0.11783 -0.0899,-0.20361 -0.11989,-0.25632 -0.0279,-0.0548 -0.0661,-0.13746 -0.11576,-0.24805 -0.0413,-0.0879 -0.0723,-0.15089 -0.0909,-0.19016 -0.0197,-0.0413 -0.0496,-0.10542 -0.091,-0.19431 l -1.70739,-3.55534 h 2.67477 l 1.63711,3.09232 0.62426,-1.20303 c 0.0496,-0.0992 0.0878,-0.17363 0.11575,-0.22324 0.03,-0.0496 0.0703,-0.12402 0.11989,-0.22324 0.0796,-0.14883 0.15916,-0.29766 0.23978,-0.44648 l 0.63665,-1.21957 h 2.74919 l -3.17914,6.33346 -0.0165,0.66973 c 0,0.0992 0,0.17157 0,0.21498 0,0.0444 0,0.11058 0,0.19843 0,0.0909 0,0.15607 0,0.19431 0,0.0393 0,0.10335 0,0.1943 l -0.0289,1.72393 h -2.61689 z m 0,0"
       style="fill:#041947 icc-color(Display, 0.0349884, 0.09799194, 0.26699829);fill-opacity:1;fill-rule:nonzero;stroke:none;stroke-width:0.352778"
       aria-label="TOy LIBrARY" />
    <g
       id="g51"
       clip-path="url(#clipPath52)"
       transform="matrix(0.26458333,0,0,0.26458333,29.450282,119.28446)">
      <path
         d="M 164.386,497.667 H 148.653 V 513.4 h 15.733 z"
         style="fill:none;stroke:#fd20a6 icc-color(Display, 0.9099884, 0.23899841, 0.63899231);stroke-width:0.327;stroke-linecap:butt;stroke-linejoin:miter;stroke-miterlimit:10;stroke-dasharray:none;stroke-opacity:1"
         transform="matrix(1.3333333,0,0,-1.3333333,0,793.70133)"
         id="path51" />
    </g>
    <g
       id="g53"
       clip-path="url(#clipPath52)"
       transform="matrix(0.26458333,0,0,0.26458333,29.450282,119.28446)">
      <path
         d="m 164.386,478.593 h -15.733 v 15.733 h 15.733 z"
         style="fill:none;stroke:#a40000 icc-color(Display, 0.58799744, 0, 0);stroke-width:0.327;stroke-linecap:butt;stroke-linejoin:miter;stroke-miterlimit:10;stroke-dasharray:none;stroke-opacity:1"
         transform="matrix(1.3333333,0,0,-1.3333333,0,793.70133)"
         id="path53" />
    </g>
    <g
       id="g54"
       clip-path="url(#clipPath52)"
       transform="matrix(0.26458333,0,0,0.26458333,29.450282,119.28446)">
      <path
         d="M 145.313,478.593 H 129.58 v 15.733 h 15.733 z"
         style="fill:none;stroke:#0048ce icc-color(Display, 0.10198975, 0.27799988, 0.77598572);stroke-width:0.327;stroke-linecap:butt;stroke-linejoin:miter;stroke-miterlimit:10;stroke-dasharray:none;stroke-opacity:1"
         transform="matrix(1.3333333,0,0,-1.3333333,0,793.70133)"
         id="path54" />
    </g>
    <g
       id="g55"
       clip-path="url(#clipPath52)"
       transform="matrix(0.26458333,0,0,0.26458333,29.450282,119.28446)">
      <path
         d="M 145.313,459.52 H 129.58 v 15.733 h 15.733 z"
         style="fill:none;stroke:#fd20a6 icc-color(Display, 0.9099884, 0.23899841, 0.63899231);stroke-width:0.327;stroke-linecap:butt;stroke-linejoin:miter;stroke-miterlimit:10;stroke-dasharray:none;stroke-opacity:1"
         transform="matrix(1.3333333,0,0,-1.3333333,0,793.70133)"
         id="path55" />
    </g>
    <g
       id="g56"
       clip-path="url(#clipPath52)"
       transform="matrix(0.26458333,0,0,0.26458333,29.450282,119.28446)">
      <path
         d="m 126.239,459.52 h -15.733 v 15.733 h 15.733 z"
         style="fill:none;stroke:#ff7800 icc-color(Display, 1, 0.5059967, 0.06298828);stroke-width:0.327;stroke-linecap:butt;stroke-linejoin:miter;stroke-miterlimit:10;stroke-dasharray:none;stroke-opacity:1"
         transform="matrix(1.3333333,0,0,-1.3333333,0,793.70133)"
         id="path56" />
    </g>
    <g
       id="g57"
       clip-path="url(#clipPath52)"
       transform="matrix(0.26458333,0,0,0.26458333,29.450282,119.28446)">
      <path
         d="m 164.386,459.52 h -15.733 v 15.733 h 15.733 z"
         style="fill:none;stroke:#1c9347 icc-color(Display, 0.2749939, 0.56898499, 0.30999756);stroke-width:0.327;stroke-linecap:butt;stroke-linejoin:miter;stroke-miterlimit:10;stroke-dasharray:none;stroke-opacity:1"
         transform="matrix(1.3333333,0,0,-1.3333333,0,793.70133)"
         id="path57" />
    </g>
    <g
       id="g58"
       clip-path="url(#clipPath52)"
       transform="matrix(0.26458333,0,0,0.26458333,29.450282,119.28446)">
      <path
         d="M 0,0 7.39,14.781 14.781,0 Z"
         style="fill:none;stroke:#ffd800 icc-color(Display, 0.98799133, 0.85499573, 0.28199768);stroke-width:0.327;stroke-linecap:butt;stroke-linejoin:miter;stroke-miterlimit:10;stroke-dasharray:none;stroke-opacity:1"
         transform="matrix(1.3333333,0,0,-1.3333333,147.97627,155.99627)"
         id="path58" />
    </g>
    <g
       id="g59"
       clip-path="url(#clipPath52)"
       transform="matrix(0.26458333,0,0,0.26458333,29.450282,119.28446)">
      <path
         d="M 0,0 4.155,15.995 14.458,3.074 Z"
         style="fill:none;stroke:#ff7800 icc-color(Display, 1, 0.5059967, 0.06298828);stroke-width:0.327;stroke-linecap:butt;stroke-linejoin:miter;stroke-miterlimit:10;stroke-dasharray:none;stroke-opacity:1"
         transform="matrix(1.3333333,0,0,-1.3333333,170.73747,103.37213)"
         id="path59" />
    </g>
  </g>
</svg>
