<?xml version="1.0" encoding="UTF-8" standalone="no"?>
<!-- Created with Inkscape (http://www.inkscape.org/) -->

<svg
   width="162.8614mm"
   height="54.296337mm"
   viewBox="0 0 162.8614 54.296337"
   version="1.1"
   id="svg1"
   inkscape:version="1.4.4 (dcaf3e7, 2026-05-05)"
   sodipodi:docname="ibis-full.svg"
   xmlns:inkscape="http://www.inkscape.org/namespaces/inkscape"
   xmlns:sodipodi="http://sodipodi.sourceforge.net/DTD/sodipodi-0.dtd"
   xmlns="http://www.w3.org/2000/svg"
   xmlns:svg="http://www.w3.org/2000/svg">
  <sodipodi:namedview
     id="namedview1"
     pagecolor="#ffffff"
     bordercolor="#000000"
     borderopacity="0.25"
     inkscape:showpageshadow="2"
     inkscape:pageopacity="0.0"
     inkscape:pagecheckerboard="0"
     inkscape:deskcolor="#d1d1d1"
     inkscape:document-units="mm"
     inkscape:zoom="1.1743999"
     inkscape:cx="317.18327"
     inkscape:cy="96.645102"
     inkscape:window-width="1512"
     inkscape:window-height="916"
     inkscape:window-x="0"
     inkscape:window-y="38"
     inkscape:window-maximized="1"
     inkscape:current-layer="layer1" />
  <defs
     id="defs1" />
  <g
     inkscape:label="Layer 1"
     inkscape:groupmode="layer"
     id="layer1"
     transform="translate(-26.9875,-121.44374)">
    <path
       id="path75"
       d="m 26.9875,175.33063 v -6.29212 c 0,-0.0961 0,-0.1664 0,-0.21084 0,-0.0434 0,-0.10955 0,-0.19844 0,-0.0879 0,-0.15089 0,-0.19016 0,-0.0382 0,-0.0972 0,-0.17777 v -1.27744 c 1.562695,-0.10439 2.78846,-0.0951 3.679361,0.0289 0.889869,0.12195 1.530656,0.35863 1.922364,0.71106 0.390674,0.35037 0.604614,0.8413 0.640787,1.47175 0.0083,0.42995 -0.04031,0.80408 -0.144694,1.12034 -0.01137,0.061 -0.03204,0.12299 -0.06201,0.18604 -0.03101,0.061 -0.05788,0.12195 -0.08268,0.1819 l -0.04134,0.0661 c -0.0279,0.0362 -0.05374,0.0703 -0.07855,0.10336 -0.05271,0.0806 -0.110588,0.15089 -0.173633,0.21084 -0.173632,0.185 -0.3576,0.31316 -0.549837,0.38447 0.357601,0.061 0.649056,0.27699 0.872298,0.64906 0.22531,0.37207 0.306958,0.9095 0.243913,1.6123 -0.07751,0.78342 -0.481624,1.34152 -1.211295,1.67432 -0.08578,0.0331 -0.168466,0.0641 -0.248047,0.091 -0.08062,0.0248 -0.159164,0.0475 -0.235645,0.0661 -0.107487,0.0165 -0.186035,0.032 -0.235644,0.0455 -0.04754,0.0145 -0.118856,0.0289 -0.214974,0.0455 -0.289388,0.0527 -0.565341,0.0693 -0.826823,0.0538 H 26.9875 Z m 2.368847,-1.50068 c 0.360702,0.008 0.66766,-0.0434 0.921908,-0.1571 0.256315,-0.11575 0.384473,-0.29559 0.384473,-0.54157 0.0083,-0.20877 -0.04031,-0.38447 -0.144695,-0.52503 -0.08888,-0.11575 -0.202571,-0.18603 -0.343131,-0.21084 -0.10542,-0.0351 -0.219108,-0.0537 -0.343132,-0.0537 -0.165364,0.008 -0.324528,0.031 -0.475423,0.0661 z m 0,-3.41064 c 0.360702,0.0362 0.666626,-0.005 0.917774,-0.12403 0.250113,-0.11782 0.376204,-0.33589 0.376204,-0.65319 0,-0.34933 -0.126091,-0.58394 -0.376204,-0.7028 -0.251148,-0.11782 -0.557072,-0.14676 -0.917774,-0.0868 z m 4.847249,3.50159 c 0,-0.0879 0.001,-0.15089 0.0041,-0.19017 0.0052,-0.0382 0.0083,-0.0971 0.0083,-0.17777 v -0.0124 c 0,-0.0796 0.001,-0.13642 0.0041,-0.1695 0.0052,-0.0351 0.0083,-0.0889 0.0083,-0.16123 l 0.198437,-5.4901 0.0124,-0.36794 0.01653,-0.35553 0.30179,-0.0124 0.409277,-0.0124 c 1.25367,-0.0434 2.323372,-0.0351 3.208073,0.0248 0.914673,0.0641 1.584399,0.32142 2.009179,0.77308 0.423747,0.45268 0.636654,1.13894 0.636654,2.05878 0,0.6594 -0.171566,1.24334 -0.51263,1.75287 -0.342098,0.50746 -0.75861,0.90537 -1.248503,1.19476 l 2.025717,2.59209 -0.711068,0.0827 -0.591179,0.062 -0.644922,0.0827 -0.500227,0.0496 -0.367936,0.0537 -0.396875,-0.57878 c -0.06925,-0.10438 -0.143663,-0.21084 -0.223245,-0.31832 -0.05271,-0.0765 -0.10542,-0.1509 -0.157096,-0.22324 l -0.975651,-1.42214 -0.21084,2.47633 h -2.356445 z m 2.711979,-3.01377 c 0.465088,0.0165 0.859896,-0.0424 1.182357,-0.17777 0.324528,-0.13435 0.487826,-0.3607 0.487826,-0.67799 0,-0.22841 -0.09715,-0.41755 -0.289389,-0.56637 -0.09715,-0.0879 -0.227376,-0.154 -0.39274,-0.19844 -0.03617,-0.008 -0.07235,-0.0165 -0.107487,-0.0248 -0.06925,-0.0165 -0.139527,-0.03 -0.21084,-0.0413 -0.226343,-0.0413 -0.449585,-0.0537 -0.669727,-0.0372 z m 5.159375,1.76527 c 0,-0.14883 0,-0.29869 0,-0.45062 0,-0.12919 0,-0.25632 0,-0.38034 V 167.05 h 2.699577 l -0.0248,0.78962 -0.0124,0.42168 -0.01653,0.44648 -0.169499,4.92373 c 0,0.10542 -0.0031,0.1819 -0.0083,0.23151 -0.0031,0.0476 -0.0041,0.11886 -0.0041,0.21498 0,0.10748 -0.0041,0.21394 -0.0124,0.31832 l -0.05374,1.28985 h -2.397786 z m 6.38514,3.06751 c -0.305925,0 -0.573608,-0.0227 -0.802018,-0.0661 -0.08888,-0.0103 -0.173633,-0.0248 -0.256316,-0.0413 -0.08268,-0.0165 -0.168465,-0.0382 -0.256314,-0.0661 -0.19327,-0.0517 -0.337964,-0.0961 -0.434083,-0.13229 -0.413411,-0.14883 -0.795816,-0.34107 -1.145149,-0.57878 l 0.169498,-0.35553 0.198438,-0.40515 0.198437,-0.39687 0.194304,-0.38034 0.210839,-0.43408 0.04134,0.0496 c 0.132291,0.20464 0.328662,0.39067 0.591178,0.5581 0.264583,0.16537 0.575675,0.24805 0.93431,0.24805 0.297656,0 0.534334,-0.0806 0.711068,-0.24391 0.1757,-0.16227 0.264583,-0.37621 0.264583,-0.64079 0,-0.24495 -0.08475,-0.42685 -0.252181,-0.5457 -0.165365,-0.11783 -0.445451,-0.24805 -0.839225,-0.38861 -0.115755,-0.0351 -0.231511,-0.0724 -0.347266,-0.11162 -0.113688,-0.0382 -0.230477,-0.0837 -0.3514,-0.13643 -0.124023,-0.0434 -0.243912,-0.0992 -0.359667,-0.16536 -0.113689,-0.0662 -0.222209,-0.14263 -0.326596,-0.23151 -0.05271,-0.0434 -0.103352,-0.0889 -0.152962,-0.13643 -0.04754,-0.0496 -0.09302,-0.10438 -0.136426,-0.16536 -0.254248,-0.32453 -0.380338,-0.75448 -0.380338,-1.28985 0,-0.5705 0.163298,-1.079 0.491959,-1.52548 0.33073,-0.44856 0.764812,-0.79582 1.302246,-1.0418 0.539502,-0.24495 1.117245,-0.36794 1.732195,-0.36794 0.456819,0 0.906404,0.0775 1.347721,0.23151 0.443383,0.15193 0.84956,0.37827 1.219563,0.678 l -0.198437,0.28939 -0.260449,0.40514 -0.264584,0.38447 -0.276985,0.40514 -0.198438,0.30593 -0.06615,-0.0661 c -0.14056,-0.12402 -0.307991,-0.22944 -0.500227,-0.31832 -0.19327,-0.0879 -0.42478,-0.1323 -0.694532,-0.1323 -0.272851,0 -0.486792,0.0703 -0.640787,0.21084 -0.15503,0.14056 -0.231511,0.33383 -0.231511,0.57878 0,0.21291 0.07235,0.3669 0.219108,0.46302 0.145728,0.0971 0.385506,0.20154 0.719336,0.31419 0.236678,0.0724 0.452686,0.15193 0.649056,0.23978 0.198438,0.0858 0.384473,0.19431 0.558106,0.3266 0.04341,0.0362 0.08785,0.0744 0.132291,0.11575 0.04341,0.0393 0.08785,0.0806 0.132292,0.12403 0.05168,0.0527 0.101286,0.11162 0.148828,0.17776 0.04961,0.0641 0.09612,0.13126 0.14056,0.20258 0.192236,0.37 0.289388,0.80821 0.289388,1.31464 0,0.59015 -0.144694,1.08934 -0.434082,1.49655 -0.289388,0.40825 -0.677995,0.71831 -1.16582,0.93018 -0.485759,0.2098 -1.027328,0.31419 -1.624707,0.31419 z m 4.225065,-0.40928 v -6.29212 c 0,-0.0961 0,-0.1664 0,-0.21084 0,-0.0434 0,-0.10955 0,-0.19844 0,-0.0879 0,-0.15089 0,-0.19016 0,-0.0382 0,-0.0972 0,-0.17777 v -1.27744 c 1.562695,-0.10439 2.78846,-0.0951 3.679361,0.0289 0.889869,0.12195 1.530656,0.35863 1.922364,0.71106 0.390674,0.35037 0.604614,0.8413 0.640787,1.47175 0.0083,0.42995 -0.04031,0.80408 -0.144694,1.12034 -0.01137,0.061 -0.03204,0.12299 -0.06201,0.18604 -0.03101,0.061 -0.05788,0.12195 -0.08268,0.1819 l -0.04134,0.0661 c -0.02791,0.0362 -0.05374,0.0703 -0.07855,0.10336 -0.05271,0.0806 -0.110588,0.15089 -0.173633,0.21084 -0.173633,0.185 -0.3576,0.31316 -0.549837,0.38447 0.357601,0.061 0.649056,0.27699 0.872298,0.64906 0.225309,0.37207 0.306958,0.9095 0.243913,1.6123 -0.07751,0.78342 -0.481624,1.34152 -1.211296,1.67432 -0.08578,0.0331 -0.168465,0.0641 -0.248047,0.091 -0.08062,0.0248 -0.159163,0.0475 -0.235644,0.0661 -0.107487,0.0165 -0.186035,0.032 -0.235644,0.0455 -0.04754,0.0145 -0.118856,0.0289 -0.214974,0.0455 -0.289389,0.0527 -0.565341,0.0693 -0.826823,0.0538 h -3.253548 z m 2.368847,-1.50068 c 0.360702,0.008 0.66766,-0.0434 0.921908,-0.1571 0.256315,-0.11575 0.384472,-0.29559 0.384472,-0.54157 0.0083,-0.20877 -0.04031,-0.38447 -0.144694,-0.52503 -0.08888,-0.11575 -0.202571,-0.18603 -0.343131,-0.21084 -0.10542,-0.0351 -0.219108,-0.0537 -0.343132,-0.0537 -0.165364,0.008 -0.324528,0.031 -0.475423,0.0661 z m 0,-3.41064 c 0.360702,0.0362 0.666626,-0.005 0.917774,-0.12403 0.250113,-0.11782 0.376204,-0.33589 0.376204,-0.65319 0,-0.34933 -0.126091,-0.58394 -0.376204,-0.7028 -0.251148,-0.11782 -0.557072,-0.14676 -0.917774,-0.0868 z m 5.727816,-0.66973 c 0.02687,-0.0796 0.04961,-0.15813 0.06615,-0.23565 0.0186,-0.0434 0.03307,-0.0878 0.04134,-0.13229 0.0248,-0.0796 0.04651,-0.15916 0.06614,-0.23978 0.01653,-0.0434 0.02894,-0.0868 0.03721,-0.12815 l 0.51263,-1.95131 h 3.017903 l 1.496551,6.15984 c 0.01859,0.0444 0.03306,0.093 0.04134,0.14469 0,0.0279 0.0083,0.0765 0.0248,0.14469 0.02688,0.10749 0.05478,0.21394 0.08268,0.31833 l 0.458886,1.89342 H 64.03536 l -0.289391,-1.42213 h -1.868618 l -0.276986,1.42213 h -2.410188 z m 2.596225,1.93477 -0.343133,-1.80248 h -0.210841 l -0.367937,1.80248 z m 3.775477,-0.89711 c 0,-0.0961 0,-0.16536 0,-0.2067 0,-0.0434 0,-0.10956 0,-0.19844 0,-0.0796 0,-0.13849 0,-0.17777 0,-0.0413 0,-0.10025 0,-0.17776 v -3.00137 h 2.331642 l 1.446939,3.58014 h 0.09095 l 0.227379,-3.58014 0.500225,-0.0124 h 1.01286 l 0.549836,0.0124 v 1.28984 c 0,0.10542 0,0.1819 0,0.23151 0,0.0475 0,0.11886 0,0.21498 0,0.0889 0,0.15503 0,0.19843 0,0.0445 0,0.11059 0,0.19844 v 4.27468 c 0,0.11575 0,0.23047 0,0.34313 0,0.0971 0,0.16743 0,0.21084 0,0.0444 0,0.11472 0,0.21084 v 1.50068 H 71.25043 l -1.897559,-3.80339 -0.103354,-0.0124 -0.239779,3.81579 H 67.15352 Z m 7.255372,2.97656 c 0.0083,-0.10438 0.01242,-0.17983 0.01242,-0.22737 0,-0.0496 0.0041,-0.12609 0.01238,-0.23151 v -0.0165 c 0.0083,-0.12092 0.01242,-0.21187 0.01242,-0.27285 0,-0.0631 0.0052,-0.15503 0.01654,-0.27699 l 0.144696,-5.56865 1.066602,-0.0537 c 0.140561,-0.008 0.274916,-0.0124 0.405144,-0.0124 0.124023,-0.008 0.212905,-0.0124 0.268715,-0.0124 0.05788,0 0.144695,-0.005 0.260452,-0.0165 l 3.050974,-0.12816 v 2.10426 l -2.840137,0.11989 v 1.45934 h 1.773517 v 1.67432 l -1.773538,0.0248 v 1.22369 h 1.302248 c 0.157095,0 0.314191,0 0.47129,0 0.150893,0 0.295589,0 0.434079,0 h 0.632519 v 2.10427 H 74.36755 Z m 10.426237,0.60359 c -0.01654,-0.10439 -0.0279,-0.17984 -0.03305,-0.22738 -0.0062,-0.0496 -0.01655,-0.12196 -0.03306,-0.21911 v -0.0248 c -0.01654,-0.10439 -0.02791,-0.17984 -0.03306,-0.22738 -0.0062,-0.0496 -0.01655,-0.12196 -0.03306,-0.21911 l -1.091406,-6.47815 h 2.447396 l 0.355533,3.3569 h 0.06615 l 0.38034,-0.97566 c 0.03514,-0.0879 0.06718,-0.17053 0.09508,-0.24804 0.0248,-0.0796 0.04547,-0.13643 0.06201,-0.1695 0.01859,-0.0351 0.04134,-0.093 0.06615,-0.17363 l 0.620116,-1.59164 0.475425,-0.0124 0.458886,-0.0165 0.63252,-0.0248 0.921907,3.07992 h 0.06615 l 1.066602,-3.22461 h 2.261359 l -0.880565,4.22506 c -0.01655,0.0806 -0.03514,0.15916 -0.05375,0.23565 -0.0248,0.11575 -0.05581,0.23461 -0.09095,0.35553 l -0.880565,3.91087 H 89.58529 l -1.066673,-3.94808 H 88.39046 l -1.095541,3.94808 h -2.261358 z m 9.452652,-0.60359 c 0.0083,-0.10438 0.01242,-0.17983 0.01242,-0.22737 0,-0.0496 0.0041,-0.12609 0.01242,-0.23151 v -0.0165 c 0.0083,-0.12092 0.01242,-0.21187 0.01242,-0.27285 0,-0.0631 0.0052,-0.15503 0.01654,-0.27699 l 0.144695,-5.56865 1.066603,-0.0537 c 0.140557,-0.008 0.274916,-0.0124 0.40514,-0.0124 0.124026,-0.008 0.212909,-0.0124 0.268718,-0.0124 0.05788,0 0.144695,-0.005 0.260449,-0.0165 l 3.050977,-0.12816 v 2.10426 l -2.840136,0.11989 v 1.45934 h 1.773534 v 1.67432 l -1.773534,0.0248 v 1.22369 h 1.302247 c 0.157096,0 0.314191,0 0.471287,0 0.150897,0 0.295592,0 0.434082,0 h 0.63252 v 2.10427 h -5.291666 z m 8.937959,1.97611 c -0.30593,0 -0.57361,-0.0227 -0.80202,-0.0661 -0.0889,-0.0103 -0.17364,-0.0248 -0.25632,-0.0413 -0.0827,-0.0165 -0.16846,-0.0382 -0.25631,-0.0661 -0.19327,-0.0517 -0.33796,-0.0961 -0.43408,-0.13229 -0.41342,-0.14883 -0.79582,-0.34107 -1.14515,-0.57878 l 0.16949,-0.35553 0.19844,-0.40515 0.19844,-0.39687 0.1943,-0.38034 0.21084,-0.43408 0.0413,0.0496 c 0.13229,0.20464 0.32866,0.39067 0.59117,0.5581 0.26459,0.16537 0.57568,0.24805 0.93431,0.24805 0.29766,0 0.53434,-0.0806 0.71107,-0.24391 0.1757,-0.16227 0.26458,-0.37621 0.26458,-0.64079 0,-0.24495 -0.0847,-0.42685 -0.25218,-0.5457 -0.16536,-0.11783 -0.44545,-0.24805 -0.83922,-0.38861 -0.11576,-0.0351 -0.23151,-0.0724 -0.34727,-0.11162 -0.11369,-0.0382 -0.23048,-0.0837 -0.3514,-0.13643 -0.12402,-0.0434 -0.24391,-0.0992 -0.35967,-0.16536 -0.11369,-0.0662 -0.2222,-0.14263 -0.32659,-0.23151 -0.0527,-0.0434 -0.10335,-0.0889 -0.15296,-0.13643 -0.0476,-0.0496 -0.093,-0.10438 -0.13643,-0.16536 -0.25425,-0.32453 -0.38034,-0.75448 -0.38034,-1.28985 0,-0.5705 0.1633,-1.079 0.49196,-1.52548 0.33073,-0.44856 0.76481,-0.79582 1.30225,-1.0418 0.5395,-0.24495 1.11724,-0.36794 1.73219,-0.36794 0.45682,0 0.90641,0.0775 1.34772,0.23151 0.44339,0.15193 0.84956,0.37827 1.21957,0.678 l -0.19844,0.28939 -0.26045,0.40514 -0.26458,0.38447 -0.27699,0.40514 -0.19844,0.30593 -0.0661,-0.0661 c -0.14056,-0.12402 -0.30799,-0.22944 -0.50023,-0.31832 -0.19327,-0.0879 -0.42478,-0.1323 -0.69453,-0.1323 -0.27285,0 -0.48679,0.0703 -0.64079,0.21084 -0.15503,0.14056 -0.23151,0.33383 -0.23151,0.57878 0,0.21291 0.0724,0.3669 0.21911,0.46302 0.14573,0.0971 0.3855,0.20154 0.71933,0.31419 0.23668,0.0724 0.45269,0.15193 0.64906,0.23978 0.19844,0.0858 0.38447,0.19431 0.55811,0.3266 0.0434,0.0362 0.0879,0.0744 0.13229,0.11575 0.0434,0.0393 0.0879,0.0806 0.13229,0.12403 0.0517,0.0527 0.10129,0.11162 0.14883,0.17776 0.0496,0.0641 0.0961,0.13126 0.14056,0.20258 0.19223,0.37 0.28938,0.80821 0.28938,1.31464 0,0.59015 -0.14469,1.08934 -0.43408,1.49655 -0.28938,0.40825 -0.67799,0.71831 -1.16582,0.93018 -0.48576,0.2098 -1.02732,0.31419 -1.6247,0.31419 z m 5.85804,-4.05556 c 0,-0.11576 0,-0.20051 0,-0.25632 0,-0.0579 0,-0.14263 0,-0.25632 0,-0.0879 0,-0.15089 0,-0.19016 0,-0.0413 0,-0.10542 0,-0.19431 v -1.19476 h -1.76114 v -2.50114 l 3.34037,-0.0537 c 0.15916,0 0.31832,0 0.47542,0 0.16743,-0.008 0.33486,-0.0124 0.50023,-0.0124 l 1.90996,-0.0289 v 2.56728 l -1.93477,0.0289 -0.0951,4.26227 c 0,0.10542 -0.003,0.18191 -0.008,0.23151 -0.003,0.0476 -0.004,0.12403 -0.004,0.23151 0,0.0972 -0.003,0.16744 -0.008,0.21084 -0.003,0.0445 -0.004,0.10956 -0.004,0.19431 l -0.0124,0.97565 h -2.39779 z m 10.04486,0 c 0,-0.11576 0,-0.20051 0,-0.25632 0,-0.0579 0,-0.14263 0,-0.25632 0,-0.0879 0,-0.15089 0,-0.19016 0,-0.0413 0,-0.10542 0,-0.19431 v -1.19476 h -1.76113 v -2.50114 l 3.34036,-0.0537 c 0.15916,0 0.31833,0 0.47543,0 0.16743,-0.008 0.33486,-0.0124 0.50022,-0.0124 l 1.90996,-0.0289 v 2.56728 l -1.93476,0.0289 -0.0951,4.26227 c 0,0.10542 -0.003,0.18191 -0.008,0.23151 -0.003,0.0476 -0.004,0.12403 -0.004,0.23151 0,0.0972 -0.003,0.16744 -0.008,0.21084 -0.003,0.0445 -0.004,0.10956 -0.004,0.19431 l -0.0124,0.97565 h -2.39778 z m 8.62273,4.01422 c -0.71934,0 -1.36736,-0.18604 -1.94303,-0.55811 -0.57361,-0.37413 -1.0201,-0.8971 -1.33946,-1.56682 -0.32039,-0.6718 -0.47955,-1.43868 -0.47955,-2.29857 0,-0.3328 0.0434,-0.6966 0.13229,-1.09141 0.0165,-0.0796 0.0372,-0.15813 0.062,-0.23564 0.0269,-0.0796 0.0548,-0.15503 0.0827,-0.22738 0.0331,-0.0961 0.0682,-0.19017 0.10749,-0.28112 0.0413,-0.0909 0.0837,-0.17983 0.12815,-0.26872 0.34107,-0.7028 0.80616,-1.2733 1.3932,-1.71152 0.58911,-0.43822 1.2082,-0.65732 1.85622,-0.65732 0.89504,0 1.64228,0.28938 2.24069,0.86816 l 0.1819,0.19844 0.13229,0.15709 0.18604,0.24805 c 0.0331,0.0444 0.062,0.093 0.0868,0.14469 0.0269,0.0527 0.0548,0.10542 0.0827,0.1571 0.3855,0.74724 0.57877,1.63918 0.57877,2.67477 0,0.46612 -0.0527,0.90434 -0.1571,1.31465 -0.008,0.0279 -0.0155,0.0496 -0.0207,0.0661 -0.006,0.0165 -0.0124,0.0393 -0.0207,0.0661 -0.008,0.0444 -0.0197,0.0889 -0.0331,0.13229 -0.0114,0.0445 -0.0269,0.0889 -0.0455,0.1323 -0.0362,0.0971 -0.062,0.16949 -0.0786,0.2191 -0.0165,0.0476 -0.0434,0.11886 -0.0786,0.21498 -0.30592,0.69246 -0.73174,1.2485 -1.27744,1.67018 -0.54364,0.42168 -1.13585,0.63252 -1.77767,0.63252 z m -0.0248,-2.51354 c 0.41341,0 0.73174,-0.18604 0.95498,-0.55811 0.22324,-0.37413 0.33486,-0.84749 0.33486,-1.418 0,-0.52606 -0.12299,-0.97565 -0.36793,-1.34772 -0.24599,-0.37207 -0.54881,-0.5581 -0.90951,-0.5581 -0.37,0 -0.68626,0.17156 -0.95085,0.51263 -0.26251,0.34209 -0.39274,0.77618 -0.39274,1.30224 0,0.44649 0.0796,0.83716 0.23978,1.16996 0.0248,0.0641 0.0517,0.12815 0.0827,0.1943 0.0331,0.0641 0.0703,0.11782 0.11163,0.16123 0.0713,0.0724 0.13746,0.14676 0.19843,0.22324 0.20051,0.21291 0.43409,0.31833 0.69867,0.31833 z m 5.83117,-0.52917 -0.69867,-1.418 c -0.0444,-0.10749 -0.0806,-0.18397 -0.10749,-0.23151 -0.0248,-0.0496 -0.0599,-0.12196 -0.10335,-0.21911 -0.0331,-0.0765 -0.0599,-0.13332 -0.0786,-0.1695 -0.0165,-0.0351 -0.0434,-0.092 -0.0785,-0.1695 l -1.51309,-3.14606 h 2.36885 l 1.44694,2.73679 0.55397,-1.0666 c 0.0434,-0.0879 0.0785,-0.154 0.10335,-0.19844 0.0269,-0.0434 0.0631,-0.10956 0.10749,-0.19844 0.0713,-0.12919 0.14159,-0.26045 0.21084,-0.39274 l 0.56637,-1.079 h 2.435 l -2.81534,5.60586 -0.0165,0.59531 c 0,0.0858 0,0.14883 0,0.19017 0,0.0393 0,0.0982 0,0.17776 0,0.0775 0,0.13436 0,0.1695 0,0.0362 0,0.093 0,0.1695 l -0.0248,1.52962 h -2.31511 z m 9.02994,-3.14193 c 0,-0.12402 0,-0.2129 0,-0.26871 0,-0.0579 0,-0.1447 0,-0.26045 0,-0.0765 0,-0.13333 0,-0.1695 0,-0.0351 0,-0.093 0,-0.17363 v -1.52549 l 0.37207,-0.0248 0.47129,-0.0289 0.60771,-0.0372 0.44648,-0.0289 0.66973,-0.0372 -0.1695,6.37067 1.02526,0.0124 c 0.0796,0 0.13643,0 0.1695,0 0.0351,0 0.093,0 0.17364,0 0.11265,0 0.19533,0.003 0.24804,0.008 0.0548,0.003 0.13436,0.004 0.23978,0.004 l 1.3932,0.0124 v 2.35645 h -3.55121 c -0.0971,0 -0.16743,0 -0.21084,0 -0.0444,0 -0.11472,0 -0.21084,0 -0.0889,0 -0.15503,0 -0.19843,0 -0.0444,0 -0.11059,0 -0.19844,0 h -1.27744 z m 6.5691,3.15847 c 0,-0.14883 0,-0.29869 0,-0.45062 0,-0.12919 0,-0.25632 0,-0.38034 V 167.05 h 2.69958 l -0.0248,0.78962 -0.0124,0.42168 -0.0165,0.44648 -0.1695,4.92373 c 0,0.10542 -0.003,0.1819 -0.008,0.23151 -0.003,0.0476 -0.004,0.11886 -0.004,0.21498 0,0.10748 -0.004,0.21394 -0.0124,0.31832 l -0.0537,1.28985 h -2.39779 z m 3.75274,2.69544 v -1.82728 c 0,-0.10438 0,-0.18293 0,-0.23564 0,-0.0548 0,-0.13436 0,-0.23978 0,-0.11266 0,-0.19534 0,-0.24805 0,-0.0517 0,-0.13229 0,-0.23978 v -5.6596 l 1.3684,-0.0372 h 1.31878 c 0.62218,0 1.00873,0.0124 1.15755,0.0372 0.71107,0.12402 1.2485,0.34933 1.61231,0.67386 0.3638,0.32246 0.5457,0.74828 0.5457,1.27744 0,0.5271 -0.0992,0.97875 -0.29766,1.35599 -0.19637,0.37517 -0.43821,0.65526 -0.7276,0.83923 0.23668,0.0527 0.45165,0.20154 0.64492,0.44648 0.0961,0.14056 0.16227,0.25115 0.19844,0.33073 l 0.0124,0.0248 c 0.0248,0.0444 0.0506,0.0992 0.0785,0.16536 0.0269,0.0661 0.0496,0.13022 0.0661,0.19017 0.11265,0.37 0.16537,0.79582 0.1571,1.27744 -0.008,0.71934 -0.25012,1.25987 -0.72347,1.62057 -0.47439,0.35864 -1.04903,0.55191 -1.72393,0.57878 h -3.68765 z m 2.18695,-1.80247 c 0.42168,0.0806 0.77722,0.0723 1.0666,-0.0248 0.28939,-0.0961 0.43409,-0.30282 0.43409,-0.62011 0,-0.29766 -0.1447,-0.49403 -0.43409,-0.59118 -0.28938,-0.0961 -0.64492,-0.10956 -1.0666,-0.0413 z m -0.0661,-3.15847 c 0.43821,0.0444 0.80822,0.0165 1.11207,-0.0827 0.30283,-0.10128 0.45476,-0.29765 0.45476,-0.58704 0,-0.23668 -0.10129,-0.40928 -0.30179,-0.51677 -0.0444,-0.0248 -0.0909,-0.0455 -0.14056,-0.062 -0.0476,-0.0186 -0.0951,-0.0341 -0.1447,-0.0455 -0.0475,-0.0134 -0.093,-0.0258 -0.13642,-0.0372 -0.0806,-0.0165 -0.16123,-0.0258 -0.24392,-0.0289 -0.0827,-0.005 -0.16019,-0.008 -0.23151,-0.008 l -0.36793,0.0372 z m 5.05498,0.0124 c 0,-0.0961 0.001,-0.1664 0.004,-0.21084 0.005,-0.0434 0.008,-0.10852 0.008,-0.19431 0,-0.0796 0.001,-0.13849 0.004,-0.17776 0.005,-0.0413 0.008,-0.10025 0.008,-0.17777 l 0.0289,-1.89756 0.0124,-0.39274 v -0.27698 l 0.31419,-0.0289 0.39688,-0.0248 0.35553,-0.0124 c 0.48163,-0.0269 0.99839,-0.0496 1.55029,-0.0662 0.55398,-0.0186 0.98496,-0.0186 1.29398,0 0.41031,0.0165 0.79995,0.14263 1.16996,0.37621 0.36897,0.23151 0.66559,0.57361 0.88883,1.02526 0.22324,0.45268 0.33487,0.99425 0.33487,1.62471 0,0.53536 -0.11059,1.00872 -0.33073,1.42213 -0.0858,0.1571 -0.15503,0.27182 -0.20671,0.34313 -0.0806,0.10542 -0.1602,0.19741 -0.23978,0.27699 -0.17363,0.185 -0.3638,0.339 -0.5705,0.46302 -0.20671,0.12196 -0.40308,0.20877 -0.58705,0.26045 l 0.8971,1.35599 c 0.0599,0.0775 0.11679,0.16019 0.1695,0.24804 0.0434,0.0724 0.0786,0.12609 0.10335,0.16123 0.0269,0.0331 0.0631,0.0858 0.10749,0.1571 l 0.65733,1.01286 h -2.48874 l -1.76114,-2.3027 v 2.3027 h -2.24068 z m 2.2903,0.43408 c 0.41342,0.0724 0.76171,0.0486 1.04594,-0.0703 0.28628,-0.11782 0.42995,-0.35347 0.42995,-0.70693 0,-0.34934 -0.14367,-0.57981 -0.42995,-0.6904 -0.28423,-0.10956 -0.63252,-0.12919 -1.04594,-0.0579 z m 5.93659,-1.10381 c 0.0269,-0.0796 0.0496,-0.15813 0.0662,-0.23564 0.0186,-0.0434 0.0331,-0.0879 0.0413,-0.1323 0.0248,-0.0796 0.0465,-0.15916 0.0661,-0.23977 0.0165,-0.0434 0.0289,-0.0868 0.0372,-0.12816 l 0.51263,-1.9513 h 3.01791 l 1.49654,6.15983 c 0.0186,0.0444 0.0331,0.093 0.0413,0.14469 0,0.0279 0.008,0.0765 0.0248,0.14469 0.0269,0.10749 0.0548,0.21395 0.0827,0.31833 l 0.45889,1.89343 h -2.59209 l -0.28939,-1.42214 h -1.86862 l -0.27699,1.42214 h -2.41018 z m 2.59623,1.93477 -0.34313,-1.80248 h -0.21084 l -0.36794,1.80248 z m 3.82922,2.23655 c 0,-0.0879 0.001,-0.15089 0.004,-0.19017 0.005,-0.0382 0.008,-0.0971 0.008,-0.17776 v -0.0124 c 0,-0.0796 0.001,-0.13642 0.004,-0.16949 0.005,-0.0351 0.008,-0.0889 0.008,-0.16124 l 0.19844,-5.4901 0.0124,-0.36794 0.0165,-0.35553 0.3018,-0.0124 0.40927,-0.0124 c 1.25367,-0.0434 2.32337,-0.0351 3.20807,0.0248 0.91468,0.0641 1.5844,0.32142 2.00919,0.77308 0.42374,0.45268 0.63665,1.13894 0.63665,2.05879 0,0.65939 -0.17157,1.24333 -0.51263,1.75286 -0.3421,0.50746 -0.75861,0.90537 -1.2485,1.19476 l 2.02571,2.59209 -0.71107,0.0827 -0.59117,0.062 -0.64493,0.0827 -0.50023,0.0496 -0.36793,0.0537 -0.39688,-0.57878 c -0.0692,-0.10438 -0.14366,-0.21084 -0.22324,-0.31832 -0.0527,-0.0765 -0.10542,-0.1509 -0.15709,-0.22325 l -0.97566,-1.42213 -0.21083,2.47633 h -2.35645 z m 2.71198,-3.01377 c 0.46509,0.0165 0.85989,-0.0424 1.18236,-0.17776 0.32452,-0.13436 0.48782,-0.36071 0.48782,-0.678 0,-0.22841 -0.0971,-0.41754 -0.28939,-0.56637 -0.0971,-0.0879 -0.22737,-0.154 -0.39274,-0.19844 -0.0362,-0.008 -0.0723,-0.0165 -0.10748,-0.0248 -0.0692,-0.0165 -0.13953,-0.03 -0.21084,-0.0413 -0.22635,-0.0413 -0.44959,-0.0537 -0.66973,-0.0372 z m 7.16132,3.68763 c 0,-0.0879 0,-0.15399 0,-0.19843 0,-0.0434 0,-0.10956 0,-0.19844 0,-0.0879 0,-0.1509 0,-0.19017 0,-0.0382 0,-0.10129 0,-0.19017 v -1.14515 l -1.72393,-3.38584 c -0.0362,-0.0765 -0.0651,-0.13333 -0.0868,-0.1695 -0.0228,-0.0351 -0.0496,-0.0879 -0.0827,-0.15709 -0.0444,-0.0961 -0.0941,-0.19224 -0.14882,-0.28939 l -0.74828,-1.47588 h 2.48874 l 1.35599,2.41019 1.55029,-2.41019 h 2.63343 l -1.14515,1.9761 c -0.0444,0.0692 -0.0744,0.12403 -0.0909,0.16537 -0.0165,0.0393 -0.0475,0.093 -0.091,0.16123 -0.0444,0.0724 -0.0765,0.12712 -0.0951,0.16536 -0.0165,0.0393 -0.0476,0.0941 -0.0909,0.16537 l -1.43454,2.47633 -0.0248,3.39411 h -2.26549 z m 0,0"
       style="fill:#041947 icc-color(Display, 0.0349884, 0.09799194, 0.26699829);fill-opacity:1;fill-rule:nonzero;stroke:none;stroke-width:0.352778"
       aria-label="BrisBane WesT ToY LibRary" />
    <path
       id="path76"
       d="m 91.186007,153.09899 h -6.72853 v -6.72853 h 6.72853 z"
       style="fill:#0048ce icc-color(Display, 0.10198975, 0.27799988, 0.77598572);fill-opacity:1;fill-rule:nonzero;stroke:none;stroke-width:0.352778" />
    <path
       id="path77"
       d="m 97.91489,146.37046 h -6.72853 v -6.72853 h 6.72853 z"
       style="fill:#fd20a6 icc-color(Display, 0.9099884, 0.23899841, 0.63899231);fill-opacity:1;fill-rule:nonzero;stroke:none;stroke-width:0.352778" />
    <path
       id="path78"
       d="m 97.91489,153.09899 h -6.72853 v -6.72853 h 6.72853 z"
       style="fill:#a40000 icc-color(Display, 0.58799744, 0, 0);fill-opacity:1;fill-rule:nonzero;stroke:none;stroke-width:0.352778" />
    <path
       id="path79"
       d="m 97.91489,159.82787 h -6.72853 v -6.72853 h 6.72853 z"
       style="fill:#1c9347 icc-color(Display, 0.2749939, 0.56898499, 0.30999756);fill-opacity:1;fill-rule:nonzero;stroke:none;stroke-width:0.352778" />
    <path
       id="path80"
       d="m 91.186007,159.82787 h -6.72853 v -6.72853 h 6.72853 z"
       style="fill:#fd20a6 icc-color(Display, 0.9099884, 0.23899841, 0.63899231);fill-opacity:1;fill-rule:nonzero;stroke:none;stroke-width:0.352778" />
    <path
       id="path81"
       d="m 84.457477,159.82787 h -6.72853 v -6.72853 h 6.72853 z"
       style="fill:#ff7800 icc-color(Display, 1, 0.5059967, 0.06298828);fill-opacity:1;fill-rule:nonzero;stroke:none;stroke-width:0.352778" />
    <path
       id="path82"
       d="m 77.728668,153.09913 3.364441,-6.72853 3.364089,6.72853"
       style="fill:#ffd800 icc-color(Display, 0.98799133, 0.85499573, 0.28199768);fill-opacity:1;fill-rule:nonzero;stroke:none;stroke-width:0.352778" />
    <path
       id="path83"
       d="m 83.868657,139.34094 1.931458,-7.27075 4.657725,5.90762"
       style="fill:#ff7800 icc-color(Display, 1, 0.5059967, 0.06298828);fill-opacity:1;fill-rule:nonzero;stroke:none;stroke-width:0.352778" />
    <path
       id="path84"
       d="m 111.52012,146.37046 h 6.72853 v 6.72853 h -6.72853 z"
       style="fill:#ff7800 icc-color(Display, 1, 0.5059967, 0.06298828);fill-opacity:1;fill-rule:nonzero;stroke:none;stroke-width:0.352778" />
    <path
       id="path85"
       d="m 104.79159,146.37046 h 6.72853 v 6.72853 h -6.72853 z"
       style="fill:#ffd800 icc-color(Display, 0.98799133, 0.85499573, 0.28199768);fill-opacity:1;fill-rule:nonzero;stroke:none;stroke-width:0.352778" />
    <path
       id="path86"
       d="m 98.062704,146.37046 h 6.728526 v 6.72853 h -6.728526 z"
       style="fill:#ff7800 icc-color(Display, 1, 0.5059967, 0.06298828);fill-opacity:1;fill-rule:nonzero;stroke:none;stroke-width:0.352778" />
    <path
       id="path87"
       d="m 111.52012,159.82787 h -6.72853 v -6.72853 h 6.72853 z"
       style="fill:#1c9347 icc-color(Display, 0.2749939, 0.56898499, 0.30999756);fill-opacity:1;fill-rule:nonzero;stroke:none;stroke-width:0.352778" />
    <path
       id="path88"
       d="M 124.97753,159.82787 H 118.249 v -6.72853 h 6.72853 z"
       style="fill:#1c9347 icc-color(Display, 0.2749939, 0.56898499, 0.30999756);fill-opacity:1;fill-rule:nonzero;stroke:none;stroke-width:0.352778" />
    <path
       id="path89"
       d="m 138.43491,146.45167 h -6.72853 l 7.02063,-5.61446"
       style="fill:#1c9347 icc-color(Display, 0.2749939, 0.56898499, 0.30999756);fill-opacity:1;fill-rule:nonzero;stroke:none;stroke-width:0.352778" />
    <path
       id="path90"
       d="m 138.72708,140.83717 6.43643,5.61446 h -6.72853"
       style="fill:#a40000 icc-color(Display, 0.58799744, 0, 0);fill-opacity:1;fill-rule:nonzero;stroke:none;stroke-width:0.352778" />
    <path
       id="path91"
       d="m 131.70606,146.37046 h 6.72853 v 6.72853 h -6.72853 z"
       style="fill:#fd20a6 icc-color(Display, 0.9099884, 0.23899841, 0.63899231);fill-opacity:1;fill-rule:nonzero;stroke:none;stroke-width:0.352778" />
    <path
       id="path92"
       d="m 124.97753,146.37046 h 6.72853 v 6.72853 h -6.72853 z"
       style="fill:#a40000 icc-color(Display, 0.58799744, 0, 0);fill-opacity:1;fill-rule:nonzero;stroke:none;stroke-width:0.352778" />
    <path
       id="path93"
       d="m 118.249,146.37046 h 6.72853 v 6.72853 H 118.249 Z"
       style="fill:#0048ce icc-color(Display, 0.10198975, 0.27799988, 0.77598572);fill-opacity:1;fill-rule:nonzero;stroke:none;stroke-width:0.352778" />
    <path
       id="path94"
       d="m 131.70624,153.09913 v 6.72853 h -6.72853 v -6.72853 z"
       style="fill:#ffd800 icc-color(Display, 0.98799133, 0.85499573, 0.28199768);fill-opacity:1;fill-rule:nonzero;stroke:none;stroke-width:0.352778" />
    <path
       id="path95"
       d="m 138.43491,153.09913 v 6.72853 h -6.72853 v -6.72853 z"
       style="fill:#ff7800 icc-color(Display, 1, 0.5059967, 0.06298828);fill-opacity:1;fill-rule:nonzero;stroke:none;stroke-width:0.352778" />
    <path
       id="path96"
       d="m 111.66822,139.63343 v 6.72853 h -6.72853 v -6.72853 z"
       style="fill:#0048ce icc-color(Display, 0.10198975, 0.27799988, 0.77598572);fill-opacity:1;fill-rule:nonzero;stroke:none;stroke-width:0.352778" />
    <path
       id="path97"
       d="m 118.39689,139.63343 v 6.72853 h -6.72853 v -6.72853 z"
       style="fill:#1c9347 icc-color(Display, 0.2749939, 0.56898499, 0.30999756);fill-opacity:1;fill-rule:nonzero;stroke:none;stroke-width:0.352778" />
    <path
       id="path98"
       d="m 111.66822,139.61674 h -6.72853 l 7.02063,-5.61446"
       style="fill:#a40000 icc-color(Display, 0.58799744, 0, 0);fill-opacity:1;fill-rule:nonzero;stroke:none;stroke-width:0.352778" />
    <path
       id="path99"
       d="m 111.96035,134.00221 6.43643,5.61446 h -6.72853"
       style="fill:#fd20a6 icc-color(Display, 0.9099884, 0.23899841, 0.63899231);fill-opacity:1;fill-rule:nonzero;stroke:none;stroke-width:0.352778" />
    <path
       id="path100"
       d="m 145.16347,159.82787 h -6.72853 v -6.72853 h 6.72853 z"
       style="fill:#0048ce icc-color(Display, 0.10198975, 0.27799988, 0.77598572);fill-opacity:1;fill-rule:nonzero;stroke:none;stroke-width:0.352778" />
    <path
       id="path101"
       d="m 138.43491,153.09913 v -6.72853 h 6.72853 v 6.72853 z"
       style="fill:#ffd800 icc-color(Display, 0.98799133, 0.85499573, 0.28199768);fill-opacity:1;fill-rule:nonzero;stroke:none;stroke-width:0.352778" />
    <path
       id="path102"
       d="m 84.269096,124.17548 c -0.254706,-0.21943 -0.459669,-0.43674 -0.600781,-0.76623 -0.242358,-0.56621 -0.680861,-1.016 -1.159933,-1.40371 -0.88653,-0.7179 -1.840089,-0.75388 -2.763661,-0.0727 -1.230841,0.9077 -1.986491,2.08986 -1.972733,3.67383 0.0046,0.55527 0.01834,1.11054 0.02787,1.66546 0.194028,1.55611 -0.361244,2.7492 -1.495424,3.62444 l 0.201436,-0.0632 c 0.386644,-0.12594 0.626533,0.36125 0.464608,0.73414 l 0.442736,0.0649 c 0.09172,0.0138 0.147108,0.10936 0.112536,0.19579 l -0.232128,0.58102 0.571148,0.15946 c 0.09419,0.20143 -0.02152,0.38417 -0.189795,0.55139 0.601486,-0.28928 1.291519,-0.88865 1.719086,-1.36243 0.363361,-0.45755 0.437445,-1.01 0.518936,-1.56174 0.1016,-0.68722 0.161572,-1.38254 0.415925,-2.04012 0.159103,-0.41098 0.382764,-0.80257 0.859014,-0.79198 0.440972,0.01 0.859014,0.19226 1.105253,0.62406 1.394883,2.44687 1.873602,5.02708 1.150408,7.78722 -0.112183,0.42862 -0.228953,0.86289 -0.01094,1.33949 0.46355,-0.19967 0.503061,-0.65193 0.605367,-1.02199 0.775405,-2.80459 0.551391,-5.56049 -0.441678,-8.27617 -0.2286,-0.62548 -0.49142,-1.24778 -0.535164,-1.92405 -0.01023,-0.15311 0.0194,-0.35842 0.115358,-0.45755 0.143581,-0.14852 0.309386,0.0141 0.436386,0.10654 2.429228,1.77023 4.204406,3.96486 4.577645,7.06896 0.06703,0.55739 0.04374,1.10948 -0.02293,1.6644 -0.01976,0.16263 -0.02117,0.35913 0.199672,0.39335 0.198967,0.031 0.300567,-0.12771 0.358775,-0.28505 0.149578,-0.40251 0.102659,-0.82161 0.08361,-1.2386 -0.168275,-3.67136 -1.795992,-6.60435 -4.540603,-8.96902"
       style="fill:#041947 icc-color(Display, 0.0349884, 0.09799194, 0.26699829);fill-opacity:1;fill-rule:nonzero;stroke:none;stroke-width:0.352778" />
    <path
       id="path103"
       d="m 65.019953,140.04642 c -0.715081,0.99977 -1.360664,2.04717 -1.969558,3.11432 -0.602545,1.05622 -1.249539,2.13184 -1.747661,3.24132 0.9906,0.29845 2.05105,0.50553 3.063875,0.76236 1.058686,0.26846 2.116666,0.53904 3.176058,0.80539 0.50553,0.12841 1.015294,0.25788 1.483783,0.48683 0.900642,0.43921 1.59138,1.21462 2.176286,2.02812 0.629003,0.87524 1.177925,1.85843 1.261533,2.933 -0.740127,-1.61502 -1.7272,-3.17148 -3.168297,-4.21076 0.832909,1.06998 1.279878,2.43346 1.241778,3.78848 -0.369711,-1.52541 -0.806803,-3.16124 -2.018947,-4.15854 -0.06138,-0.0505 -0.130528,-0.10125 -0.210256,-0.10301 -0.09525,-0.002 -0.176389,0.0663 -0.244122,0.13335 -0.840669,0.83114 -1.186392,2.02635 -1.500364,3.16618 -0.0194,-1.19663 0.392995,-2.39572 1.144411,-3.3274 -2.298347,-0.16969 -4.566355,-0.73943 -6.67138,-1.67676 -0.146403,-0.0649 -0.303036,-0.14252 -0.371475,-0.28751 -0.155222,-0.32703 0.07655,-0.84702 0.195792,-1.15182 0.161219,-0.4131 0.37218,-0.80504 0.587375,-1.19239 0.990952,-1.78435 2.091619,-3.50837 3.29318,-5.15867"
       style="fill:#0048ce icc-color(Display, 0.10198975, 0.27799988, 0.77598572);fill-opacity:1;fill-rule:nonzero;stroke:none;stroke-width:0.352778" />
    <path
       id="path104"
       d="m 66.639274,142.36001 c -0.403931,1.87466 -0.808919,3.7525 -1.382183,5.58271 -0.0822,0.26211 -0.168275,0.52634 -0.187678,0.8001 -0.0194,0.27023 0.02716,0.53975 0.07161,0.8068 0.461786,2.76684 0.762,5.56084 0.898878,8.36295 1.56598,-1.00718 3.704872,-1.04034 5.301191,-0.0822 -1.700389,-0.3182 -3.501319,-0.51329 -5.12445,0.0847 1.700389,-0.26353 3.492853,0.11747 4.939242,1.04951 -1.500364,-0.62124 -3.147836,-0.88441 -4.767086,-0.76094 0.918986,0.13441 1.818216,0.40111 2.661708,0.78952 0.371475,0.17145 0.764117,0.40181 0.892528,0.79022 -2.348089,-1.52823 -5.46735,-1.79599 -8.041569,-0.69039 0.219427,-0.28081 0.583847,-0.39828 0.927452,-0.49318 0.729898,-0.20179 1.468967,-0.3683 2.2098,-0.52564 0.229659,-0.049 0.464961,-0.11606 0.695325,-0.15099 -0.26423,-2.24825 -0.529166,-4.49756 -0.906286,-6.72958 -0.1143,-0.67628 -0.239183,-1.35397 -0.246944,-2.03977 -0.02611,-2.29693 1.255536,-4.44394 1.314097,-6.74052"
       style="fill:#0048ce icc-color(Display, 0.10198975, 0.27799988, 0.77598572);fill-opacity:1;fill-rule:nonzero;stroke:none;stroke-width:0.352778" />
    <path
       id="path105"
       d="m 76.068143,131.07483 c -0.376767,0.25929 -0.711906,0.46002 -1.107722,0.31997 -0.39617,-0.14005 -0.708378,-0.44203 -1.044575,-0.69391 -1.160286,-0.87066 -2.670881,-1.17017 -4.120092,-1.10667 -1.449211,0.0631 -2.860674,0.46073 -4.253441,0.86678 -0.911931,0.26599 -1.82633,0.53834 -2.687108,0.9398 -0.865364,0.40393 -1.66617,0.93345 -2.439458,1.49366 -2.589036,1.87642 -4.909256,4.12362 -6.867525,6.65127 -0.144639,0.18662 -0.292806,0.3877 -0.270933,0.63888 0.0127,0.14711 0.108655,0.28187 0.25153,0.31997 0.407811,0.10901 0.562681,-0.61101 0.97402,-0.70873 -0.3429,0.2667 -0.470959,0.7754 -0.295275,1.17228 0.523169,-0.1016 1.008591,-0.38594 1.353255,-0.79269 l 0.03528,0.5087 c 0.72143,0.3616 1.42628,-0.98989 2.183694,-0.71155 -0.08678,0.12665 -0.01199,0.31186 0.116064,0.39652 0.128058,0.0843 0.289278,0.0952 0.442383,0.10372 2.361142,0.12876 4.722636,0.25788 7.083778,0.387 0.03986,0.43815 -0.03316,0.87947 -0.0088,1.31868 0.03351,0.60254 0.298098,1.26012 1.036461,1.32539 0.267406,0.0236 0.53587,-0.0444 0.771525,-0.17322 0.632884,-0.34643 0.974373,-0.98107 1.419931,-1.51553 1.05798,-1.26824 2.652889,-1.92581 4.119738,-2.68499 1.46685,-0.75953 2.960511,-1.78717 3.459339,-3.36162 0.236361,-0.74613 0.264231,-1.62984 0.850547,-2.14807 0.281164,-0.24835 0.716139,-0.5341 0.557742,-0.87347 l -0.571147,-0.15946 0.232128,-0.58102 c 0.03457,-0.0864 -0.02081,-0.18204 -0.112537,-0.1958 l -0.442736,-0.0649 c 0.161925,-0.37288 -0.07796,-0.86007 -0.464608,-0.73413"
       style="fill:#449dff icc-color(Display, 0.36099243, 0.60798645, 1);fill-opacity:1;fill-rule:nonzero;stroke:none;stroke-width:0.352778" />
    <path
       id="path106"
       d="m 82.380572,123.79473 c 0,0.3556 -0.288219,0.64382 -0.643819,0.64382 -0.3556,0 -0.64382,-0.28822 -0.64382,-0.64382 0,-0.3556 0.28822,-0.64382 0.64382,-0.64382 0.3556,0 0.643819,0.28822 0.643819,0.64382"
       style="fill:#ffd800 icc-color(Display, 0.98799133, 0.85499573, 0.28199768);fill-opacity:1;fill-rule:nonzero;stroke:none;stroke-width:0.352778" />
    <path
       id="path107"
       d="m 82.2069,123.93178 c 0,0.12982 -0.105128,0.23495 -0.23495,0.23495 -0.129822,0 -0.235303,-0.10513 -0.235303,-0.23495 0,-0.12982 0.105481,-0.23495 0.235303,-0.23495 0.129822,0 0.23495,0.10513 0.23495,0.23495"
       style="fill:#041947 icc-color(Display, 0.0349884, 0.09799194, 0.26699829);fill-opacity:1;fill-rule:nonzero;stroke:none;stroke-width:0.352778" />
  </g>
</svg>
